<?xml version="1.0" standalone="no"?>
<!DOCTYPE svg PUBLIC "-//W3C//DTD SVG 20010904//EN"
 "http://www.w3.org/TR/2001/REC-SVG-20010904/DTD/svg10.dtd">
<svg version="1.0" xmlns="http://www.w3.org/2000/svg"
 width="1500.000000pt" height="1500.000000pt" viewBox="0 0 1500.000000 1500.000000"
 preserveAspectRatio="xMidYMid meet">

<g transform="translate(0.000000,1500.000000) scale(0.100000,-0.100000)"
fill="#000000" stroke="none">
<path d="M3525 13873 c-538 -68 -995 -441 -1164 -950 -68 -205 -64 -122 -71
-1373 -6 -1121 -6 -1136 -28 -1232 -69 -302 -182 -525 -361 -711 -212 -220
-451 -346 -788 -413 l-23 -4 0 -390 0 -390 28 -6 c331 -71 560 -189 763 -393
195 -196 310 -415 381 -729 22 -96 22 -110 28 -1232 l6 -1135 26 -105 c65
-264 176 -466 357 -654 211 -216 434 -341 732 -408 l104 -23 3965 0 3965 0
104 23 c299 67 524 193 732 410 238 247 352 511 389 902 7 63 15 151 20 195 5
44 9 447 9 896 1 835 5 948 42 1131 110 550 474 945 1004 1092 50 13 107 27
128 31 l37 6 0 389 0 389 -37 6 c-135 22 -340 97 -468 172 -351 203 -580 531
-664 951 -37 185 -41 296 -41 1148 1 528 -3 858 -10 909 -6 44 -15 131 -21
194 -18 208 -61 365 -145 534 -189 378 -519 638 -944 745 l-105 27 -3960 1
c-2178 1 -3973 -1 -3990 -3z m5876 -2542 c49 -48 55 -64 49 -131 -1 -14 -9
-38 -17 -55 -15 -30 -4879 -4908 -4918 -4932 -30 -19 -84 -15 -134 8 -35 17
-313 288 -1187 1163 -1254 1253 -1163 1153 -1149 1264 l6 47 1202 1197 c661
659 1222 1211 1246 1228 77 52 154 37 211 -42 l30 -41 0 -636 c0 -573 -2 -639
-16 -661 -9 -14 -252 -261 -540 -550 l-524 -525 0 -48 c0 -26 6 -60 14 -75 23
-43 697 -709 731 -722 73 -28 55 -44 710 609 2114 2104 2934 2911 2976 2931
42 19 67 20 653 20 l609 0 48 -49z m1188 -22 c35 -17 312 -287 1180 -1153 666
-665 1139 -1144 1147 -1163 16 -38 18 -94 4 -143 -8 -28 -256 -279 -1221
-1235 -666 -660 -1225 -1208 -1243 -1217 -72 -39 -155 -12 -201 66 l-25 43 0
616 c0 405 4 625 10 644 6 15 249 267 540 558 491 493 529 533 535 571 4 28 1
53 -8 75 -9 20 -157 176 -368 386 -303 300 -359 352 -390 358 -24 4 -46 2 -63
-7 -15 -8 -660 -642 -1434 -1409 -2124 -2107 -2133 -2115 -2176 -2133 -34 -14
-110 -16 -641 -16 l-602 0 -40 29 c-67 49 -88 116 -58 189 11 26 716 738 2463
2487 1346 1347 2456 2455 2467 2462 30 18 73 16 124 -8z"/>
<path d="M1540 3201 c-6 -12 -10 -127 -10 -304 0 -267 1 -285 19 -301 22 -20
54 -10 65 20 3 8 6 141 6 294 0 240 -2 281 -16 294 -21 22 -51 20 -64 -3z"/>
<path d="M11550 3201 c-6 -12 -10 -127 -10 -304 0 -270 1 -285 20 -302 18 -17
21 -17 45 -1 l25 16 0 290 c0 249 -2 291 -16 304 -21 22 -51 20 -64 -3z"/>
<path d="M4170 3201 c-68 -21 -141 -83 -173 -146 -24 -48 -40 -143 -32 -193
33 -218 214 -334 388 -249 84 42 129 111 95 145 -20 20 -39 14 -83 -27 -84
-77 -175 -75 -252 5 -50 51 -67 104 -61 189 5 78 31 130 81 163 34 22 52 27
107 27 67 0 76 -4 143 -57 33 -27 60 -16 65 26 4 35 -52 89 -116 111 -48 16
-120 19 -162 6z"/>
<path d="M4787 3195 c-154 -59 -224 -245 -161 -429 25 -73 103 -150 173 -170
67 -20 84 -20 147 -1 203 60 270 369 116 528 -20 21 -55 48 -77 59 -51 26
-147 33 -198 13z m162 -95 c76 -38 111 -104 111 -210 0 -56 -26 -128 -58 -163
-51 -57 -155 -67 -222 -23 -55 37 -82 94 -87 186 -4 67 -2 81 24 130 22 43 38
60 73 78 55 27 109 28 159 2z"/>
<path d="M6720 3190 c-21 -21 -22 -28 -18 -208 5 -212 16 -256 75 -317 50 -52
105 -75 178 -75 73 0 126 23 177 76 61 63 70 104 76 312 4 157 2 186 -12 207
-18 27 -32 30 -56 15 -12 -7 -16 -46 -20 -207 -5 -187 -6 -200 -29 -237 -26
-42 -86 -75 -136 -76 -47 0 -117 40 -140 80 -18 31 -21 58 -25 229 -5 185 -6
194 -27 208 -19 13 -24 12 -43 -7z"/>
<path d="M9664 3194 c-86 -31 -145 -121 -128 -197 19 -91 68 -123 208 -139
127 -14 167 -27 186 -60 13 -25 13 -31 0 -55 -26 -46 -75 -67 -155 -67 -83 0
-127 20 -156 69 -23 39 -43 49 -70 35 -23 -13 -25 -50 -4 -89 75 -145 386
-147 459 -2 45 90 14 191 -69 226 -16 7 -75 18 -130 25 -120 13 -162 25 -175
50 -41 77 72 146 196 120 51 -11 66 -21 102 -69 15 -19 24 -23 44 -18 49 13
43 65 -15 125 -56 58 -197 80 -293 46z"/>
<path d="M10357 3196 c-158 -59 -227 -251 -157 -438 27 -74 98 -141 171 -162
65 -20 82 -20 145 -1 136 40 225 210 194 367 -6 35 -19 76 -27 93 -22 44 -82
104 -128 127 -50 26 -147 33 -198 14z m168 -99 c21 -12 53 -42 70 -65 28 -41
30 -50 30 -130 0 -71 -4 -95 -23 -129 -50 -94 -166 -126 -253 -69 -124 83
-118 329 11 394 56 28 114 28 165 -1z"/>
<path d="M11067 3196 c-115 -43 -187 -157 -187 -297 0 -151 91 -278 221 -309
43 -11 60 -10 114 5 101 27 181 107 155 156 -14 25 -56 25 -70 -1 -19 -36 -98
-74 -152 -73 -159 2 -250 244 -141 374 72 85 195 89 293 9 29 -24 56 -19 66
12 8 27 -21 66 -79 102 -56 35 -158 45 -220 22z"/>
<path d="M13020 3190 c-12 -12 -17 -26 -13 -37 4 -10 51 -84 105 -165 l98
-148 0 -103 c0 -109 13 -147 49 -147 35 0 41 21 41 134 l0 111 105 158 c58 87
105 165 105 172 0 20 -30 46 -49 43 -9 -2 -56 -65 -106 -140 -49 -75 -93 -137
-96 -137 -4 -1 -44 56 -89 127 -105 161 -113 169 -150 132z"/>
<path d="M1838 3189 c-17 -9 -18 -34 -18 -289 0 -240 2 -281 16 -294 13 -13
45 -16 199 -16 176 0 185 1 199 21 9 14 12 29 7 43 -8 20 -15 21 -175 24
l-166 2 0 85 0 85 155 0 c142 0 155 1 165 19 14 27 13 37 -6 55 -13 13 -42 16
-165 16 l-149 0 0 85 0 85 161 2 c150 3 163 4 175 23 12 18 11 24 -2 43 -15
21 -21 22 -197 22 -105 0 -189 -5 -199 -11z"/>
<path d="M2454 3186 c-18 -14 -19 -29 -19 -291 0 -262 1 -277 19 -291 15 -11
60 -14 201 -14 190 0 205 3 205 45 0 41 -16 45 -182 45 l-158 0 0 85 0 85 155
0 c146 0 155 1 165 21 9 16 8 26 -5 45 -15 24 -18 24 -165 24 l-150 0 0 85 0
85 158 0 c166 0 182 4 182 45 0 42 -15 45 -205 45 -141 0 -186 -3 -201 -14z"/>
<path d="M3070 3180 c-19 -19 -20 -33 -20 -285 0 -252 1 -266 20 -285 18 -18
33 -20 196 -20 102 0 183 4 195 10 21 12 25 50 7 68 -8 8 -60 12 -170 12
l-158 0 0 85 0 84 158 3 157 3 3 30 c6 49 -14 55 -175 55 l-143 0 0 85 0 85
158 0 c166 0 182 4 182 45 0 42 -15 45 -207 45 -170 0 -184 -1 -203 -20z"/>
<path d="M5352 3188 c-13 -13 -18 -564 -4 -584 12 -18 39 -23 56 -11 13 10 16
43 18 206 l3 194 74 -131 c73 -130 97 -156 126 -132 7 6 44 66 82 132 l68 120
6 -188 c3 -104 6 -190 7 -191 1 -1 11 -7 22 -13 15 -8 24 -6 40 10 19 19 20
32 20 293 0 294 -3 312 -50 305 -18 -2 -42 -36 -118 -170 -52 -93 -98 -166
-102 -163 -4 2 -43 67 -85 142 -43 76 -87 150 -97 166 -21 29 -46 35 -66 15z"/>
<path d="M6101 3186 c-8 -9 -11 -97 -9 -302 l3 -289 23 -3 c41 -6 52 14 52 93
l0 73 98 4 c118 4 180 30 219 89 34 52 43 150 19 213 -21 54 -81 111 -133 125
-58 16 -258 14 -272 -3z m277 -96 c41 -25 66 -81 59 -133 -10 -76 -65 -107
-187 -107 l-80 0 0 130 0 130 88 0 c70 0 94 -4 120 -20z"/>
<path d="M7362 3188 c-7 -7 -12 -21 -12 -33 0 -38 19 -45 117 -45 l93 0 0
-255 c0 -244 1 -255 20 -265 14 -8 26 -8 40 0 19 10 20 21 20 265 l0 255 93 0
c98 0 117 7 117 45 0 43 -13 45 -250 45 -162 0 -229 -3 -238 -12z"/>
<path d="M8017 3182 c-15 -16 -17 -51 -17 -289 0 -249 1 -271 18 -286 27 -25
372 -25 396 -1 19 18 20 28 6 55 -10 18 -23 19 -175 19 l-165 0 0 85 0 85 153
0 c157 0 177 5 177 41 0 43 -24 49 -181 49 l-149 0 0 85 0 85 159 0 c132 0
162 3 175 16 9 8 16 22 16 29 0 7 -7 21 -16 29 -13 13 -45 16 -198 16 -164 0
-185 -2 -199 -18z"/>
<path d="M8632 3187 c-9 -11 -12 -88 -10 -303 l3 -289 23 -3 c43 -6 52 13 52
109 l0 89 73 0 72 0 80 -100 c80 -100 105 -116 133 -88 22 22 13 44 -48 119
-33 40 -60 76 -60 79 0 3 17 14 38 25 56 30 84 92 80 176 -4 81 -37 138 -101
171 -36 20 -60 23 -183 26 -114 3 -142 1 -152 -11z m283 -91 c38 -16 75 -68
75 -104 0 -39 -29 -83 -65 -98 -22 -9 -70 -14 -130 -14 l-95 0 0 115 0 115 90
0 c56 0 104 -5 125 -14z"/>
<path d="M11846 3184 c-14 -13 -16 -54 -16 -288 0 -252 1 -274 18 -289 16 -15
45 -17 199 -17 167 0 181 1 198 20 15 17 16 24 7 45 l-12 25 -165 0 -165 0 0
85 0 85 153 0 c157 0 177 5 177 41 0 43 -24 49 -181 49 l-149 0 0 85 0 85 159
0 c151 0 161 1 175 21 15 22 11 48 -8 61 -6 4 -93 8 -193 8 -152 0 -184 -3
-197 -16z"/>
<path d="M12406 3184 c-19 -18 -20 -28 -6 -55 9 -17 22 -19 105 -19 l95 0 0
-255 c0 -241 1 -255 19 -265 26 -13 50 -3 62 27 6 15 7 119 3 259 l-7 234 94
0 c100 0 119 7 119 45 0 43 -13 45 -246 45 -189 0 -225 -2 -238 -16z"/>
<path d="M4433 2103 c-20 -7 -18 -526 1 -542 11 -9 18 -8 30 4 14 14 16 50 16
269 0 271 -3 287 -47 269z"/>
<path d="M2253 2088 c-23 -29 -224 -490 -221 -506 2 -9 12 -17 23 -17 14 0 28
18 52 68 l33 68 136 -3 135 -3 29 -65 c23 -53 33 -65 52 -65 12 0 24 7 26 15
4 24 -223 515 -240 518 -8 2 -19 -3 -25 -10z m76 -207 c28 -63 51 -116 51
-118 0 -2 -47 -3 -105 -3 -58 0 -105 4 -105 9 0 5 18 49 41 98 22 48 45 99 50
112 5 13 11 22 13 20 2 -2 27 -55 55 -118z"/>
<path d="M2828 2090 c-108 -34 -179 -137 -180 -262 0 -156 97 -268 232 -268
64 0 128 28 165 72 24 28 26 36 23 122 l-3 91 -96 3 c-82 2 -98 0 -103 -14
-12 -31 13 -44 85 -44 l69 0 0 -55 c0 -53 -2 -56 -42 -85 -67 -49 -159 -40
-214 22 -79 86 -82 216 -8 298 69 76 161 88 228 30 37 -33 63 -38 72 -15 22
57 -142 133 -228 105z"/>
<path d="M3406 2008 c-126 -271 -188 -419 -183 -433 4 -8 15 -15 25 -15 14 0
28 19 51 70 l31 70 136 0 135 0 31 -70 c26 -58 35 -70 52 -68 12 2 22 11 23
23 4 33 -219 509 -240 513 -13 3 -27 -18 -61 -90z m117 -131 c26 -59 47 -110
47 -112 0 -3 -48 -5 -106 -5 -97 0 -106 2 -99 18 30 78 100 221 105 215 4 -5
28 -56 53 -116z"/>
<path d="M4815 2088 c-90 -25 -175 -152 -175 -262 0 -101 59 -205 141 -246 80
-41 187 -20 254 49 26 28 30 41 33 101 2 38 1 81 -2 95 -7 26 -7 26 -104 23
-86 -3 -97 -5 -100 -22 -6 -27 15 -36 86 -36 l62 0 0 -54 c0 -48 -3 -57 -31
-80 -37 -32 -67 -40 -123 -34 -57 7 -101 41 -131 102 -49 98 -24 217 58 277
69 50 141 48 207 -8 51 -43 86 -1 38 44 -55 50 -141 70 -213 51z"/>
<path d="M5639 2084 c-80 -24 -133 -108 -115 -180 4 -15 19 -39 35 -54 28 -29
67 -40 209 -59 83 -11 112 -30 112 -73 0 -68 -49 -101 -150 -101 -76 0 -124
20 -148 64 -21 36 -37 43 -56 23 -20 -20 -4 -66 36 -99 97 -81 305 -63 361 33
25 42 25 117 -1 151 -28 39 -65 53 -179 66 -111 14 -149 31 -159 69 -27 110
229 152 286 47 12 -23 45 -28 53 -8 8 21 -19 73 -49 94 -60 43 -151 53 -235
27z"/>
<path d="M6995 2084 c-12 -13 -15 -46 -15 -183 0 -158 -1 -170 -22 -201 -38
-55 -73 -75 -133 -75 -58 0 -91 18 -129 69 -19 25 -22 46 -26 209 l-5 182 -25
0 -25 0 0 -185 c0 -170 2 -188 22 -225 41 -76 105 -115 190 -115 92 1 176 63
202 149 6 22 11 110 11 209 0 140 -3 171 -15 176 -8 3 -21 -2 -30 -10z"/>
<path d="M9898 2086 c-55 -20 -85 -42 -118 -88 -40 -55 -53 -108 -48 -193 6
-86 31 -138 93 -193 56 -49 118 -66 185 -51 79 18 161 87 146 124 -8 21 -42
19 -58 -4 -38 -54 -145 -79 -206 -47 -117 61 -146 254 -53 347 67 67 171 75
236 18 36 -32 63 -37 72 -13 9 25 -55 83 -111 99 -60 18 -89 18 -138 1z"/>
<path d="M10361 2091 c-8 -5 -11 -76 -9 -267 3 -251 4 -259 23 -259 19 0 20 8
23 113 l3 112 134 0 135 0 0 -116 c0 -114 0 -115 23 -112 l22 3 3 259 c2 264
0 282 -35 269 -10 -4 -13 -35 -13 -129 l0 -124 -135 0 -135 0 0 124 c0 125 -7
147 -39 127z"/>
<path d="M11103 2088 c-6 -7 -61 -123 -121 -258 -94 -208 -109 -247 -97 -259
22 -22 39 -7 71 63 l29 65 136 1 136 0 32 -70 c24 -53 36 -70 51 -70 11 0 23
6 26 14 8 20 -220 520 -238 524 -8 2 -20 -3 -25 -10z m62 -178 c21 -47 44
-100 51 -117 l14 -33 -109 0 -110 0 31 67 c17 37 41 92 54 122 13 30 26 52 28
50 2 -2 20 -42 41 -89z"/>
<path d="M1514 2075 c-16 -40 -1 -44 155 -47 l150 -3 -166 -214 c-135 -173
-164 -216 -156 -230 15 -23 383 -30 403 -6 7 8 10 22 6 30 -4 13 -32 15 -166
15 -88 0 -160 2 -160 5 0 3 73 98 163 211 89 113 164 212 165 221 2 9 -2 19
-10 24 -7 5 -95 9 -196 9 -153 0 -184 -2 -188 -15z"/>
<path d="M3871 2076 c-6 -7 -9 -21 -5 -30 5 -14 27 -16 160 -16 l154 0 -165
-212 c-91 -116 -165 -219 -165 -229 0 -9 7 -20 16 -23 9 -3 96 -6 194 -6 147
0 181 3 194 15 8 9 13 22 10 30 -5 12 -34 15 -165 15 -87 0 -159 3 -159 8 0 4
68 93 151 197 189 238 185 231 169 250 -18 21 -372 22 -389 1z"/>
<path d="M6041 2076 c-6 -7 -9 -21 -5 -30 5 -13 22 -16 95 -16 l89 0 0 -228
c0 -239 4 -261 42 -241 17 9 18 26 18 239 l0 230 89 0 c93 0 108 7 89 43 -8
15 -28 17 -207 17 -156 0 -201 -3 -210 -14z"/>
<path d="M7236 2074 c-14 -13 -16 -50 -16 -249 0 -206 2 -236 17 -250 14 -15
33 -17 127 -13 143 6 190 31 242 128 29 54 27 220 -3 276 -28 53 -83 100 -130
113 -62 17 -219 14 -237 -5z m255 -67 c110 -74 113 -282 6 -361 -23 -17 -46
-22 -123 -24 l-94 -4 0 206 0 206 89 0 c75 0 93 -3 122 -23z"/>
<path d="M7826 2074 c-14 -13 -16 -50 -16 -249 0 -199 2 -236 16 -249 13 -13
43 -16 172 -16 86 0 163 4 170 9 8 5 12 17 10 27 -3 17 -16 19 -156 22 l-152
3 0 84 0 85 140 0 c123 0 140 2 148 18 20 38 6 42 -144 42 l-144 0 0 90 0 89
152 3 c140 3 153 5 156 22 2 10 -2 22 -10 27 -7 5 -84 9 -170 9 -129 0 -159
-3 -172 -16z"/>
<path d="M8365 2078 c-3 -7 -4 -126 -3 -263 l3 -250 25 0 25 0 5 202 5 203
130 -200 c128 -197 159 -230 186 -203 5 5 8 114 7 264 l-3 254 -25 0 -25 0 0
-208 c0 -167 -2 -205 -12 -190 -241 359 -269 398 -291 401 -12 2 -24 -3 -27
-10z"/>
<path d="M8902 2081 c-8 -4 -12 -17 -10 -27 3 -17 14 -19 96 -22 l92 -3 0
-233 c0 -242 3 -259 41 -235 12 7 13 48 11 238 l-4 230 94 3 c92 3 93 3 93 28
l0 25 -200 2 c-110 2 -206 -1 -213 -6z"/>
<path d="M11530 2071 c-12 -24 -14 -480 -1 -499 5 -8 17 -12 27 -10 16 3 19
14 22 81 l3 77 90 0 c54 0 103 6 123 14 111 46 137 199 51 295 -44 48 -88 61
-208 61 -85 0 -98 -2 -107 -19z m247 -61 c66 -40 84 -133 37 -189 -31 -37 -77
-51 -166 -51 l-68 0 0 130 0 130 83 0 c64 0 89 -4 114 -20z"/>
<path d="M12002 2081 c-8 -4 -12 -17 -10 -27 3 -17 14 -19 96 -22 l92 -3 0
-233 c0 -186 3 -235 13 -239 35 -13 38 5 37 241 l-1 231 93 3 c92 3 93 3 93
28 l0 25 -200 2 c-110 2 -206 -1 -213 -6z"/>
<path d="M12582 2078 c-17 -17 -17 -489 0 -506 8 -8 61 -12 174 -12 169 0 193
6 178 44 -5 14 -27 16 -160 16 l-154 0 0 85 0 85 138 0 c75 0 143 4 150 9 8 5
12 17 10 27 -3 17 -16 19 -151 22 l-147 3 0 89 0 89 153 3 152 3 0 25 0 25
-165 3 c-120 2 -169 -1 -178 -10z"/>
<path d="M13132 2082 c-9 -7 -12 -66 -10 -263 3 -239 4 -254 22 -257 28 -6 36
15 36 101 l0 77 69 0 70 0 71 -87 c50 -61 79 -88 93 -88 38 0 29 28 -33 104
-33 41 -58 76 -56 78 2 3 19 12 37 21 18 10 41 29 52 44 25 33 33 114 18 161
-15 45 -68 93 -118 106 -44 13 -232 14 -251 3z m243 -62 c48 -18 75 -58 75
-110 0 -37 -5 -53 -25 -72 -30 -31 -63 -38 -166 -38 l-79 0 0 115 0 115 84 0
c47 0 96 -4 111 -10z"/>
</g>
</svg>
