<?xml version="1.0" standalone="no"?>
<!DOCTYPE svg PUBLIC "-//W3C//DTD SVG 20010904//EN"
 "http://www.w3.org/TR/2001/REC-SVG-20010904/DTD/svg10.dtd">
<svg version="1.0" xmlns="http://www.w3.org/2000/svg"
 width="3000.000000pt" height="2382.000000pt" viewBox="0 0 3000.000000 2382.000000"
 preserveAspectRatio="xMidYMid meet">

<g transform="translate(0.000000,2382.000000) scale(0.100000,-0.100000)"
fill="#000000" stroke="none">
<path d="M13300 23184 c-25 -2 -121 -8 -215 -14 -1961 -126 -3924 -847 -5510
-2025 -424 -314 -743 -592 -1156 -1004 -517 -518 -873 -947 -1262 -1522 -1746
-2583 -2252 -5771 -1389 -8755 54 -185 75 -224 134 -255 34 -18 63 -19 370
-19 374 0 365 -1 424 76 l29 37 0 336 c0 377 -1 384 -68 432 -38 27 -46 29
-138 29 -53 0 -104 3 -113 6 -14 5 -16 36 -16 245 l0 239 593 0 593 0 24 -82
c76 -268 196 -589 320 -857 49 -106 68 -160 64 -175 -7 -23 -146 -382 -194
-501 -4 -11 -20 -51 -35 -90 -15 -38 -35 -90 -45 -115 -10 -25 -84 -216 -165
-425 -80 -208 -154 -400 -164 -425 -10 -25 -31 -76 -46 -115 -15 -38 -31 -79
-35 -90 -5 -11 -32 -81 -61 -155 -29 -74 -71 -182 -94 -240 l-41 -105 -170 -5
c-185 -5 -215 -14 -234 -66 -6 -14 -10 -142 -10 -285 l0 -259 670 0 670 0 0
270 0 271 -25 24 c-27 28 -30 28 -166 25 -58 -1 -99 2 -103 8 -7 11 38 68 340
437 99 121 280 343 403 494 181 221 226 270 235 260 7 -8 52 -61 102 -119 120
-141 400 -422 556 -557 454 -394 971 -720 1511 -952 l147 -63 0 -49 0 -49 675
0 675 0 0 264 0 264 -29 31 c-16 17 -40 31 -53 32 -12 0 -93 0 -179 -1 -172
-2 -179 1 -198 63 -5 18 -28 84 -51 147 -23 63 -46 126 -50 140 -4 14 -27 77
-50 140 -63 175 -69 194 -66 197 2 2 63 -14 137 -36 235 -71 485 -122 769
-158 183 -22 739 -25 925 -5 943 105 1730 464 2430 1108 161 148 405 427 535
613 l43 61 423 0 424 0 0 824 0 824 508 5 c279 3 545 10 592 17 376 49 658
175 890 396 162 156 267 323 339 539 54 162 72 270 78 465 11 364 -64 703
-208 940 -60 98 -211 254 -304 315 -215 141 -494 222 -880 256 -97 8 -493 13
-1287 16 l-1148 4 0 -1904 0 -1904 -157 -41 c-87 -23 -185 -48 -219 -55 l-61
-14 19 101 c110 591 159 1149 159 1791 0 607 -40 1094 -136 1660 -126 744
-365 1531 -668 2200 l-73 160 -84 36 c-537 230 -1251 353 -1857 320 -789 -44
-1471 -257 -2129 -668 -56 -35 -104 -63 -108 -63 -3 0 -6 208 -6 461 0 386 -2
465 -14 478 -23 26 -197 383 -193 395 11 27 422 240 672 349 1277 553 2747
628 4050 206 82 -26 151 -47 152 -45 6 6 -299 113 -453 159 -944 284 -1956
323 -2909 111 -491 -109 -883 -248 -1335 -472 -140 -69 -259 -126 -265 -127
-5 0 -161 302 -345 670 -330 660 -336 670 -372 684 -46 17 -99 8 -134 -22 -16
-14 -201 -370 -499 -961 l-472 -939 -134 -110 c-74 -60 -177 -144 -229 -186
-52 -42 -252 -205 -445 -361 -383 -310 -503 -408 -523 -423 -31 -24 163 419
330 753 558 1119 1301 2077 2253 2904 1489 1293 3344 2083 5305 2261 536 48
1157 48 1695 0 986 -89 1942 -330 2865 -722 238 -101 734 -348 965 -481 899
-517 1685 -1157 2374 -1935 166 -187 142 -148 -54 88 -347 419 -786 859 -1201
1206 -2052 1716 -4741 2475 -7399 2088 -1992 -289 -3842 -1220 -5280 -2654
-1057 -1055 -1844 -2336 -2300 -3745 l-56 -175 -161 -130 c-324 -262 -363
-295 -380 -327 -15 -29 -17 -67 -18 -328 0 -162 -4 -300 -8 -306 -4 -7 -50
-13 -118 -15 -104 -4 -113 -6 -148 -33 -21 -16 -42 -41 -48 -57 -5 -16 -14
-29 -19 -29 -5 0 -9 -143 -9 -335 0 -217 4 -335 10 -335 6 0 10 -6 10 -14 0
-24 52 -78 95 -97 36 -17 71 -19 351 -19 l310 0 50 25 c92 47 89 32 92 422 3
382 2 389 -63 439 -35 26 -46 29 -149 34 l-111 5 -3 223 -2 222 751 0 c597 0
750 -3 746 -12 -289 -679 -432 -1257 -487 -1962 -5 -71 -10 -264 -11 -430 l0
-301 -64 -50 c-58 -46 -155 -125 -480 -390 -68 -55 -226 -183 -351 -285 -126
-102 -251 -206 -279 -232 l-50 -47 -3 -322 c-2 -213 -7 -327 -14 -336 -7 -9
-40 -13 -110 -13 -113 0 -142 -10 -185 -67 l-28 -36 -3 -311 c-4 -355 -2 -353
-71 -46 -126 557 -197 1039 -243 1665 -17 229 -17 1065 0 1300 58 806 179
1497 388 2225 566 1965 1692 3719 3244 5050 2123 1820 4938 2714 7730 2455
2443 -228 4747 -1325 6470 -3081 775 -791 1402 -1672 1890 -2659 213 -430 363
-786 512 -1215 88 -252 92 -244 12 20 -252 830 -615 1645 -1064 2385 -1350
2227 -3516 3880 -6031 4604 -746 214 -1508 343 -2316 391 -152 9 -913 11
-1033 4z m-5344 -5364 c199 -399 359 -728 357 -732 -2 -5 -332 -8 -734 -8
-576 0 -729 3 -730 13 -1 21 725 1457 736 1454 6 -1 173 -328 371 -727z m262
-1015 c6 -6 -28 -42 -376 -402 -134 -139 -249 -253 -256 -253 -11 0 -205 197
-550 557 -48 51 -86 96 -83 100 6 9 1256 7 1265 -2z m-1708 -889 c0 -424 -4
-757 -9 -760 -15 -10 -1856 -7 -1859 3 -2 5 30 35 70 67 40 33 181 147 312
254 132 107 278 227 326 265 203 165 465 378 919 748 35 29 98 80 140 115 41
34 81 62 88 62 10 0 13 -147 13 -754z m578 380 c172 -179 312 -330 312 -337 0
-6 -107 -122 -237 -257 -131 -134 -271 -280 -311 -323 -41 -44 -78 -79 -83
-79 -5 0 -9 274 -9 660 0 363 4 660 8 660 5 0 149 -146 320 -324z m1322 -51
c-3 -198 -3 -488 0 -645 3 -157 4 -288 2 -293 -2 -4 -9 -4 -16 0 -23 15 -626
644 -626 654 0 9 517 551 602 632 17 16 33 25 37 20 3 -4 4 -170 1 -368z
m2480 -573 l0 -598 -251 -12 c-443 -22 -876 -70 -1270 -142 -90 -17 -164 -30
-166 -30 -1 0 18 60 43 133 101 289 241 613 377 868 l67 126 182 61 c200 66
370 110 548 142 147 26 327 48 408 49 l62 1 0 -598z m755 567 c255 -37 513
-101 765 -192 l95 -33 121 -240 c66 -131 146 -302 178 -379 66 -161 189 -496
183 -501 -2 -2 -75 9 -163 25 -423 78 -881 127 -1361 147 l-163 7 0 600 0 600
103 -7 c56 -3 165 -15 242 -27z m-3900 -618 c441 -461 440 -460 433 -466 -7
-7 -1179 -7 -1186 0 -6 6 11 24 239 260 69 71 174 181 234 243 59 61 115 111
124 111 9 -1 79 -68 156 -148z m503 -741 c2 -6 -97 -115 -220 -243 -124 -128
-271 -280 -328 -339 -56 -60 -108 -108 -115 -108 -7 0 -38 28 -70 63 -60 65
-249 260 -469 484 -76 77 -127 137 -124 145 5 11 120 13 664 11 453 -2 660 -6
662 -13z m-1758 -899 l0 -898 -112 -91 c-62 -50 -159 -128 -215 -174 -55 -46
-145 -119 -200 -163 -95 -78 -309 -252 -347 -284 -19 -16 -19 -11 -12 200 17
574 108 1104 282 1642 59 182 160 444 224 583 l39 84 170 0 171 0 0 -899z
m4400 -326 l0 -1015 -1010 0 -1010 0 0 93 c0 347 58 947 129 1333 28 153 78
384 83 389 8 7 353 77 488 99 376 62 836 104 1258 114 l62 2 0 -1015z m680
1005 c521 -24 974 -80 1392 -171 l148 -32 10 -36 c5 -20 25 -112 44 -206 86
-419 139 -892 153 -1362 l6 -213 -1011 0 -1012 0 0 1015 0 1015 28 0 c15 0
124 -5 242 -10z m-3159 -650 c0 -349 -4 -636 -8 -637 -12 -4 -636 623 -632
634 7 19 623 643 631 641 5 -2 9 -289 9 -638z m-1623 609 c1 -8 -4 -23 -12
-34 -15 -19 -15 -18 -16 18 0 27 4 37 13 35 6 -3 13 -11 15 -19z m610 -616
c-5 -20 -615 -643 -630 -643 -4 0 -8 263 -8 585 0 575 0 587 21 627 l21 41
299 -299 c165 -164 298 -304 297 -311z m507 -500 c171 -174 310 -320 310 -325
0 -9 -1254 -12 -1263 -3 -6 6 620 644 633 644 6 1 150 -142 320 -316z m8089
132 c260 -45 405 -170 468 -402 28 -107 31 -321 4 -408 -48 -160 -153 -299
-273 -363 -101 -53 -174 -62 -519 -62 l-304 0 0 625 0 625 269 0 c194 0 292
-4 355 -15z m-7794 -738 c0 -7 -37 -49 -82 -92 -46 -43 -183 -177 -305 -298
l-222 -220 -53 48 c-95 86 -568 559 -568 567 0 4 277 8 615 8 503 0 615 -2
615 -13z m-1692 -899 l-3 -763 -929 -3 c-512 -1 -933 1 -938 6 -4 4 116 109
268 232 255 208 608 495 930 758 72 59 198 161 279 227 81 66 197 161 259 212
61 51 117 92 124 93 10 0 12 -156 10 -762z m577 417 l310 -305 -310 -305
c-170 -168 -313 -305 -317 -305 -5 0 -8 275 -8 610 0 336 3 610 8 610 4 0 147
-137 317 -305z m1320 238 c8 -77 -5 -1153 -14 -1153 -3 0 -145 137 -316 305
l-310 305 305 304 c168 167 310 304 316 305 7 0 14 -25 19 -66z m2485 -1430
l0 -1016 -207 7 c-340 11 -667 40 -988 87 -136 20 -501 89 -577 109 -43 12
-40 5 -87 230 -88 427 -142 906 -157 1391 l-7 209 1011 0 1012 0 0 -1017z
m2427 805 c-15 -473 -63 -911 -149 -1338 -22 -113 -44 -214 -48 -226 -9 -23
-9 -23 -425 -109 -344 -71 -465 -91 -675 -109 -210 -19 -512 -36 -632 -36
l-88 0 0 1015 0 1015 1012 0 1011 0 -6 -212z m-5413 -404 c165 -163 303 -300
304 -305 2 -5 -261 -9 -622 -9 -354 0 -626 4 -626 9 0 5 21 28 48 51 26 24
163 157 305 296 142 140 265 254 274 254 8 0 151 -133 317 -296z m-1494 -649
c0 -8 -4 -23 -9 -33 -5 -9 -21 -47 -35 -85 -42 -110 -77 -201 -86 -222 -15
-34 -136 -346 -166 -427 -16 -43 -33 -77 -38 -75 -22 7 -186 461 -257 711 -21
76 -39 140 -39 142 0 2 142 4 315 4 275 0 315 -2 315 -15z m1760 -5 c0 -8 -57
-75 -329 -390 -41 -47 -121 -140 -179 -207 -58 -68 -109 -123 -113 -123 -9 0
-589 711 -589 722 0 7 1185 17 1203 10 4 -2 7 -7 7 -12z m-1313 -267 c213
-261 353 -432 453 -555 44 -53 80 -101 80 -107 0 -8 -208 -265 -629 -776 -31
-38 -131 -160 -221 -270 -90 -110 -214 -261 -275 -335 -61 -74 -212 -258 -336
-409 -178 -218 -508 -619 -526 -640 -33 -40 61 210 571 1524 43 110 78 200 86
220 4 11 19 50 34 88 27 70 72 188 86 222 4 11 15 40 25 65 10 25 21 54 25 65
24 60 65 167 85 220 13 33 37 94 53 135 17 41 87 224 157 405 139 362 142 368
155 360 5 -3 84 -98 177 -212z m1646 155 c22 -65 58 -164 102 -283 38 -104 54
-148 161 -447 14 -40 41 -113 59 -163 38 -104 54 -148 161 -447 14 -40 41
-113 59 -163 18 -49 45 -123 59 -162 14 -40 37 -103 50 -140 14 -38 46 -126
72 -198 25 -71 62 -173 81 -225 19 -52 45 -124 58 -160 13 -36 42 -117 65
-180 23 -63 46 -126 50 -140 5 -14 20 -56 34 -95 15 -38 42 -113 60 -165 19
-52 48 -133 65 -180 33 -90 37 -110 22 -110 -8 0 -596 732 -1724 2147 -119
149 -217 276 -217 282 0 5 51 69 113 142 383 452 567 670 593 702 40 51 56 47
77 -15z m5469 -829 l3 -181 -120 -117 c-142 -138 -253 -236 -396 -347 -101
-79 -300 -217 -304 -212 -2 2 36 120 84 263 47 143 110 346 140 450 30 105 57
193 60 197 6 7 481 125 513 127 15 1 17 -17 20 -180z m-4422 -104 c352 -60
695 -95 1105 -115 116 -5 216 -10 223 -10 9 0 12 -126 12 -599 l0 -599 -42 4
c-281 25 -480 56 -692 109 -131 33 -418 124 -458 146 -20 11 -211 389 -287
569 -44 105 -211 543 -211 554 0 2 33 -3 73 -10 39 -8 164 -30 277 -49z m3430
46 c0 -14 -74 -224 -123 -351 -73 -187 -143 -342 -253 -561 l-105 -207 -137
-46 c-317 -105 -681 -177 -1004 -199 l-58 -4 0 598 0 597 118 6 c613 32 1019
76 1404 150 141 28 158 29 158 17z m-5239 -373 c101 -128 227 -287 280 -353
52 -66 156 -196 230 -290 258 -325 469 -591 610 -770 79 -99 212 -267 297
-373 102 -128 152 -198 148 -209 -5 -12 -22 -15 -89 -13 -121 4 -126 3 -158
-31 l-29 -31 0 -204 c0 -142 -3 -204 -11 -204 -17 0 -246 112 -382 186 -670
368 -1241 842 -1722 1429 -59 72 -112 140 -117 152 -9 19 26 66 322 430 393
482 419 513 429 513 4 0 90 -105 192 -232z"/>
<path d="M13990 16015 l0 -1115 215 0 215 0 0 1115 0 1115 -215 0 -215 0 0
-1115z"/>
<path d="M14710 16015 l0 -1115 765 0 765 0 -2 168 -3 167 -507 3 -508 2 0
315 0 315 470 0 470 0 0 170 0 170 -470 0 -470 0 0 290 0 290 495 0 495 0 0
170 0 170 -750 0 -750 0 0 -1115z"/>
<path d="M16480 16015 l0 -1115 765 0 765 0 -2 168 -3 167 -507 3 -508 2 0
315 0 315 470 0 470 0 0 170 0 170 -470 0 -470 0 0 290 0 290 495 0 495 0 0
170 0 170 -750 0 -750 0 0 -1115z"/>
<path d="M18257 17123 c-4 -3 -7 -505 -7 -1115 l0 -1108 765 0 765 0 -2 168
-3 167 -507 3 -508 2 0 315 0 315 470 0 470 0 0 170 0 170 -470 0 -470 0 0
290 0 290 495 0 495 0 0 170 0 170 -743 0 c-409 0 -747 -3 -750 -7z"/>
<path d="M23430 14580 c-854 -56 -1392 -387 -1578 -970 -99 -312 -107 -637
-21 -860 155 -403 648 -698 1605 -960 388 -107 493 -139 569 -175 205 -99 307
-258 307 -480 1 -157 -41 -258 -150 -363 -68 -65 -189 -127 -292 -148 -113
-24 -299 -15 -407 20 -260 84 -403 305 -407 628 l-1 128 -672 0 -673 0 -6 -26
c-14 -56 4 -326 30 -434 97 -415 360 -743 741 -925 315 -149 748 -227 1275
-227 882 0 1456 207 1734 625 103 155 168 331 208 562 29 171 22 415 -16 560
-31 120 -115 293 -186 387 -110 145 -278 278 -475 376 -125 62 -245 104 -506
177 -402 112 -833 237 -918 267 -218 76 -354 175 -416 302 -143 293 24 626
355 706 81 20 290 18 369 -4 139 -38 262 -127 329 -239 47 -77 82 -188 89
-279 l6 -78 665 0 665 0 -6 138 c-7 159 -37 299 -94 432 -220 514 -660 768
-1468 849 -149 15 -502 21 -655 11z"/>
<path d="M18110 12160 l0 -2300 1675 0 1675 0 0 455 0 455 -975 0 -975 0 0
475 0 475 910 0 910 0 0 475 0 475 -910 0 -910 0 0 435 0 435 955 0 955 0 0
460 0 460 -1655 0 -1655 0 0 -2300z"/>
<path d="M15014 9493 c-139 -199 -309 -399 -519 -609 -223 -224 -314 -304
-515 -455 -583 -438 -1246 -735 -1956 -878 -267 -54 -480 -79 -775 -93 l-247
-12 -5 -60 c-3 -34 -9 -71 -13 -83 -6 -22 -4 -23 64 -23 219 0 592 41 862 96
1166 234 2200 880 2909 1819 115 151 279 395 267 395 -2 0 -35 -44 -72 -97z"/>
<path d="M27911 6854 c-296 -80 -438 -407 -293 -678 35 -65 123 -153 188 -188
133 -72 313 -75 443 -9 229 118 324 408 207 639 -95 188 -336 292 -545 236z
m231 -94 c90 -26 191 -126 225 -225 26 -74 23 -204 -6 -277 -30 -76 -106 -159
-179 -195 -50 -24 -69 -28 -147 -28 -76 0 -99 4 -146 27 -75 34 -134 95 -172
176 -29 61 -32 76 -32 167 0 89 3 107 28 160 78 168 249 245 429 195z"/>
<path d="M27890 6632 l-35 -7 -3 -232 -2 -233 55 0 55 0 0 95 0 95 44 0 c64 0
87 -23 111 -112 l20 -73 61 -3 62 -3 -14 43 c-7 24 -18 63 -25 87 -6 27 -24
58 -44 78 -27 27 -30 33 -15 38 9 3 29 18 44 34 51 53 33 141 -37 178 -34 18
-209 28 -277 15z m204 -93 c59 -46 13 -109 -80 -109 l-54 0 0 65 0 65 54 0
c39 0 60 -6 80 -21z"/>
<path d="M19930 6844 c-14 -3 -59 -14 -100 -25 -242 -65 -380 -245 -380 -498
0 -109 25 -174 97 -251 98 -107 210 -165 547 -284 215 -76 258 -96 304 -140
57 -53 75 -100 76 -191 0 -94 -15 -135 -73 -198 -87 -94 -250 -141 -407 -118
-191 28 -311 139 -330 304 l-7 57 -123 0 -124 0 0 -50 c0 -181 97 -340 253
-414 105 -49 199 -68 372 -73 443 -14 681 150 702 482 13 192 -79 343 -261
430 -39 18 -165 66 -281 105 -302 103 -405 161 -463 258 -23 40 -27 58 -27
117 2 167 111 281 293 304 220 28 405 -62 448 -218 l17 -61 129 0 129 0 -6 38
c-34 200 -158 331 -380 402 -57 18 -98 23 -225 25 -85 2 -166 1 -180 -1z"/>
<path d="M9495 6827 c-113 -38 -198 -115 -235 -214 -24 -64 -28 -175 -10 -245
17 -62 65 -154 122 -231 28 -37 49 -69 47 -71 -2 -2 -31 -17 -64 -34 -173 -86
-301 -231 -349 -391 -21 -71 -21 -211 0 -282 56 -190 207 -332 409 -384 78
-21 232 -21 317 -1 138 32 280 119 355 216 21 27 41 49 44 50 3 0 52 -56 108
-125 l101 -125 85 0 c47 0 85 2 85 5 0 3 -66 83 -147 176 -101 117 -148 177
-147 192 1 12 18 63 37 112 34 85 59 192 71 298 l6 47 -69 0 -70 0 -6 -57
c-14 -135 -53 -300 -69 -296 -10 2 -476 552 -476 561 0 4 28 22 63 39 114 60
209 153 256 253 23 48 26 68 26 160 0 93 -3 112 -26 161 -33 70 -91 129 -161
166 -46 23 -66 27 -158 30 -68 2 -119 -2 -145 -10z m257 -162 c66 -47 93 -104
93 -195 0 -94 -25 -152 -93 -218 -49 -47 -165 -122 -189 -122 -20 0 -130 156
-155 219 -15 38 -22 79 -22 127 -1 95 34 155 114 197 49 26 63 28 132 25 66
-3 82 -7 120 -33z m-29 -946 c114 -134 235 -277 268 -316 l60 -73 -73 -72
c-116 -116 -235 -168 -384 -168 -339 0 -544 303 -406 600 33 72 166 204 247
248 33 17 65 30 70 28 6 -1 104 -112 218 -247z"/>
<path d="M1500 5906 l0 -916 130 0 130 0 0 390 0 390 263 0 c296 0 346 8 458
66 78 41 168 131 211 210 39 71 58 155 58 249 -1 215 -92 371 -263 450 -139
64 -171 67 -599 72 l-388 5 0 -916z m745 722 c175 -52 253 -164 243 -354 -4
-90 -29 -153 -87 -217 -76 -85 -167 -107 -443 -107 l-198 0 0 351 0 351 218
-5 c148 -3 233 -9 267 -19z"/>
<path d="M11390 5905 l0 -915 575 0 575 0 0 90 0 90 -447 2 -448 3 -3 333 -2
332 415 0 415 0 0 95 0 95 -415 0 -415 0 2 303 3 302 438 3 437 2 0 90 0 90
-565 0 -565 0 0 -915z"/>
<path d="M23660 6685 l0 -135 115 0 115 0 0 135 0 135 -115 0 -115 0 0 -135z"/>
<path d="M25658 6568 l-98 -40 0 -129 0 -128 -117 -3 -118 -3 0 -75 0 -75 117
-3 117 -3 3 -467 c3 -467 3 -467 27 -519 51 -115 140 -157 326 -155 61 0 124
5 140 10 30 8 30 9 33 90 l3 82 -101 0 c-122 0 -153 13 -181 73 -17 39 -19 71
-19 465 l0 423 131 -3 132 -3 219 -567 219 -568 -79 -217 c-44 -120 -83 -226
-87 -235 -7 -17 2 -18 106 -18 l114 0 320 872 c176 479 321 877 323 885 3 10
-18 13 -100 13 l-103 0 -185 -505 c-102 -278 -187 -505 -190 -505 -3 0 -81
208 -174 463 -93 254 -178 481 -187 505 l-18 42 -221 0 -220 0 0 170 c0 156
-1 170 -17 169 -10 0 -62 -19 -115 -41z"/>
<path d="M13352 6299 c-129 -16 -245 -95 -311 -210 l-31 -54 0 118 0 117 -115
0 -115 0 0 -640 0 -640 114 0 114 0 4 408 c4 346 7 416 22 467 51 179 143 263
302 273 95 6 163 -16 219 -73 78 -78 78 -78 83 -607 l3 -468 115 0 114 0 0
443 c0 243 -5 474 -10 513 -27 205 -141 325 -336 354 -77 11 -83 11 -172 -1z"/>
<path d="M22860 6304 c-205 -23 -332 -96 -431 -248 -83 -126 -114 -266 -106
-470 6 -157 21 -225 72 -334 90 -191 272 -292 524 -292 59 0 134 7 170 15 174
41 300 166 345 342 28 108 32 103 -93 103 l-108 0 -7 -41 c-18 -111 -91 -203
-183 -230 -27 -8 -85 -14 -131 -13 -73 1 -90 5 -149 35 -44 22 -78 49 -99 76
-71 93 -110 262 -100 433 12 220 79 350 217 419 191 95 401 5 441 -191 l12
-58 108 0 108 0 0 28 c0 15 -7 51 -14 79 -56 208 -220 333 -456 346 -47 3
-101 3 -120 1z"/>
<path d="M3162 6280 c-207 -54 -353 -202 -423 -430 -31 -98 -34 -317 -6 -420
75 -280 285 -453 567 -468 271 -13 495 106 600 321 60 124 75 189 75 347 0
160 -11 211 -72 339 -80 166 -217 275 -400 315 -98 22 -249 20 -341 -4z m306
-155 c96 -29 171 -104 213 -214 63 -167 63 -395 0 -562 -58 -154 -176 -233
-346 -232 -239 1 -385 216 -372 548 13 361 216 545 505 460z"/>
<path d="M6665 6294 c-236 -33 -370 -121 -454 -298 -55 -115 -73 -204 -72
-361 1 -235 56 -409 166 -524 102 -107 220 -151 405 -151 288 0 467 114 534
339 25 85 30 81 -92 81 l-109 0 -13 -42 c-20 -70 -56 -133 -95 -166 -58 -52
-100 -65 -200 -66 -83 -1 -96 2 -157 32 -126 62 -188 178 -204 380 l-7 82 463
0 463 0 -6 103 c-24 377 -193 575 -504 591 -49 2 -101 2 -118 0z m212 -178
c103 -51 162 -157 171 -303 l5 -83 -338 0 -338 0 6 63 c16 169 114 307 244
343 73 21 188 12 250 -20z"/>
<path d="M14605 6290 c-247 -39 -403 -181 -465 -423 -69 -274 -6 -608 145
-762 96 -99 225 -145 406 -145 176 0 312 46 411 138 71 66 107 136 132 255 l6
27 -107 0 -108 0 -27 -73 c-35 -92 -74 -139 -146 -174 -48 -23 -70 -28 -137
-28 -186 0 -294 91 -345 291 -11 42 -20 106 -20 141 l0 63 455 0 c410 0 456 2
462 16 8 22 -14 215 -33 289 -36 136 -124 265 -221 322 -98 57 -272 84 -408
63z m252 -176 c103 -53 159 -154 170 -306 l6 -78 -342 0 c-318 0 -341 1 -341
18 1 39 31 157 54 207 61 134 167 198 318 192 62 -3 89 -10 135 -33z"/>
<path d="M21342 6280 c-170 -45 -299 -152 -375 -311 -61 -128 -72 -179 -72
-339 0 -157 15 -223 75 -346 94 -192 281 -310 510 -322 328 -16 576 160 657
468 24 91 24 311 0 400 -64 240 -228 404 -454 454 -98 22 -249 20 -341 -4z
m306 -155 c96 -29 171 -104 213 -214 86 -227 51 -549 -76 -689 -71 -80 -213
-123 -331 -101 -138 26 -222 108 -281 276 -25 72 -27 90 -27 233 0 141 2 162
27 236 77 231 250 325 475 259z"/>
<path d="M24630 6289 c-234 -30 -399 -179 -467 -420 -27 -97 -24 -384 5 -492
33 -119 78 -204 147 -273 110 -111 227 -149 430 -141 153 6 230 26 322 86 100
65 174 179 190 294 l6 37 -107 0 c-76 0 -108 -4 -111 -12 -51 -146 -101 -213
-183 -245 -73 -28 -201 -24 -273 9 -130 59 -202 194 -211 393 l-3 70 459 3
459 2 -6 113 c-23 424 -255 628 -657 576z m241 -167 c54 -24 112 -81 139 -137
23 -49 50 -162 50 -217 l0 -38 -340 0 -340 0 0 28 c0 48 39 183 65 228 46 79
116 133 200 155 51 14 178 3 226 -19z"/>
<path d="M8007 6279 c-68 -16 -134 -57 -191 -120 l-56 -62 0 86 0 87 -115 0
-115 0 0 -640 0 -640 115 0 115 0 0 388 c0 410 6 485 44 561 52 100 121 134
289 139 l117 4 0 98 c0 93 -1 98 -22 104 -32 8 -136 6 -181 -5z"/>
<path d="M15970 6274 c-70 -19 -152 -75 -193 -132 l-32 -44 -3 86 -3 86 -114
0 -115 0 0 -640 0 -640 115 0 114 0 3 433 c4 494 4 494 87 577 62 61 122 80
257 80 l104 0 0 99 c0 94 -1 99 -22 105 -40 10 -141 5 -198 -10z"/>
<path d="M16595 6277 c-87 -22 -148 -58 -221 -131 -78 -78 -126 -160 -166
-286 -20 -65 -23 -95 -23 -230 0 -118 5 -170 18 -219 48 -171 144 -294 281
-361 236 -117 472 -54 623 165 l35 50 -5 -195 c-3 -173 -6 -202 -27 -254 -28
-72 -87 -139 -155 -174 -67 -35 -234 -44 -318 -17 -92 29 -153 92 -166 175
l-6 35 -118 3 -117 3 0 -30 c0 -16 9 -58 20 -94 39 -124 149 -213 315 -254 98
-23 317 -23 405 1 152 41 281 140 340 259 59 120 60 136 60 875 l0 672 -115 0
-115 0 0 -91 0 -91 -33 43 c-44 58 -104 103 -174 130 -72 27 -258 36 -338 16z
m318 -161 c95 -34 167 -116 208 -236 30 -87 33 -300 5 -400 -43 -155 -143
-284 -246 -314 -295 -88 -504 182 -446 574 30 200 116 327 255 376 47 17 176
17 224 0z"/>
<path d="M4060 6258 c0 -7 90 -294 198 -638 l198 -625 140 -3 139 -3 159 518
c88 285 163 524 166 532 5 10 11 3 18 -20 6 -19 59 -187 117 -374 59 -187 129
-411 156 -497 l50 -158 134 0 133 0 11 33 c232 734 391 1239 391 1242 0 3 -47
5 -105 5 l-104 0 -25 -77 c-142 -452 -290 -911 -296 -922 -5 -10 -11 -4 -18
20 -47 147 -302 971 -302 975 0 2 -66 3 -147 2 l-148 -3 -155 -502 c-85 -276
-158 -499 -162 -495 -3 4 -52 153 -108 332 -56 179 -126 403 -156 498 l-55
172 -115 0 c-85 0 -114 -3 -114 -12z"/>
<path d="M17500 6258 c0 -6 111 -299 246 -650 l247 -638 -58 -158 c-32 -86
-70 -192 -86 -234 l-28 -78 112 0 113 0 322 878 c177 482 322 881 322 885 0 4
-46 6 -102 5 l-103 -3 -184 -503 c-101 -276 -188 -499 -192 -495 -4 4 -89 232
-190 506 l-183 497 -118 0 c-84 0 -118 -3 -118 -12z"/>
<path d="M23667 6263 c-4 -3 -7 -291 -7 -640 l0 -633 115 0 115 0 0 640 0 640
-108 0 c-60 0 -112 -3 -115 -7z"/>
<path d="M7740 3667 c-22 -11 -25 -20 -28 -74 -3 -54 0 -63 20 -77 54 -38 88
-9 88 74 0 49 -4 61 -22 74 -27 19 -26 19 -58 3z"/>
<path d="M14382 3668 c-8 -8 -12 -61 -12 -171 l0 -159 -28 30 c-15 16 -48 40
-72 53 -39 21 -59 24 -145 24 -121 0 -167 -18 -249 -95 -136 -129 -156 -363
-45 -530 114 -170 362 -213 494 -86 l45 43 0 -42 c0 -48 13 -65 51 -65 59 0
59 -1 59 505 0 401 -2 463 -16 483 -17 24 -62 30 -82 10z m-135 -352 c36 -18
76 -61 99 -106 15 -28 19 -58 19 -155 -1 -104 -3 -125 -22 -161 -43 -81 -116
-124 -212 -124 -112 0 -212 78 -246 192 -29 99 -13 214 39 283 70 91 221 124
323 71z"/>
<path d="M11716 3654 c-12 -12 -16 -38 -16 -115 l0 -99 -65 0 c-61 0 -66 -2
-75 -26 -18 -47 1 -64 75 -64 l64 0 3 -262 c4 -274 5 -283 52 -352 59 -87 294
-90 304 -3 5 42 -15 60 -57 52 -99 -17 -111 -17 -137 0 -49 32 -54 64 -54 324
l0 240 96 3 c86 3 98 5 104 23 4 11 4 30 -1 43 -8 21 -14 22 -104 22 l-95 0 0
93 c0 68 -4 99 -16 115 -18 26 -56 29 -78 6z"/>
<path d="M17636 3654 c-12 -12 -16 -38 -16 -114 l0 -99 -61 -3 c-70 -3 -94
-24 -78 -65 7 -21 15 -23 74 -23 l65 0 0 -233 c0 -314 17 -380 113 -426 56
-27 157 -29 207 -3 27 13 36 24 38 48 5 46 -18 61 -74 46 -60 -16 -95 -15
-123 4 -46 32 -51 66 -51 324 l0 240 95 0 c91 0 96 1 106 24 8 17 8 29 0 45
-11 19 -20 21 -106 21 l-95 0 0 98 c0 83 -3 102 -18 115 -23 21 -56 22 -76 1z"/>
<path d="M20546 3648 c-14 -20 -16 -82 -16 -478 0 -508 0 -504 63 -498 52 5
57 27 57 271 0 160 4 226 13 250 52 123 224 192 343 138 49 -23 107 -88 122
-140 8 -24 12 -121 12 -260 0 -134 4 -230 10 -242 7 -13 21 -19 45 -19 24 0
38 6 45 19 6 12 10 110 10 249 0 205 -2 237 -21 298 -27 88 -105 171 -189 200
-121 41 -266 16 -346 -60 l-44 -43 0 146 c0 165 -8 191 -60 191 -18 0 -34 -8
-44 -22z"/>
<path d="M24366 3648 c-12 -16 -16 -47 -16 -115 l0 -93 -58 0 c-62 0 -82 -11
-82 -45 0 -34 20 -45 81 -45 l57 0 4 -252 c5 -276 11 -313 66 -372 38 -40 81
-56 152 -56 105 0 162 38 140 95 -9 25 -14 27 -48 21 -123 -20 -129 -20 -155
7 -40 39 -47 86 -47 330 l0 227 95 0 c91 0 96 1 106 24 8 17 8 29 0 45 -11 19
-20 21 -106 21 l-95 0 0 99 c0 77 -4 103 -16 115 -22 23 -60 20 -78 -6z"/>
<path d="M10586 3644 c-125 -28 -215 -86 -259 -169 -16 -30 -21 -58 -21 -110
-1 -171 105 -235 429 -260 210 -16 295 -59 295 -150 0 -65 -43 -119 -125 -157
-45 -21 -65 -23 -190 -23 -126 0 -145 2 -193 24 -53 24 -93 63 -124 120 -18
33 -51 41 -89 21 -41 -22 -10 -109 62 -174 79 -72 201 -110 349 -109 194 1
343 71 399 187 25 50 28 159 7 209 -39 94 -124 130 -381 157 -215 23 -249 32
-292 75 -27 27 -33 41 -33 74 0 81 45 129 152 162 112 35 287 19 366 -33 20
-14 46 -42 57 -62 24 -44 55 -55 90 -32 32 21 31 37 -2 97 -27 50 -62 82 -123
114 -92 47 -260 65 -374 39z"/>
<path d="M19505 3633 c-205 -73 -325 -244 -325 -462 0 -158 43 -267 149 -372
149 -148 335 -178 536 -85 58 27 140 96 159 135 15 29 11 50 -12 69 -28 22
-52 13 -100 -36 -26 -26 -74 -61 -107 -78 -54 -26 -70 -29 -155 -29 -89 0 -99
2 -158 34 -149 81 -224 240 -201 426 24 189 160 306 359 308 111 1 156 -13
235 -73 37 -28 74 -50 84 -50 21 0 51 30 51 52 0 26 -97 108 -168 141 -61 29
-77 32 -182 35 -90 2 -126 -1 -165 -15z"/>
<path d="M1642 3624 c-12 -8 -22 -26 -22 -38 0 -49 13 -51 330 -56 l298 -5
-329 -389 c-328 -387 -349 -417 -315 -445 9 -8 125 -10 407 -9 l394 3 9 28 c7
19 7 34 0 45 -10 15 -45 18 -336 22 l-325 5 121 141 c66 77 217 252 334 388
222 258 235 279 190 310 -19 14 -72 16 -378 16 -306 0 -359 -2 -378 -16z"/>
<path d="M4392 3449 c-114 -15 -226 -101 -280 -217 -25 -52 -27 -68 -27 -177
0 -116 1 -123 32 -186 39 -79 102 -140 181 -177 47 -22 72 -26 142 -27 100 0
153 20 214 81 l38 39 -5 -67 c-6 -69 -30 -130 -64 -160 -28 -25 -101 -55 -154
-63 -65 -10 -150 11 -208 49 -70 48 -79 49 -107 21 -31 -31 -30 -37 8 -80 43
-49 113 -83 203 -97 182 -28 350 53 404 196 20 54 21 73 21 446 0 340 -2 391
-16 404 -35 36 -94 1 -94 -55 l0 -32 -20 26 c-44 56 -162 89 -268 76z m176
-136 c36 -17 62 -38 80 -66 25 -37 27 -50 30 -161 4 -138 -5 -181 -51 -233
-92 -105 -261 -109 -362 -8 -52 52 -75 116 -75 209 1 116 46 205 128 253 81
48 158 50 250 6z"/>
<path d="M8644 3449 c-187 -24 -314 -179 -317 -389 -2 -131 27 -206 112 -290
48 -47 81 -70 118 -84 128 -44 249 -27 329 46 l44 41 0 -60 c0 -115 -69 -191
-196 -215 -80 -14 -157 2 -227 49 -58 39 -94 45 -114 17 -22 -29 -15 -54 24
-90 78 -71 208 -106 326 -86 130 21 219 81 269 180 23 46 23 51 26 446 3 363
1 400 -14 417 -35 39 -94 6 -94 -52 l0 -32 -24 26 c-54 58 -160 89 -262 76z
m161 -129 c96 -42 124 -101 125 -258 0 -72 -5 -124 -13 -145 -64 -152 -264
-194 -394 -82 -132 113 -108 382 41 474 67 42 161 46 241 11z"/>
<path d="M15295 3446 c-115 -29 -197 -96 -248 -204 -30 -63 -32 -74 -32 -183
0 -116 0 -117 40 -195 30 -60 52 -87 90 -116 127 -97 343 -105 463 -18 56 40
68 64 47 96 -21 32 -50 30 -105 -6 -112 -74 -268 -61 -360 32 -32 31 -69 99
-70 126 0 9 65 12 293 12 217 0 298 4 317 13 24 12 25 17 24 94 -1 68 -6 91
-32 146 -52 112 -134 176 -261 203 -78 16 -100 16 -166 0z m210 -124 c72 -37
125 -107 144 -191 l9 -41 -273 0 -272 0 7 38 c21 105 77 171 179 209 50 19
156 11 206 -15z"/>
<path d="M16580 3445 c-66 -18 -126 -58 -157 -104 l-23 -34 0 56 c0 46 -4 59
-22 71 -30 21 -44 20 -68 -4 -19 -19 -20 -33 -20 -368 0 -298 2 -351 16 -370
17 -24 65 -30 82 -9 6 7 11 103 14 232 3 217 3 221 31 277 96 195 343 213 440
33 21 -37 22 -56 25 -285 2 -152 7 -249 14 -257 17 -21 76 -16 88 6 6 12 10
110 10 249 0 202 -2 238 -20 295 -51 164 -236 260 -410 212z"/>
<path d="M25425 3446 c-156 -38 -258 -153 -285 -319 -12 -75 -7 -126 21 -212
37 -114 121 -197 233 -230 113 -34 282 -8 357 54 43 36 52 62 32 90 -20 29
-42 26 -115 -13 -107 -58 -206 -59 -300 -2 -53 31 -100 93 -113 148 l-7 27
307 3 c359 4 340 -3 332 108 -7 90 -40 170 -94 230 -58 65 -114 97 -199 115
-81 17 -102 17 -169 1z m177 -112 c89 -30 178 -138 178 -216 l0 -28 -271 0
-271 0 7 33 c33 167 198 266 357 211z"/>
<path d="M3059 3427 c-142 -59 -217 -171 -227 -338 -13 -233 129 -412 339
-427 90 -6 158 17 221 76 l48 45 0 -45 c0 -51 13 -68 51 -68 57 0 59 11 59
382 0 192 -4 348 -10 362 -11 30 -49 42 -79 26 -16 -8 -21 -20 -21 -51 l0 -41
-41 36 c-55 47 -116 66 -208 66 -56 0 -91 -7 -132 -23z m212 -92 c50 -8 114
-56 139 -104 25 -51 36 -185 21 -266 -22 -119 -97 -187 -211 -193 -154 -9
-267 98 -278 264 -10 162 69 276 211 303 23 5 51 7 62 5 11 -1 36 -5 56 -9z"/>
<path d="M5549 3427 c-99 -41 -151 -93 -201 -202 -20 -43 -23 -66 -23 -165 0
-108 2 -119 32 -182 100 -213 358 -286 516 -148 l45 40 6 -39 c7 -46 25 -64
63 -59 50 6 53 23 53 385 0 352 -3 377 -46 387 -36 9 -62 -10 -70 -49 l-6 -34
-37 29 c-52 42 -112 60 -200 60 -56 0 -91 -7 -132 -23z m263 -114 c30 -14 58
-39 75 -65 26 -39 28 -50 31 -167 2 -76 -1 -141 -8 -164 -15 -51 -84 -119
-136 -135 -176 -52 -330 64 -342 258 -5 92 8 146 51 202 76 100 213 129 329
71z"/>
<path d="M12531 3436 c-9 -11 -11 -86 -9 -278 3 -256 4 -264 28 -313 32 -66
90 -121 159 -153 47 -22 70 -27 141 -26 104 0 171 26 229 89 l39 42 5 -50 c6
-70 52 -100 91 -61 14 13 16 62 16 378 0 386 0 386 -49 386 -56 0 -56 -1 -61
-252 -5 -216 -7 -236 -27 -274 -54 -101 -153 -159 -259 -152 -84 5 -138 41
-176 117 l-28 55 0 231 c0 192 -3 234 -16 253 -17 25 -65 30 -83 8z"/>
<path d="M21988 3426 c-138 -57 -216 -174 -226 -342 -7 -130 30 -235 115 -319
128 -128 324 -140 445 -27 l48 45 0 -45 c0 -51 13 -68 52 -68 58 0 59 11 56
400 -3 338 -4 352 -23 366 -22 16 -65 11 -77 -9 -4 -7 -8 -28 -8 -46 l0 -35
-33 32 c-76 73 -235 95 -349 48z m213 -91 c50 -8 114 -56 139 -106 27 -52 37
-190 21 -271 -15 -70 -43 -113 -99 -152 -37 -26 -54 -31 -115 -34 -63 -3 -79
0 -127 25 -93 48 -150 149 -150 268 0 108 44 193 124 240 45 26 116 45 151 39
11 -1 36 -5 56 -9z"/>
<path d="M23072 3434 l-22 -15 0 -493 c0 -369 3 -495 12 -504 17 -17 64 -15
82 4 13 13 16 43 16 175 l0 161 42 -36 c77 -67 191 -83 314 -45 59 18 77 30
134 88 48 47 72 80 84 116 76 217 0 439 -181 531 -53 26 -67 29 -158 29 -91 0
-104 -2 -147 -27 -25 -16 -55 -39 -66 -53 l-20 -25 -7 46 c-5 36 -12 47 -31
55 -31 11 -25 12 -52 -7z m387 -100 c61 -18 131 -77 164 -139 19 -34 22 -56
22 -145 0 -97 -2 -109 -28 -153 -98 -166 -344 -170 -429 -8 -26 49 -28 62 -28
167 0 126 11 168 58 217 32 34 68 54 119 66 55 13 64 13 122 -5z"/>
<path d="M26442 3434 l-22 -15 0 -359 0 -360 24 -15 c27 -18 69 -7 80 20 3 9
6 110 6 224 0 229 9 285 57 342 33 39 95 68 145 69 48 0 74 33 59 73 -13 34
-46 42 -118 27 -48 -10 -66 -20 -105 -60 l-48 -47 0 41 c0 23 -4 46 -8 52 -13
20 -47 24 -70 8z"/>
<path d="M6570 3419 c-17 -30 -4 -68 26 -79 16 -7 106 -8 236 -4 134 5 209 4
207 -2 -2 -6 -114 -137 -249 -293 -247 -285 -271 -321 -237 -349 11 -9 100
-12 333 -10 l319 3 9 27 c8 22 6 32 -9 48 -17 19 -30 20 -262 20 l-244 0 256
291 c261 297 278 322 243 357 -9 9 -93 12 -315 12 -297 0 -303 0 -313 -21z"/>
<path d="M7720 3421 c-6 -13 -10 -146 -10 -366 0 -220 4 -353 10 -366 12 -22
68 -27 88 -7 9 9 12 106 12 373 0 267 -3 364 -12 373 -20 20 -76 15 -88 -7z"/>
</g>
</svg>
