<?xml version="1.0" encoding="UTF-8"?>
<svg version="1.1" xmlns="http://www.w3.org/2000/svg" width="1314" height="584">
<path d="M0 0 C0.83278976 -0.00175232 1.66557953 -0.00350464 2.52360535 -0.00531006 C5.28919534 -0.00972649 8.0547218 -0.00678918 10.8203125 -0.00341797 C12.74405937 -0.00409158 14.66780616 -0.00506208 16.59155273 -0.00631714 C20.63347174 -0.00779424 24.6753687 -0.00564103 28.71728516 -0.00097656 C33.87735779 0.00469018 39.03737806 0.00146131 44.19744873 -0.00454903 C48.17649726 -0.00818047 52.1555336 -0.0070037 56.13458252 -0.00442123 C58.0354208 -0.00375751 59.93626021 -0.00456088 61.83709717 -0.00690079 C80.13609988 -0.02446565 80.13609988 -0.02446565 88.9453125 1.12939453 C88.9453125 3.10939453 88.9453125 5.08939453 88.9453125 7.12939453 C91.2553125 7.12939453 93.5653125 7.12939453 95.9453125 7.12939453 C95.9453125 5.14939453 95.9453125 3.16939453 95.9453125 1.12939453 C110.82148998 -0.06588191 125.68482324 -0.01110983 140.5993374 0.00712834 C144.35998146 0.01059885 148.12062282 0.00818491 151.88126749 0.00655085 C158.45771743 0.00448765 165.03415827 0.00610276 171.61060715 0.01018906 C181.38939847 0.01624816 191.16818411 0.01652263 200.94697696 0.01564707 C217.4000327 0.01433601 233.85308442 0.01766376 250.30613899 0.02366447 C266.58924441 0.02958794 282.87234815 0.03343172 299.15545464 0.03451729 C300.1690919 0.03458603 301.18272917 0.03465477 302.22708272 0.03472559 C307.3751433 0.03506394 312.52320388 0.03536532 317.67126446 0.03565247 C354.10481873 0.0377511 390.5383708 0.0444835 426.97192383 0.05395508 C462.35961902 0.06314413 497.74731362 0.07022548 533.13500977 0.07446289 C534.22642275 0.07459442 535.31783573 0.07472594 536.44232183 0.07486145 C547.40305704 0.07618001 558.36379225 0.07745582 569.32452746 0.07870031 C591.65144587 0.08123631 613.97836424 0.08405756 636.30528259 0.08705139 C637.33176656 0.08718868 638.35825052 0.08732597 639.41584005 0.08746742 C707.92566511 0.09666315 776.43548896 0.11250777 844.9453125 0.12939453 C844.9453125 0.78939453 844.9453125 1.44939453 844.9453125 2.12939453 C851.5453125 2.45939453 858.1453125 2.78939453 864.9453125 3.12939453 C864.9453125 6.42939453 864.9453125 9.72939453 864.9453125 13.12939453 C863.2953125 13.12939453 861.6453125 13.12939453 859.9453125 13.12939453 C859.9453125 14.11939453 859.9453125 15.10939453 859.9453125 16.12939453 C854.6653125 16.12939453 849.3853125 16.12939453 843.9453125 16.12939453 C843.9453125 17.11939453 843.9453125 18.10939453 843.9453125 19.12939453 C852.1953125 19.12939453 860.4453125 19.12939453 868.9453125 19.12939453 C868.6153125 20.77939453 868.2853125 22.42939453 867.9453125 24.12939453 C862.0053125 24.45939453 856.0653125 24.78939453 849.9453125 25.12939453 C849.6153125 26.44939453 849.2853125 27.76939453 848.9453125 29.12939453 C846.3053125 29.12939453 843.6653125 29.12939453 840.9453125 29.12939453 C841.2753125 30.11939453 841.6053125 31.10939453 841.9453125 32.12939453 C847.5553125 32.12939453 853.1653125 32.12939453 858.9453125 32.12939453 C859.2753125 33.11939453 859.6053125 34.10939453 859.9453125 35.12939453 C867.8653125 35.12939453 875.7853125 35.12939453 883.9453125 35.12939453 C883.9453125 36.44939453 883.9453125 37.76939453 883.9453125 39.12939453 C884.9353125 39.12939453 885.9253125 39.12939453 886.9453125 39.12939453 C886.9453125 40.44939453 886.9453125 41.76939453 886.9453125 43.12939453 C885.65753906 43.18998047 884.36976563 43.25056641 883.04296875 43.31298828 C881.36457091 43.397377 879.68618614 43.48202583 878.0078125 43.56689453 C876.73260742 43.62586914 876.73260742 43.62586914 875.43164062 43.68603516 C874.21831055 43.74887695 874.21831055 43.74887695 872.98046875 43.81298828 C871.85717163 43.86797485 871.85717163 43.86797485 870.71118164 43.92407227 C868.92069924 43.94710516 868.92069924 43.94710516 867.9453125 45.12939453 C866.59436268 45.22208452 865.23864159 45.24686779 863.88452148 45.24291992 C863.02370468 45.24284439 862.16288788 45.24276886 861.27598572 45.24269104 C860.34057449 45.23752975 859.40516327 45.23236847 858.44140625 45.22705078 C857.48839127 45.22563583 856.53537628 45.22422089 855.55348206 45.22276306 C852.49656085 45.21714605 849.43971173 45.20459069 846.3828125 45.19189453 C844.31575626 45.18688172 842.24869888 45.18231844 840.18164062 45.17822266 C835.10283662 45.16717109 830.0240868 45.14989508 824.9453125 45.12939453 C824.9453125 47.10939453 824.9453125 49.08939453 824.9453125 51.12939453 C825.57622803 51.12415771 826.20714355 51.1189209 826.85717773 51.11352539 C829.69904597 51.09281627 832.54089838 51.07975387 835.3828125 51.06689453 C836.37603516 51.05851562 837.36925781 51.05013672 838.39257812 51.04150391 C839.33681641 51.03828125 840.28105469 51.03505859 841.25390625 51.03173828 C842.12845459 51.02650146 843.00300293 51.02126465 843.90405273 51.01586914 C845.9453125 51.12939453 845.9453125 51.12939453 846.9453125 52.12939453 C849.68047715 52.36092374 852.39621811 52.53305384 855.13671875 52.66455078 C855.95655746 52.70752792 856.77639618 52.75050507 857.62107849 52.79478455 C860.249784 52.93156513 862.87876862 53.06179603 865.5078125 53.19189453 C867.28582944 53.28326148 869.06382462 53.37505274 870.84179688 53.46728516 C875.20939788 53.69291989 879.57726018 53.91267958 883.9453125 54.12939453 C885.0703125 58.87939453 885.0703125 58.87939453 883.9453125 61.12939453 C876.0253125 61.12939453 868.1053125 61.12939453 859.9453125 61.12939453 C859.9453125 61.78939453 859.9453125 62.44939453 859.9453125 63.12939453 C869.5153125 63.45939453 879.0853125 63.78939453 888.9453125 64.12939453 C888.9453125 65.77939453 888.9453125 67.42939453 888.9453125 69.12939453 C880.0353125 69.12939453 871.1253125 69.12939453 861.9453125 69.12939453 C861.9453125 68.13939453 861.9453125 67.14939453 861.9453125 66.12939453 C857.3253125 66.45939453 852.7053125 66.78939453 847.9453125 67.12939453 C848.6053125 67.45939453 849.2653125 67.78939453 849.9453125 68.12939453 C849.9453125 69.77939453 849.9453125 71.42939453 849.9453125 73.12939453 C856.2153125 73.45939453 862.4853125 73.78939453 868.9453125 74.12939453 C868.9453125 75.11939453 868.9453125 76.10939453 868.9453125 77.12939453 C860.0353125 77.12939453 851.1253125 77.12939453 841.9453125 77.12939453 C841.9453125 78.11939453 841.9453125 79.10939453 841.9453125 80.12939453 C847.8853125 80.12939453 853.8253125 80.12939453 859.9453125 80.12939453 C859.9453125 81.44939453 859.9453125 82.76939453 859.9453125 84.12939453 C867.8653125 84.12939453 875.7853125 84.12939453 883.9453125 84.12939453 C883.9453125 85.11939453 883.9453125 86.10939453 883.9453125 87.12939453 C876.0253125 87.62439453 876.0253125 87.62439453 867.9453125 88.12939453 C867.9453125 89.77939453 867.9453125 91.42939453 867.9453125 93.12939453 C866.26675282 94.80795421 864.15487682 94.33735017 861.8515625 94.41064453 C860.82160156 94.44802734 859.79164063 94.48541016 858.73046875 94.52392578 C856.54036458 94.59423828 854.35026042 94.66455078 852.16015625 94.73486328 C851.13019531 94.77224609 850.10023438 94.80962891 849.0390625 94.84814453 C848.08708984 94.8784375 847.13511719 94.90873047 846.15429688 94.93994141 C843.97175935 94.88824855 843.97175935 94.88824855 842.9453125 96.12939453 C840.47899979 96.22710148 838.04072252 96.25935551 835.57395935 96.24964905 C834.79314642 96.25050347 834.0123335 96.2513579 833.20785958 96.25223821 C830.5714116 96.25389539 827.93502618 96.24836779 825.29858398 96.24291992 C823.41668703 96.24263808 821.53478996 96.24279573 819.65289307 96.24336243 C814.52707315 96.2436505 809.40127642 96.2377522 804.27546191 96.23078847 C798.92493986 96.22455655 793.57441733 96.22395126 788.22389221 96.22276306 C778.08432892 96.21964927 767.94477636 96.21143523 757.8052178 96.20141357 C746.26490776 96.19025393 734.72459722 96.18474236 723.18428314 96.17971814 C699.43795364 96.16925266 675.69163367 96.15165229 651.9453125 96.12939453 C652.2753125 96.45939453 652.6053125 96.78939453 652.9453125 97.12939453 C652.9453125 100.09939453 652.9453125 103.06939453 652.9453125 106.12939453 C613.6753125 106.12939453 574.4053125 106.12939453 533.9453125 106.12939453 C533.9453125 97.12939453 533.9453125 97.12939453 534.9453125 96.12939453 C534.05223389 96.13986816 533.15915527 96.1503418 532.23901367 96.16113281 C528.92355773 96.19523045 525.60828829 96.2203009 522.29272461 96.23925781 C520.85812438 96.24931153 519.42354461 96.26295647 517.98901367 96.28027344 C515.92621812 96.30455002 513.86369365 96.31588372 511.80078125 96.32470703 C510.55965576 96.33518066 509.31853027 96.3456543 508.03979492 96.35644531 C504.9453125 96.12939453 504.9453125 96.12939453 501.9453125 94.12939453 C503.5953125 93.79939453 505.2453125 93.46939453 506.9453125 93.12939453 C507.2753125 91.47939453 507.6053125 89.82939453 507.9453125 88.12939453 C505.6353125 88.12939453 503.3253125 88.12939453 500.9453125 88.12939453 C500.9453125 90.43939453 500.9453125 92.74939453 500.9453125 95.12939453 C498.03415252 96.09978119 496.19957196 96.25378612 493.1720705 96.25244236 C491.68963446 96.25542893 491.68963446 96.25542893 490.17725021 96.25847584 C489.08874131 96.255563 488.00023242 96.25265016 486.8787384 96.24964905 C485.14755084 96.25093069 485.14755084 96.25093069 483.3813898 96.25223821 C480.17290908 96.25360327 476.9644685 96.25046759 473.75599253 96.24546015 C470.29793524 96.24114986 466.8398799 96.24260249 463.38182068 96.24336243 C457.38883328 96.24388729 451.39585675 96.24074437 445.40287209 96.23512459 C436.73797611 96.22700456 428.07308541 96.22439385 419.40818604 96.2231366 C405.35065295 96.22094687 391.29312565 96.21428893 377.2355957 96.20483398 C363.57836944 96.19565782 349.92114474 96.18857798 336.26391602 96.18432617 C335.42237143 96.18406345 334.58082685 96.18380072 333.71378092 96.18353004 C329.49208474 96.18222502 325.27038854 96.18096131 321.04869235 96.17971814 C286.01422826 96.169348 250.97977092 96.15173183 215.9453125 96.12939453 C216.2753125 96.45939453 216.6053125 96.78939453 216.9453125 97.12939453 C216.9453125 100.09939453 216.9453125 103.06939453 216.9453125 106.12939453 C178.0053125 106.12939453 139.0653125 106.12939453 98.9453125 106.12939453 C98.9453125 103.15939453 98.9453125 100.18939453 98.9453125 97.12939453 C98.2853125 96.46939453 97.6253125 95.80939453 96.9453125 95.12939453 C96.8203125 91.50439453 96.8203125 91.50439453 96.9453125 88.12939453 C94.6353125 88.12939453 92.3253125 88.12939453 89.9453125 88.12939453 C89.9453125 90.43939453 89.9453125 92.74939453 89.9453125 95.12939453 C87.6151135 96.29449403 86.27531251 96.25271604 83.68063354 96.24964905 C82.78598389 96.25102371 81.89133423 96.25239838 80.96957397 96.2538147 C79.98558624 96.25021942 79.00159851 96.24662415 77.98779297 96.24291992 C76.95362244 96.24306595 75.9194519 96.24321198 74.85394287 96.24336243 C71.42344084 96.24266377 67.99299259 96.23487354 64.5625 96.22705078 C62.18881256 96.22518644 59.81512473 96.22376261 57.44143677 96.22276306 C51.18441715 96.21893919 44.92742063 96.20911 38.67041016 96.19805908 C32.2893912 96.18784217 25.90836852 96.18326484 19.52734375 96.17822266 C6.99999013 96.16748764 -5.52734746 96.15060414 -18.0546875 96.12939453 C-17.5596875 94.64439453 -17.5596875 94.64439453 -17.0546875 93.12939453 C-16.2503125 93.15001953 -15.4459375 93.17064453 -14.6171875 93.19189453 C-12.12113865 93.42573074 -12.12113865 93.42573074 -11.0546875 92.12939453 C-9.27397504 92.0421323 -7.4898561 92.02240412 -5.70703125 92.03173828 C-4.62744141 92.03496094 -3.54785156 92.03818359 -2.43554688 92.04150391 C-0.73108398 92.05407227 -0.73108398 92.05407227 1.0078125 92.06689453 C2.71807617 92.07366211 2.71807617 92.07366211 4.46289062 92.08056641 C7.29041601 92.09239706 10.1178389 92.10888044 12.9453125 92.12939453 C12.9453125 91.13939453 12.9453125 90.14939453 12.9453125 89.12939453 C11.9553125 89.12939453 10.9653125 89.12939453 9.9453125 89.12939453 C9.9453125 88.13939453 9.9453125 87.14939453 9.9453125 86.12939453 C8.2953125 85.79939453 6.6453125 85.46939453 4.9453125 85.12939453 C4.9453125 84.13939453 4.9453125 83.14939453 4.9453125 82.12939453 C-0.9946875 82.12939453 -6.9346875 82.12939453 -13.0546875 82.12939453 C-13.0546875 80.14939453 -13.0546875 78.16939453 -13.0546875 76.12939453 C-9.5896875 75.63439453 -9.5896875 75.63439453 -6.0546875 75.12939453 C-6.0546875 73.47939453 -6.0546875 71.82939453 -6.0546875 70.12939453 C-7.7046875 69.79939453 -9.3546875 69.46939453 -11.0546875 69.12939453 C-11.0546875 67.47939453 -11.0546875 65.82939453 -11.0546875 64.12939453 C-5.7746875 64.12939453 -0.4946875 64.12939453 4.9453125 64.12939453 C5.2753125 62.47939453 5.6053125 60.82939453 5.9453125 59.12939453 C13.5353125 58.79939453 21.1253125 58.46939453 28.9453125 58.12939453 C28.9453125 57.79939453 28.9453125 57.46939453 28.9453125 57.12939453 C10.6303125 56.13939453 10.6303125 56.13939453 -8.0546875 55.12939453 C-8.0546875 54.46939453 -8.0546875 53.80939453 -8.0546875 53.12939453 C-14.9846875 53.12939453 -21.9146875 53.12939453 -29.0546875 53.12939453 C-29.0546875 49.82939453 -29.0546875 46.52939453 -29.0546875 43.12939453 C-14.8646875 43.12939453 -0.6746875 43.12939453 13.9453125 43.12939453 C13.9453125 42.46939453 13.9453125 41.80939453 13.9453125 41.12939453 C18.8953125 40.79939453 23.8453125 40.46939453 28.9453125 40.12939453 C28.9453125 39.13939453 28.9453125 38.14939453 28.9453125 37.12939453 C21.0253125 37.12939453 13.1053125 37.12939453 4.9453125 37.12939453 C4.9453125 36.13939453 4.9453125 35.14939453 4.9453125 34.12939453 C-0.9946875 34.12939453 -6.9346875 34.12939453 -13.0546875 34.12939453 C-13.0546875 35.77939453 -13.0546875 37.42939453 -13.0546875 39.12939453 C-22.6246875 39.12939453 -32.1946875 39.12939453 -42.0546875 39.12939453 C-42.0546875 36.81939453 -42.0546875 34.50939453 -42.0546875 32.12939453 C-33.1446875 32.12939453 -24.2346875 32.12939453 -15.0546875 32.12939453 C-14.7246875 31.13939453 -14.3946875 30.14939453 -14.0546875 29.12939453 C-19.9946875 29.12939453 -25.9346875 29.12939453 -32.0546875 29.12939453 C-32.0546875 28.46939453 -32.0546875 27.80939453 -32.0546875 27.12939453 C-23.4746875 26.79939453 -14.8946875 26.46939453 -6.0546875 26.12939453 C-5.7246875 24.80939453 -5.3946875 23.48939453 -5.0546875 22.12939453 C-6.7046875 21.79939453 -8.3546875 21.46939453 -10.0546875 21.12939453 C-10.0546875 19.14939453 -10.0546875 17.16939453 -10.0546875 15.12939453 C-11.3746875 14.46939453 -12.6946875 13.80939453 -14.0546875 13.12939453 C-14.0546875 12.46939453 -14.0546875 11.80939453 -14.0546875 11.12939453 C-6.1346875 11.12939453 1.7853125 11.12939453 9.9453125 11.12939453 C9.4503125 8.15939453 9.4503125 8.15939453 8.9453125 5.12939453 C2.6753125 5.12939453 -3.5946875 5.12939453 -10.0546875 5.12939453 C-10.0546875 3.80939453 -10.0546875 2.48939453 -10.0546875 1.12939453 C-6.88690168 -0.45449838 -3.4780935 -0.00890507 0 0 Z M834.9453125 8.12939453 C834.9453125 10.10939453 834.9453125 12.08939453 834.9453125 14.12939453 C837.2553125 14.12939453 839.5653125 14.12939453 841.9453125 14.12939453 C841.9453125 12.14939453 841.9453125 10.16939453 841.9453125 8.12939453 C839.6353125 8.12939453 837.3253125 8.12939453 834.9453125 8.12939453 Z M414.9453125 25.12939453 C412.5158609 28.77357193 412.78351675 30.84180725 412.9453125 35.12939453 C411.6253125 35.12939453 410.3053125 35.12939453 408.9453125 35.12939453 C408.9453125 35.78939453 408.9453125 36.44939453 408.9453125 37.12939453 C410.2653125 37.12939453 411.5853125 37.12939453 412.9453125 37.12939453 C412.9453125 44.38939453 412.9453125 51.64939453 412.9453125 59.12939453 C414.5953125 59.12939453 416.2453125 59.12939453 417.9453125 59.12939453 C417.9453125 51.86939453 417.9453125 44.60939453 417.9453125 37.12939453 C419.9253125 37.12939453 421.9053125 37.12939453 423.9453125 37.12939453 C423.9453125 36.46939453 423.9453125 35.80939453 423.9453125 35.12939453 C421.9653125 35.12939453 419.9853125 35.12939453 417.9453125 35.12939453 C418.2753125 32.81939453 418.6053125 30.50939453 418.9453125 28.12939453 C420.5953125 27.79939453 422.2453125 27.46939453 423.9453125 27.12939453 C423.9453125 25.80939453 423.9453125 24.48939453 423.9453125 23.12939453 C420.10650672 23.12939453 418.29813599 23.45298279 414.9453125 25.12939453 Z M125.9453125 25.12939453 C125.6153125 28.42939453 125.2853125 31.72939453 124.9453125 35.12939453 C123.6253125 35.12939453 122.3053125 35.12939453 120.9453125 35.12939453 C120.9453125 35.78939453 120.9453125 36.44939453 120.9453125 37.12939453 C122.2653125 37.12939453 123.5853125 37.12939453 124.9453125 37.12939453 C124.91050781 38.66660156 124.91050781 38.66660156 124.875 40.23486328 C124.85623214 41.59553304 124.83803303 42.95621073 124.8203125 44.31689453 C124.80355469 44.99042969 124.78679687 45.66396484 124.76953125 46.35791016 C124.73003511 50.40626423 125.04744015 53.52813146 126.9453125 57.12939453 C129.46699624 59.04239599 130.53775262 59.18497088 133.6953125 58.75439453 C134.4378125 58.54814453 135.1803125 58.34189453 135.9453125 58.12939453 C135.9453125 57.46939453 135.9453125 56.80939453 135.9453125 56.12939453 C134.2953125 55.79939453 132.6453125 55.46939453 130.9453125 55.12939453 C130.6153125 49.18939453 130.2853125 43.24939453 129.9453125 37.12939453 C131.9253125 37.12939453 133.9053125 37.12939453 135.9453125 37.12939453 C135.9453125 36.46939453 135.9453125 35.80939453 135.9453125 35.12939453 C133.9653125 35.12939453 131.9853125 35.12939453 129.9453125 35.12939453 C129.9453125 31.82939453 129.9453125 28.52939453 129.9453125 25.12939453 C128.6253125 25.12939453 127.3053125 25.12939453 125.9453125 25.12939453 Z M338.9453125 25.12939453 C338.9453125 36.34939453 338.9453125 47.56939453 338.9453125 59.12939453 C340.5953125 59.12939453 342.2453125 59.12939453 343.9453125 59.12939453 C344.2753125 55.49939453 344.6053125 51.86939453 344.9453125 48.12939453 C345.9353125 47.79939453 346.9253125 47.46939453 347.9453125 47.12939453 C348.1721875 47.81001953 348.3990625 48.49064453 348.6328125 49.19189453 C349.70743643 51.59700522 350.79330117 53.72392162 352.1953125 55.94189453 C352.75992187 56.84875 352.75992187 56.84875 353.3359375 57.77392578 C355.75876021 59.81450704 357.89362712 59.34436132 360.9453125 59.12939453 C360.23955078 58.0253125 360.23955078 58.0253125 359.51953125 56.89892578 C358.89691406 55.92310547 358.27429688 54.94728516 357.6328125 53.94189453 C356.71048828 52.4975 356.71048828 52.4975 355.76953125 51.02392578 C354.12408147 48.4130515 352.52161585 45.78243433 350.9453125 43.12939453 C351.5021875 42.92314453 352.0590625 42.71689453 352.6328125 42.50439453 C355.87032552 40.57938679 357.62762391 38.09088551 359.9453125 35.12939453 C357.28814744 34.45373947 357.28814744 34.45373947 353.9453125 35.12939453 C351.64944127 37.02986571 349.68475731 39.07849297 347.6796875 41.28173828 C345.9453125 43.12939453 345.9453125 43.12939453 343.9453125 44.12939453 C343.9453125 37.85939453 343.9453125 31.58939453 343.9453125 25.12939453 C342.2953125 25.12939453 340.6453125 25.12939453 338.9453125 25.12939453 Z M369.9453125 25.12939453 C369.13032688 26.73229983 368.31841323 28.33676731 367.5078125 29.94189453 C367.05535156 30.83521484 366.60289062 31.72853516 366.13671875 32.64892578 C363.12092754 38.9277042 362.94489849 45.45488811 364.76953125 52.15673828 C366.25875472 56.28116758 367.93737955 60.23111029 369.9453125 64.12939453 C371.5953125 64.12939453 373.2453125 64.12939453 374.9453125 64.12939453 C374.584375 63.25798828 374.2234375 62.38658203 373.8515625 61.48876953 C369.3735912 49.99530986 368.17087813 41.04731022 373.0703125 29.30908203 C374.06949162 27.21151508 374.06949162 27.21151508 373.9453125 25.12939453 C372.6253125 25.12939453 371.3053125 25.12939453 369.9453125 25.12939453 Z M382.9453125 28.12939453 C381.25014788 32.48838928 382.50803004 35.81754714 383.9453125 40.12939453 C383.1615625 40.66564453 382.3778125 41.20189453 381.5703125 41.75439453 C378.53807288 44.49784942 377.67955239 46.13186624 376.9453125 50.12939453 C377.63542077 53.09686011 378.50668175 54.65702296 380.5703125 56.87939453 C386.49094727 59.99551809 391.65809772 59.14643477 397.82421875 57.54345703 C400.70592884 56.98091326 403.12581051 57.4064453 405.9453125 58.12939453 C405.2853125 56.80939453 404.6253125 55.48939453 403.9453125 54.12939453 C403.2853125 54.12939453 402.6253125 54.12939453 401.9453125 54.12939453 C403.2653125 51.81939453 404.5853125 49.50939453 405.9453125 47.12939453 C404.9553125 46.46939453 403.9653125 45.80939453 402.9453125 45.12939453 C401.6253125 46.44939453 400.3053125 47.76939453 398.9453125 49.12939453 C398.53539062 48.62408203 398.12546875 48.11876953 397.703125 47.59814453 C396.89488281 46.62361328 396.89488281 46.62361328 396.0703125 45.62939453 C395.53664063 44.97970703 395.00296875 44.33001953 394.453125 43.66064453 C393.95554687 43.15533203 393.45796875 42.65001953 392.9453125 42.12939453 C392.2853125 42.12939453 391.6253125 42.12939453 390.9453125 42.12939453 C391.7290625 41.38689453 392.5128125 40.64439453 393.3203125 39.87939453 C396.27123588 36.85121612 396.27123588 36.85121612 397.9453125 33.12939453 C397.79321571 30.01141041 397.39428543 28.61162472 395.2578125 26.31689453 C390.66081747 23.95627546 386.50485145 24.30618603 382.9453125 28.12939453 Z M456.9453125 25.12939453 C456.84734375 25.75587891 456.749375 26.38236328 456.6484375 27.02783203 C456.49890625 27.84509766 456.349375 28.66236328 456.1953125 29.50439453 C455.98648437 30.72255859 455.98648437 30.72255859 455.7734375 31.96533203 C454.9453125 34.12939453 454.9453125 34.12939453 452.8671875 35.41845703 C451.91585938 35.77037109 451.91585938 35.77037109 450.9453125 36.12939453 C452.2653125 36.45939453 453.5853125 36.78939453 454.9453125 37.12939453 C454.91050781 38.05880859 454.87570312 38.98822266 454.83984375 39.94580078 C454.30049349 49.59690242 454.30049349 49.59690242 457.9453125 58.12939453 C460.75015667 59.02561693 462.94792254 59.08025699 465.9453125 59.12939453 C466.2753125 58.13939453 466.6053125 57.14939453 466.9453125 56.12939453 C464.9653125 55.79939453 462.9853125 55.46939453 460.9453125 55.12939453 C460.6153125 49.18939453 460.2853125 43.24939453 459.9453125 37.12939453 C462.2553125 37.12939453 464.5653125 37.12939453 466.9453125 37.12939453 C466.9453125 36.46939453 466.9453125 35.80939453 466.9453125 35.12939453 C464.6353125 35.12939453 462.3253125 35.12939453 459.9453125 35.12939453 C460.2753125 31.82939453 460.6053125 28.52939453 460.9453125 25.12939453 C459.6253125 25.12939453 458.3053125 25.12939453 456.9453125 25.12939453 Z M583.9453125 25.12939453 C583.9453125 29.08939453 583.9453125 33.04939453 583.9453125 37.12939453 C583.0996875 36.61376953 582.2540625 36.09814453 581.3828125 35.56689453 C577.25863118 33.84223689 575.22270861 33.94122895 570.9453125 35.12939453 C567.23054588 37.84017017 565.88863554 40.67004927 564.9453125 45.12939453 C564.78476596 49.669294 565.38907143 52.38244223 568.1328125 56.06689453 C571.36230334 58.43518781 572.93981738 59.20950443 576.9453125 59.12939453 C579.50335857 58.01540673 581.59913742 56.67787009 583.9453125 55.12939453 C583.9453125 56.44939453 583.9453125 57.76939453 583.9453125 59.12939453 C585.5953125 59.12939453 587.2453125 59.12939453 588.9453125 59.12939453 C588.9453125 47.90939453 588.9453125 36.68939453 588.9453125 25.12939453 C587.2953125 25.12939453 585.6453125 25.12939453 583.9453125 25.12939453 Z M595.9453125 25.12939453 C595.9453125 26.44939453 595.9453125 27.76939453 595.9453125 29.12939453 C597.5953125 29.12939453 599.2453125 29.12939453 600.9453125 29.12939453 C600.9453125 27.80939453 600.9453125 26.48939453 600.9453125 25.12939453 C599.2953125 25.12939453 597.6453125 25.12939453 595.9453125 25.12939453 Z M672.9453125 25.12939453 C672.83574219 25.76748047 672.72617187 26.40556641 672.61328125 27.06298828 C672.45472656 27.88927734 672.29617188 28.71556641 672.1328125 29.56689453 C671.98199219 30.39060547 671.83117187 31.21431641 671.67578125 32.06298828 C671.43472656 32.74490234 671.19367187 33.42681641 670.9453125 34.12939453 C669.9553125 34.45939453 668.9653125 34.78939453 667.9453125 35.12939453 C667.9453125 35.78939453 667.9453125 36.44939453 667.9453125 37.12939453 C668.9353125 37.12939453 669.9253125 37.12939453 670.9453125 37.12939453 C670.91050781 38.05880859 670.87570312 38.98822266 670.83984375 39.94580078 C670.30049349 49.59690242 670.30049349 49.59690242 673.9453125 58.12939453 C676.75015667 59.02561693 678.94792254 59.08025699 681.9453125 59.12939453 C682.2753125 58.13939453 682.6053125 57.14939453 682.9453125 56.12939453 C680.9653125 55.79939453 678.9853125 55.46939453 676.9453125 55.12939453 C676.6153125 49.18939453 676.2853125 43.24939453 675.9453125 37.12939453 C678.2553125 37.12939453 680.5653125 37.12939453 682.9453125 37.12939453 C682.9453125 36.46939453 682.9453125 35.80939453 682.9453125 35.12939453 C680.6353125 35.12939453 678.3253125 35.12939453 675.9453125 35.12939453 C676.2753125 31.82939453 676.6053125 28.52939453 676.9453125 25.12939453 C675.6253125 25.12939453 674.3053125 25.12939453 672.9453125 25.12939453 Z M688.9453125 25.12939453 C688.9453125 26.44939453 688.9453125 27.76939453 688.9453125 29.12939453 C690.5953125 29.12939453 692.2453125 29.12939453 693.9453125 29.12939453 C693.9453125 27.80939453 693.9453125 26.48939453 693.9453125 25.12939453 C692.2953125 25.12939453 690.6453125 25.12939453 688.9453125 25.12939453 Z M773.9453125 25.12939453 C774.22246094 25.79326172 774.49960937 26.45712891 774.78515625 27.14111328 C775.14738281 28.02412109 775.50960937 28.90712891 775.8828125 29.81689453 C776.24246094 30.68701172 776.60210938 31.55712891 776.97265625 32.45361328 C780.23861181 41.43827014 779.44167517 48.89649369 775.91796875 57.64892578 C775.07201327 59.80628213 774.44535504 61.87130767 773.9453125 64.12939453 C775.5953125 64.12939453 777.2453125 64.12939453 778.9453125 64.12939453 C783.84711935 53.60226691 786.81721581 44.46130004 782.9453125 33.12939453 C781.73332508 30.36901253 780.39147162 27.78068624 778.9453125 25.12939453 C777.2953125 25.12939453 775.6453125 25.12939453 773.9453125 25.12939453 Z M274.9453125 26.12939453 C274.88699855 30.17100009 274.85161038 34.21249658 274.8203125 38.25439453 C274.80355469 39.39650391 274.78679687 40.53861328 274.76953125 41.71533203 C274.76308594 42.82392578 274.75664062 43.93251953 274.75 45.07470703 C274.73952637 46.09064941 274.72905273 47.1065918 274.71826172 48.15332031 C274.96926166 51.44330881 275.70584948 54.07718248 276.9453125 57.12939453 C278.67934586 58.70479521 278.67934586 58.70479521 280.9453125 59.12939453 C283.63524303 58.82561401 283.63524303 58.82561401 285.9453125 58.12939453 C285.9453125 57.46939453 285.9453125 56.80939453 285.9453125 56.12939453 C284.2953125 55.79939453 282.6453125 55.46939453 280.9453125 55.12939453 C280.6153125 45.55939453 280.2853125 35.98939453 279.9453125 26.12939453 C278.2953125 26.12939453 276.6453125 26.12939453 274.9453125 26.12939453 Z M29.9453125 29.12939453 C29.9453125 30.77939453 29.9453125 32.42939453 29.9453125 34.12939453 C32.2553125 34.12939453 34.5653125 34.12939453 36.9453125 34.12939453 C36.9453125 32.47939453 36.9453125 30.82939453 36.9453125 29.12939453 C34.6353125 29.12939453 32.3253125 29.12939453 29.9453125 29.12939453 Z M57.9453125 38.12939453 C57.9453125 37.13939453 57.9453125 36.14939453 57.9453125 35.12939453 C56.6253125 35.12939453 55.3053125 35.12939453 53.9453125 35.12939453 C53.9453125 43.04939453 53.9453125 50.96939453 53.9453125 59.12939453 C55.5953125 59.12939453 57.2453125 59.12939453 58.9453125 59.12939453 C59.2753125 52.52939453 59.6053125 45.92939453 59.9453125 39.12939453 C64.4003125 38.63439453 64.4003125 38.63439453 68.9453125 38.12939453 C69.2753125 45.05939453 69.6053125 51.98939453 69.9453125 59.12939453 C71.5953125 59.12939453 73.2453125 59.12939453 74.9453125 59.12939453 C74.97109375 57.86482422 74.996875 56.60025391 75.0234375 55.29736328 C75.07971516 53.63717235 75.13706257 51.97701743 75.1953125 50.31689453 C75.21658203 49.06682617 75.21658203 49.06682617 75.23828125 47.79150391 C75.48522337 41.64264523 75.48522337 41.64264523 77.8046875 39.05517578 C79.9453125 38.12939453 79.9453125 38.12939453 82.9453125 38.12939453 C84.09185732 40.42248416 84.14260367 41.92849109 84.26171875 44.48095703 C84.30361328 45.33173828 84.34550781 46.18251953 84.38867188 47.05908203 C84.42798828 47.94853516 84.46730469 48.83798828 84.5078125 49.75439453 C84.55099609 50.65158203 84.59417969 51.54876953 84.63867188 52.47314453 C84.74488111 54.69173736 84.84692444 56.91044333 84.9453125 59.12939453 C86.9253125 59.12939453 88.9053125 59.12939453 90.9453125 59.12939453 C90.86449668 55.69092706 90.75165098 52.25424141 90.6328125 48.81689453 C90.59897461 47.35219727 90.59897461 47.35219727 90.56445312 45.85791016 C90.52900391 44.92011719 90.49355469 43.98232422 90.45703125 43.01611328 C90.43084717 42.15203857 90.40466309 41.28796387 90.37768555 40.39770508 C89.85854194 37.67417982 89.13607147 36.78520451 86.9453125 35.12939453 C82.57178176 33.89339671 80.00125879 34.10142139 75.9453125 36.12939453 C75.9453125 36.78939453 75.9453125 37.44939453 75.9453125 38.12939453 C74.9553125 38.12939453 73.9653125 38.12939453 72.9453125 38.12939453 C72.6153125 37.13939453 72.2853125 36.14939453 71.9453125 35.12939453 C66.12859747 33.38438002 62.89045372 35.20498361 57.9453125 38.12939453 Z M142.9453125 37.12939453 C139.94090179 41.66096417 140.31769993 46.90703807 140.9453125 52.12939453 C142.70364883 55.32044935 144.09405728 56.59431982 147.1328125 58.50439453 C151.65415648 59.50913764 156.75680449 59.22364854 160.9453125 57.12939453 C160.6153125 56.13939453 160.2853125 55.14939453 159.9453125 54.12939453 C159.25824219 54.22478516 158.57117188 54.32017578 157.86328125 54.41845703 C156.96222656 54.52931641 156.06117188 54.64017578 155.1328125 54.75439453 C153.79283203 54.92841797 153.79283203 54.92841797 152.42578125 55.10595703 C149.9453125 55.12939453 149.9453125 55.12939453 146.9453125 53.12939453 C146.6153125 51.14939453 146.2853125 49.16939453 145.9453125 47.12939453 C151.2253125 47.12939453 156.5053125 47.12939453 161.9453125 47.12939453 C161.65121695 41.57495109 161.65121695 41.57495109 159.3203125 36.69189453 C153.58747257 32.92028932 148.69091496 33.86228725 142.9453125 37.12939453 Z M250.9453125 38.12939453 C250.9453125 37.13939453 250.9453125 36.14939453 250.9453125 35.12939453 C249.6253125 35.12939453 248.3053125 35.12939453 246.9453125 35.12939453 C246.9453125 43.04939453 246.9453125 50.96939453 246.9453125 59.12939453 C248.5953125 59.12939453 250.2453125 59.12939453 251.9453125 59.12939453 C251.97109375 57.86482422 251.996875 56.60025391 252.0234375 55.29736328 C252.07971516 53.63717235 252.13706257 51.97701743 252.1953125 50.31689453 C252.20949219 49.48351562 252.22367187 48.65013672 252.23828125 47.79150391 C252.48279047 41.70322444 252.48279047 41.70322444 254.6171875 39.05517578 C256.9453125 38.12939453 256.9453125 38.12939453 262.9453125 38.12939453 C263.2753125 45.05939453 263.6053125 51.98939453 263.9453125 59.12939453 C265.5953125 59.12939453 267.2453125 59.12939453 268.9453125 59.12939453 C269.02647243 56.06635875 269.08588659 53.00548638 269.1328125 49.94189453 C269.15794922 49.07757813 269.18308594 48.21326172 269.20898438 47.32275391 C269.26464589 42.48020242 269.26664134 38.97352513 265.9453125 35.12939453 C259.85245016 33.09844042 256.12399843 34.99528071 250.9453125 38.12939453 Z M291.9453125 37.12939453 C288.98868603 41.46578003 288.30789233 44.93897316 288.9453125 50.12939453 C290.29558636 53.71560574 291.9417336 56.46034193 295.1953125 58.62939453 C298.96815022 59.31536503 302.25346095 59.2052171 305.9453125 58.12939453 C308.91464576 55.86332442 310.52671649 53.55402278 311.9453125 50.12939453 C312.13608229 45.05128442 311.36396636 40.01958685 307.9453125 36.12939453 C301.89946677 33.4280592 297.54608587 33.55443281 291.9453125 37.12939453 Z M318.9453125 37.12939453 C315.91959261 41.4239647 315.38999841 44.94646305 315.9453125 50.12939453 C317.33165513 54.36997198 318.33604698 55.76617855 322.1953125 58.06689453 C326.26970727 59.22130638 328.84880323 59.04901906 332.9453125 58.12939453 C333.2753125 56.80939453 333.6053125 55.48939453 333.9453125 54.12939453 C332.7078125 54.37689453 331.4703125 54.62439453 330.1953125 54.87939453 C327.13113462 55.23796854 326.23058173 55.28629261 323.4453125 53.75439453 C321.288623 49.9801879 321.27074872 46.38855884 321.9453125 42.12939453 C323.9453125 39.12939453 323.9453125 39.12939453 326.8203125 38.37939453 C329.59540636 38.15738702 331.35120549 38.23143441 333.9453125 39.12939453 C333.6153125 37.80939453 333.2853125 36.48939453 332.9453125 35.12939453 C327.29191303 33.86026404 323.9619924 34.13868152 318.9453125 37.12939453 Z M515.9453125 37.12939453 C512.98394787 41.47272932 512.38840812 44.93162028 512.9453125 50.12939453 C514.31839547 54.32941302 515.33322581 55.75734184 519.1328125 58.06689453 C524.02313018 59.42976995 528.26668576 59.4687079 532.9453125 57.12939453 C532.9453125 56.13939453 532.9453125 55.14939453 532.9453125 54.12939453 C532.26984375 54.24798828 531.594375 54.36658203 530.8984375 54.48876953 C523.57873947 55.54652936 523.57873947 55.54652936 520.3828125 53.44189453 C518.9453125 51.12939453 518.9453125 51.12939453 517.9453125 47.12939453 C523.5553125 47.12939453 529.1653125 47.12939453 534.9453125 47.12939453 C534.11246801 41.18055908 534.11246801 41.18055908 531.2578125 36.12939453 C525.47415323 33.62835269 521.17509321 33.4447763 515.9453125 37.12939453 Z M623.9453125 37.12939453 C621.25803836 40.65644184 620.72775231 43.37609521 621.0078125 47.69189453 C621.65182096 51.80523889 622.81315522 54.25825036 625.9453125 57.12939453 C629.92989236 59.63398759 633.46510969 59.127132 637.95703125 58.61376953 C640.16214762 58.25899086 640.16214762 58.25899086 641.9453125 56.12939453 C641.6153125 55.46939453 641.2853125 54.80939453 640.9453125 54.12939453 C640.26984375 54.24798828 639.594375 54.36658203 638.8984375 54.48876953 C631.57873947 55.54652936 631.57873947 55.54652936 628.3828125 53.44189453 C626.9453125 51.12939453 626.9453125 51.12939453 625.9453125 47.12939453 C631.5553125 47.12939453 637.1653125 47.12939453 642.9453125 47.12939453 C642.2881134 42.03284451 642.2881134 42.03284451 640.9453125 37.12939453 C635.0608791 32.78003071 630.12161294 33.76050338 623.9453125 37.12939453 Z M650.9453125 37.12939453 C647.31098252 41.05793218 647.44247971 44.33964028 647.59375 49.49658203 C648.07590495 53.10738687 649.16446083 54.79949178 651.9453125 57.12939453 C656.38047556 59.83977196 660.03177937 58.96219676 664.9453125 58.12939453 C664.9453125 57.13939453 664.9453125 56.14939453 664.9453125 55.12939453 C662.95963542 55.16194661 660.97395833 55.1944987 658.98828125 55.22705078 C656.9453125 55.12939453 656.9453125 55.12939453 653.9453125 54.12939453 C653.8373102 52.02634976 653.75972263 49.92172544 653.6953125 47.81689453 C653.64890625 46.64513672 653.6025 45.47337891 653.5546875 44.26611328 C653.9453125 41.12939453 653.9453125 41.12939453 655.7265625 39.19189453 C658.98993385 37.62915332 661.49114282 38.39870479 664.9453125 39.12939453 C664.9453125 37.80939453 664.9453125 36.48939453 664.9453125 35.12939453 C659.18875493 34.03763361 656.01856161 33.70790095 650.9453125 37.12939453 Z M701.9453125 37.12939453 C698.98868603 41.46578003 698.30789233 44.93897316 698.9453125 50.12939453 C700.34607387 54.03886411 702.00137031 56.6259587 705.7578125 58.62939453 C709.5709911 59.22754019 712.21030619 59.14803262 715.9453125 58.12939453 C720.14593229 54.65931731 721.73417908 52.32518215 722.2578125 46.87939453 C721.85670201 42.06606868 720.77705012 40.03260043 717.9453125 36.12939453 C712.26594887 32.78002624 707.34393897 33.60855118 701.9453125 37.12939453 Z M730.9453125 38.12939453 C730.9453125 37.13939453 730.9453125 36.14939453 730.9453125 35.12939453 C729.6253125 35.12939453 728.3053125 35.12939453 726.9453125 35.12939453 C726.9453125 43.04939453 726.9453125 50.96939453 726.9453125 59.12939453 C728.5953125 59.12939453 730.2453125 59.12939453 731.9453125 59.12939453 C731.97109375 57.86482422 731.996875 56.60025391 732.0234375 55.29736328 C732.07971516 53.63717235 732.13706257 51.97701743 732.1953125 50.31689453 C732.20949219 49.48351562 732.22367188 48.65013672 732.23828125 47.79150391 C732.48279047 41.70322444 732.48279047 41.70322444 734.6171875 39.05517578 C736.9453125 38.12939453 736.9453125 38.12939453 742.9453125 38.12939453 C743.2753125 45.05939453 743.6053125 51.98939453 743.9453125 59.12939453 C745.5953125 59.12939453 747.2453125 59.12939453 748.9453125 59.12939453 C749.02647243 56.06635875 749.08588659 53.00548638 749.1328125 49.94189453 C749.15794922 49.07757813 749.18308594 48.21326172 749.20898438 47.32275391 C749.26464589 42.48020242 749.26664134 38.97352513 745.9453125 35.12939453 C739.85245016 33.09844042 736.12399843 34.99528071 730.9453125 38.12939453 Z M755.9453125 36.12939453 C754.1953125 38.87939453 754.1953125 38.87939453 753.9453125 42.12939453 C755.93304028 46.01449883 758.24793575 47.43880089 762.1953125 48.94189453 C763.4328125 49.33376953 764.6703125 49.72564453 765.9453125 50.12939453 C765.6153125 51.77939453 765.2853125 53.42939453 764.9453125 55.12939453 C761.6453125 54.79939453 758.3453125 54.46939453 754.9453125 54.12939453 C754.6153125 55.11939453 754.2853125 56.10939453 753.9453125 57.12939453 C759.04871105 58.89996137 762.54869051 59.47855003 767.9453125 58.12939453 C770.05231465 56.65449303 770.74308707 55.56273474 771.8203125 53.25439453 C772.01742095 49.90355091 771.12009773 48.68796539 768.9453125 46.12939453 C766.63987406 44.96008942 764.33364415 44.00926986 761.90625 43.12158203 C759.9453125 42.12939453 759.9453125 42.12939453 758.9453125 39.12939453 C759.9453125 38.12939453 759.9453125 38.12939453 762.23046875 38.03173828 C763.60525391 38.04914063 763.60525391 38.04914063 765.0078125 38.06689453 C765.92691406 38.07591797 766.84601562 38.08494141 767.79296875 38.09423828 C768.50324219 38.10583984 769.21351563 38.11744141 769.9453125 38.12939453 C769.6153125 37.13939453 769.2853125 36.14939453 768.9453125 35.12939453 C762.17193558 33.79121203 762.17193558 33.79121203 755.9453125 36.12939453 Z M789.9453125 34.12939453 C789.9453125 35.77939453 789.9453125 37.42939453 789.9453125 39.12939453 C791.5953125 39.12939453 793.2453125 39.12939453 794.9453125 39.12939453 C794.9453125 37.47939453 794.9453125 35.82939453 794.9453125 34.12939453 C793.2953125 34.12939453 791.6453125 34.12939453 789.9453125 34.12939453 Z M96.9453125 35.12939453 C96.82887094 38.21240869 96.75798818 41.29485577 96.6953125 44.37939453 C96.66179687 45.25208984 96.62828125 46.12478516 96.59375 47.02392578 C96.46556873 52.17772306 96.46556873 52.17772306 98.72265625 56.68017578 C101.98397512 58.80662446 105.13006307 59.30701322 108.9453125 59.12939453 C111.78762647 58.50330978 113.3686749 57.67537709 115.9453125 56.12939453 C118.35855197 51.86653401 118.18096883 47.57937257 118.0703125 42.81689453 C118.06128906 42.07632813 118.05226563 41.33576172 118.04296875 40.57275391 C118.01955463 38.75815986 117.98368865 36.94373382 117.9453125 35.12939453 C115.9653125 35.12939453 113.9853125 35.12939453 111.9453125 35.12939453 C111.98011719 36.32177734 112.01492188 37.51416016 112.05078125 38.74267578 C112.07892003 40.30906795 112.1062201 41.87547535 112.1328125 43.44189453 C112.17051758 44.62041992 112.17051758 44.62041992 112.20898438 45.82275391 C112.22348633 46.95874023 112.22348633 46.95874023 112.23828125 48.11767578 C112.26184692 49.16242065 112.26184692 49.16242065 112.28588867 50.22827148 C111.9453125 52.12939453 111.9453125 52.12939453 110.80200195 53.94262695 C108.9453125 55.12939453 108.9453125 55.12939453 102.9453125 54.12939453 C102.6153125 47.85939453 102.2853125 41.58939453 101.9453125 35.12939453 C100.2953125 35.12939453 98.6453125 35.12939453 96.9453125 35.12939453 Z M165.9453125 35.12939453 C166.47382813 35.87705078 167.00234375 36.62470703 167.546875 37.39501953 C168.21460938 38.37986328 168.88234375 39.36470703 169.5703125 40.37939453 C170.24320313 41.35392578 170.91609375 42.32845703 171.609375 43.33251953 C172.9453125 46.12939453 172.9453125 46.12939453 172.3203125 48.19189453 C171.8665625 48.83126953 171.4128125 49.47064453 170.9453125 50.12939453 C170.30722656 51.29728516 170.30722656 51.29728516 169.65625 52.48876953 C169.21539062 53.27767578 168.77453125 54.06658203 168.3203125 54.87939453 C167.87429688 55.67861328 167.42828125 56.47783203 166.96875 57.30126953 C166.63101563 57.90455078 166.29328125 58.50783203 165.9453125 59.12939453 C168.32728849 59.41133327 168.32728849 59.41133327 170.9453125 59.12939453 C172.61188098 57.71306734 172.61188098 57.71306734 173.7578125 55.75439453 C174.17675781 55.12791016 174.59570312 54.50142578 175.02734375 53.85595703 C176.10179494 52.16097844 176.10179494 52.16097844 175.9453125 50.12939453 C178.27245589 52.29604528 179.88722946 54.01322845 181.3203125 56.87939453 C181.8565625 57.62189453 182.3928125 58.36439453 182.9453125 59.12939453 C186.01316962 59.31700163 186.01316962 59.31700163 188.9453125 59.12939453 C188.44 58.37013672 187.9346875 57.61087891 187.4140625 56.82861328 C186.764375 55.83474609 186.1146875 54.84087891 185.4453125 53.81689453 C184.47078125 52.33769531 184.47078125 52.33769531 183.4765625 50.82861328 C181.9453125 48.12939453 181.9453125 48.12939453 181.9453125 45.12939453 C183.2578125 42.90283203 183.2578125 42.90283203 184.9453125 40.50439453 C186.98982126 38.03164488 186.98982126 38.03164488 187.9453125 35.12939453 C185.6157178 34.62698131 185.6157178 34.62698131 182.9453125 35.12939453 C179.89933155 38.70782145 179.89933155 38.70782145 178.9453125 43.12939453 C174.55372921 41.66553343 174.06583817 39.15108115 171.9453125 35.12939453 C169.9653125 35.12939453 167.9853125 35.12939453 165.9453125 35.12939453 Z M219.9453125 35.12939453 C219.89129555 38.04630978 219.85163184 40.96222177 219.8203125 43.87939453 C219.80355469 44.70439453 219.78679687 45.52939453 219.76953125 46.37939453 C219.76308594 47.17861328 219.75664062 47.97783203 219.75 48.80126953 C219.73952637 49.53442383 219.72905273 50.26757812 219.71826172 51.02294922 C219.98378148 53.48628735 220.61846017 55.04265348 221.9453125 57.12939453 C226.90824476 59.61086066 230.68582438 59.31702088 235.9453125 58.12939453 C238.87618457 55.87487755 239.77345538 54.64496588 240.9453125 51.12939453 C241.01582364 48.39074166 241.03889015 45.67911866 241.0078125 42.94189453 C241.00330078 42.19230469 240.99878906 41.44271484 240.99414062 40.67041016 C240.98237604 38.8233707 240.96444115 36.9763724 240.9453125 35.12939453 C239.2953125 35.12939453 237.6453125 35.12939453 235.9453125 35.12939453 C235.90792969 36.32177734 235.87054688 37.51416016 235.83203125 38.74267578 C235.76637218 40.30911353 235.69992482 41.87551837 235.6328125 43.44189453 C235.59897461 44.62041992 235.59897461 44.62041992 235.56445312 45.82275391 C235.52900391 46.58007812 235.49355469 47.33740234 235.45703125 48.11767578 C235.43084717 48.81417236 235.40466309 49.51066895 235.37768555 50.22827148 C234.79552291 52.78801199 234.16032265 53.70309114 231.9453125 55.12939453 C229.9653125 54.79939453 227.9853125 54.46939453 225.9453125 54.12939453 C225.6153125 47.85939453 225.2853125 41.58939453 224.9453125 35.12939453 C223.2953125 35.12939453 221.6453125 35.12939453 219.9453125 35.12939453 Z M426.9453125 35.12939453 C426.80991969 38.02680075 426.71104421 40.91785074 426.6328125 43.81689453 C426.59091797 44.63351562 426.54902344 45.45013672 426.50585938 46.29150391 C426.41710238 50.67609932 426.50087503 52.53910216 429.21875 56.14892578 C432.87634048 58.80565697 435.47783803 59.43538593 439.9453125 59.12939453 C443.0532966 58.03584457 445.12424276 57.24172212 447.1015625 54.56298828 C448.38588386 50.85867251 448.15413309 47.26738033 448.0703125 43.37939453 C448.06128906 42.58662109 448.05226563 41.79384766 448.04296875 40.97705078 C448.01948262 39.02770172 447.98361387 37.07850879 447.9453125 35.12939453 C446.2953125 35.12939453 444.6453125 35.12939453 442.9453125 35.12939453 C442.89632813 36.40556641 442.84734375 37.68173828 442.796875 38.99658203 C442.72185059 40.66587525 442.64630262 42.335145 442.5703125 44.00439453 C442.52390625 45.26703125 442.52390625 45.26703125 442.4765625 46.55517578 C442.41855469 47.76367188 442.41855469 47.76367188 442.359375 48.99658203 C442.3279541 49.74020996 442.2965332 50.48383789 442.26416016 51.25 C441.9453125 53.12939453 441.9453125 53.12939453 439.9453125 55.12939453 C434.37713068 54.56121271 434.37713068 54.56121271 432.9453125 53.12939453 C432.78948947 51.78924232 432.69487108 50.4418055 432.62890625 49.09423828 C432.58701172 48.28535156 432.54511719 47.47646484 432.50195312 46.64306641 C432.46263672 45.79292969 432.42332031 44.94279297 432.3828125 44.06689453 C432.33962891 43.21289062 432.29644531 42.35888672 432.25195312 41.47900391 C432.14554548 39.36267416 432.04489519 37.2460564 431.9453125 35.12939453 C430.2953125 35.12939453 428.6453125 35.12939453 426.9453125 35.12939453 Z M471.9453125 35.12939453 C471.82887094 38.21240869 471.75798818 41.29485577 471.6953125 44.37939453 C471.66179688 45.25208984 471.62828125 46.12478516 471.59375 47.02392578 C471.46556873 52.17772306 471.46556873 52.17772306 473.72265625 56.68017578 C476.98397512 58.80662446 480.13006307 59.30701322 483.9453125 59.12939453 C486.78762647 58.50330978 488.3686749 57.67537709 490.9453125 56.12939453 C493.35855197 51.86653401 493.18096883 47.57937257 493.0703125 42.81689453 C493.06128906 42.07632813 493.05226563 41.33576172 493.04296875 40.57275391 C493.01955463 38.75815986 492.98368865 36.94373382 492.9453125 35.12939453 C491.2953125 35.12939453 489.6453125 35.12939453 487.9453125 35.12939453 C487.90792969 36.32177734 487.87054687 37.51416016 487.83203125 38.74267578 C487.76637218 40.30911353 487.69992482 41.87551837 487.6328125 43.44189453 C487.59897461 44.62041992 487.59897461 44.62041992 487.56445312 45.82275391 C487.52900391 46.58007812 487.49355469 47.33740234 487.45703125 48.11767578 C487.43084717 48.81417236 487.40466309 49.51066895 487.37768555 50.22827148 C486.79552291 52.78801199 486.16032265 53.70309114 483.9453125 55.12939453 C481.9653125 54.79939453 479.9853125 54.46939453 477.9453125 54.12939453 C477.6153125 47.85939453 477.2853125 41.58939453 476.9453125 35.12939453 C475.2953125 35.12939453 473.6453125 35.12939453 471.9453125 35.12939453 Z M498.9453125 35.12939453 C498.9453125 43.04939453 498.9453125 50.96939453 498.9453125 59.12939453 C500.5953125 59.12939453 502.2453125 59.12939453 503.9453125 59.12939453 C504.4403125 50.21939453 504.4403125 50.21939453 504.9453125 41.12939453 C506.9253125 40.13939453 508.9053125 39.14939453 510.9453125 38.12939453 C510.9453125 37.13939453 510.9453125 36.14939453 510.9453125 35.12939453 C508.6353125 35.78939453 506.3253125 36.44939453 503.9453125 37.12939453 C503.6153125 36.46939453 503.2853125 35.80939453 502.9453125 35.12939453 C501.6253125 35.12939453 500.3053125 35.12939453 498.9453125 35.12939453 Z M595.9453125 35.12939453 C595.9453125 43.04939453 595.9453125 50.96939453 595.9453125 59.12939453 C597.5953125 59.12939453 599.2453125 59.12939453 600.9453125 59.12939453 C600.9453125 51.20939453 600.9453125 43.28939453 600.9453125 35.12939453 C599.2953125 35.12939453 597.6453125 35.12939453 595.9453125 35.12939453 Z M606.9453125 35.12939453 C606.9453125 43.04939453 606.9453125 50.96939453 606.9453125 59.12939453 C608.9253125 59.12939453 610.9053125 59.12939453 612.9453125 59.12939453 C612.9453125 52.85939453 612.9453125 46.58939453 612.9453125 40.12939453 C615.2553125 39.46939453 617.5653125 38.80939453 619.9453125 38.12939453 C619.9453125 37.13939453 619.9453125 36.14939453 619.9453125 35.12939453 C616.33538871 35.78524643 616.33538871 35.78524643 612.9453125 37.12939453 C612.6153125 36.46939453 612.2853125 35.80939453 611.9453125 35.12939453 C610.2953125 35.12939453 608.6453125 35.12939453 606.9453125 35.12939453 Z M688.9453125 35.12939453 C688.9453125 43.04939453 688.9453125 50.96939453 688.9453125 59.12939453 C690.5953125 59.12939453 692.2453125 59.12939453 693.9453125 59.12939453 C693.9453125 51.20939453 693.9453125 43.28939453 693.9453125 35.12939453 C692.2953125 35.12939453 690.6453125 35.12939453 688.9453125 35.12939453 Z M790.9453125 54.12939453 C790.6153125 58.08939453 790.2853125 62.04939453 789.9453125 66.12939453 C790.9353125 66.12939453 791.9253125 66.12939453 792.9453125 66.12939453 C793.6053125 62.16939453 794.2653125 58.20939453 794.9453125 54.12939453 C793.6253125 54.12939453 792.3053125 54.12939453 790.9453125 54.12939453 Z M192.9453125 63.12939453 C192.9453125 63.78939453 192.9453125 64.44939453 192.9453125 65.12939453 C200.2053125 65.12939453 207.4653125 65.12939453 214.9453125 65.12939453 C214.9453125 64.46939453 214.9453125 63.80939453 214.9453125 63.12939453 C207.6853125 63.12939453 200.4253125 63.12939453 192.9453125 63.12939453 Z M538.9453125 63.12939453 C538.9453125 63.78939453 538.9453125 64.44939453 538.9453125 65.12939453 C546.2053125 65.12939453 553.4653125 65.12939453 560.9453125 65.12939453 C560.9453125 64.46939453 560.9453125 63.80939453 560.9453125 63.12939453 C553.6853125 63.12939453 546.4253125 63.12939453 538.9453125 63.12939453 Z M532.9453125 80.12939453 C532.9453125 82.10939453 532.9453125 84.08939453 532.9453125 86.12939453 C535.5853125 86.12939453 538.2253125 86.12939453 540.9453125 86.12939453 C540.9453125 84.14939453 540.9453125 82.16939453 540.9453125 80.12939453 C538.3053125 80.12939453 535.6653125 80.12939453 532.9453125 80.12939453 Z M169.9453125 81.12939453 C169.9453125 83.10939453 169.9453125 85.08939453 169.9453125 87.12939453 C172.2553125 87.12939453 174.5653125 87.12939453 176.9453125 87.12939453 C176.9453125 85.14939453 176.9453125 83.16939453 176.9453125 81.12939453 C174.6353125 81.12939453 172.3253125 81.12939453 169.9453125 81.12939453 Z M831.9453125 82.12939453 C831.9453125 84.10939453 831.9453125 86.08939453 831.9453125 88.12939453 C834.5853125 88.12939453 837.2253125 88.12939453 839.9453125 88.12939453 C839.9453125 86.14939453 839.9453125 84.16939453 839.9453125 82.12939453 C837.3053125 82.12939453 834.6653125 82.12939453 831.9453125 82.12939453 Z M161.9453125 88.12939453 C161.9453125 90.10939453 161.9453125 92.08939453 161.9453125 94.12939453 C164.2553125 94.12939453 166.5653125 94.12939453 168.9453125 94.12939453 C169.32750017 92.47324796 169.65926352 90.80482429 169.9453125 89.12939453 C168.76106924 87.71361976 168.76106924 87.71361976 165.3828125 88.06689453 C163.68125 88.09783203 163.68125 88.09783203 161.9453125 88.12939453 Z M383.9453125 88.12939453 C384.2753125 90.43939453 384.6053125 92.74939453 384.9453125 95.12939453 C388.4103125 94.63439453 388.4103125 94.63439453 391.9453125 94.12939453 C391.9453125 92.14939453 391.9453125 90.16939453 391.9453125 88.12939453 C389.3053125 88.12939453 386.6653125 88.12939453 383.9453125 88.12939453 Z M446.9453125 88.12939453 C446.9453125 90.10939453 446.9453125 92.08939453 446.9453125 94.12939453 C449.2553125 94.12939453 451.5653125 94.12939453 453.9453125 94.12939453 C453.9453125 92.14939453 453.9453125 90.16939453 453.9453125 88.12939453 C451.6353125 88.12939453 449.3253125 88.12939453 446.9453125 88.12939453 Z M523.9453125 88.12939453 C524.2753125 89.77939453 524.6053125 91.42939453 524.9453125 93.12939453 C527.2553125 93.45939453 529.5653125 93.78939453 531.9453125 94.12939453 C531.9453125 92.14939453 531.9453125 90.16939453 531.9453125 88.12939453 C529.3053125 88.12939453 526.6653125 88.12939453 523.9453125 88.12939453 Z M724.9453125 88.12939453 C724.9453125 90.10939453 724.9453125 92.08939453 724.9453125 94.12939453 C727.2553125 94.12939453 729.5653125 94.12939453 731.9453125 94.12939453 C731.9453125 92.14939453 731.9453125 90.16939453 731.9453125 88.12939453 C729.6353125 88.12939453 727.3253125 88.12939453 724.9453125 88.12939453 Z M99.9453125 95.12939453 C99.9453125 95.45939453 99.9453125 95.78939453 99.9453125 96.12939453 C112.1553125 96.12939453 124.3653125 96.12939453 136.9453125 96.12939453 C136.9453125 95.79939453 136.9453125 95.46939453 136.9453125 95.12939453 C124.7353125 95.12939453 112.5253125 95.12939453 99.9453125 95.12939453 Z M144.9453125 95.12939453 C144.9453125 95.45939453 144.9453125 95.78939453 144.9453125 96.12939453 C150.2253125 96.12939453 155.5053125 96.12939453 160.9453125 96.12939453 C160.9453125 95.79939453 160.9453125 95.46939453 160.9453125 95.12939453 C155.6653125 95.12939453 150.3853125 95.12939453 144.9453125 95.12939453 Z M162.9453125 95.12939453 C162.9453125 95.45939453 162.9453125 95.78939453 162.9453125 96.12939453 C173.5053125 96.12939453 184.0653125 96.12939453 194.9453125 96.12939453 C194.9453125 95.79939453 194.9453125 95.46939453 194.9453125 95.12939453 C184.3853125 95.12939453 173.8253125 95.12939453 162.9453125 95.12939453 Z M547.9453125 95.12939453 C547.9453125 95.45939453 547.9453125 95.78939453 547.9453125 96.12939453 C554.5453125 96.12939453 561.1453125 96.12939453 567.9453125 96.12939453 C567.9453125 95.79939453 567.9453125 95.46939453 567.9453125 95.12939453 C561.3453125 95.12939453 554.7453125 95.12939453 547.9453125 95.12939453 Z M572.9453125 95.12939453 C572.9453125 95.45939453 572.9453125 95.78939453 572.9453125 96.12939453 C585.1553125 96.12939453 597.3653125 96.12939453 609.9453125 96.12939453 C609.9453125 95.79939453 609.9453125 95.46939453 609.9453125 95.12939453 C597.7353125 95.12939453 585.5253125 95.12939453 572.9453125 95.12939453 Z M610.9453125 95.12939453 C610.9453125 95.45939453 610.9453125 95.78939453 610.9453125 96.12939453 C620.5153125 96.12939453 630.0853125 96.12939453 639.9453125 96.12939453 C639.9453125 95.79939453 639.9453125 95.46939453 639.9453125 95.12939453 C630.3753125 95.12939453 620.8053125 95.12939453 610.9453125 95.12939453 Z " fill="#6352BF" transform="translate(180.0546875,421.87060546875)"/>
<path d="M0 0 C21.12 0 42.24 0 64 0 C69.06296666 17.99300458 74.12161936 35.98711308 79.15722656 53.98779297 C80.60399092 59.15876013 82.05207542 64.32935762 83.5 69.5 C84.08333937 71.58333164 84.66667271 73.66666498 85.25 75.75 C85.53875 76.78125 85.8275 77.8125 86.125 78.875 C87 82 87.875 85.125 88.75 88.25 C89.0389917 89.28205566 89.3279834 90.31411133 89.62573242 91.37744141 C90.20674519 93.45260289 90.78763788 95.527798 91.3684082 97.60302734 C92.86124369 102.93667755 94.35641038 108.26965766 95.85546875 113.6015625 C98.97803697 124.7158583 102.06195072 135.83541273 105 147 C112.92 147.33 120.84 147.66 129 148 C129.33 145.36 129.66 142.72 130 140 C130.67679733 137.40336321 131.38918392 134.86934884 132.1875 132.3125 C132.64153227 130.81407669 133.09461389 129.31536509 133.546875 127.81640625 C133.78470703 127.03281738 134.02253906 126.24922852 134.26757812 125.44189453 C135.532901 121.22330806 136.73350259 116.98641835 137.9375 112.75 C138.44786835 110.95831957 138.95828537 109.166653 139.46875 107.375 C139.72269531 106.48296875 139.97664062 105.5909375 140.23828125 104.671875 C140.97940717 102.0722333 141.72348665 99.47345831 142.46875 96.875 C146.06489161 84.33165806 149.59479627 71.7704167 153.10449219 59.20263672 C153.99699992 56.01072929 154.89252863 52.81968498 155.7890625 49.62890625 C156.3803055 47.52346478 156.971452 45.41799622 157.5625 43.3125 C157.85084717 42.28543945 158.13919434 41.25837891 158.4362793 40.20019531 C159.86722307 35.09066324 161.28249921 29.97753244 162.66796875 24.85546875 C162.93472412 23.86957764 163.20147949 22.88368652 163.47631836 21.86791992 C163.97313133 20.02630995 164.46763505 18.18407457 164.95922852 16.34106445 C165.29651978 15.08942505 165.29651978 15.08942505 165.640625 13.8125 C165.92728027 12.73935547 165.92728027 12.73935547 166.21972656 11.64453125 C167.37459078 7.73042325 168.70949805 3.87150585 170 0 C189.14 0 208.28 0 228 0 C228 58.74 228 117.48 228 178 C229.32 178.33 230.64 178.66 232 179 C232 189.89 232 200.78 232 212 C240.91 212 249.82 212 259 212 C259 214.31 259 216.62 259 219 C250.09 219 241.18 219 232 219 C232.33 228.57 232.66 238.14 233 248 C235.97 248 238.94 248 242 248 C241.25 252.75 241.25 252.75 239 255 C239.99 255.33 240.98 255.66 242 256 C242 257.32 242 258.64 242 260 C238.7 260 235.4 260 232 260 C232 265.61 232 271.22 232 277 C215.5 277 199 277 182 277 C182 269.41 182 261.82 182 254 C183.65 253.67 185.3 253.34 187 253 C187 232.54 187 212.08 187 191 C184.03 190.67 181.06 190.34 178 190 C178 179.11 178 168.22 178 157 C174.37 157.33 170.74 157.66 167 158 C167 173.84 167 189.68 167 206 C161.72 206 156.44 206 151 206 C151 213.26 151 220.52 151 228 C146.38 228.33 141.76 228.66 137 229 C137 240.88 137 252.76 137 265 C125.12 265 113.24 265 101 265 C101 257.08 101 249.16 101 241 C94.07 241 87.14 241 80 241 C80 230.44 80 219.88 80 209 C76.37 209 72.74 209 69 209 C68.34 208.67 67.68 208.34 67 208 C67 197.11 67 186.22 67 175 C64.69 174.67 62.38 174.34 60 174 C58.02 165.585 58.02 165.585 56 157 C54.35 157 52.7 157 51 157 C51 170.53 51 184.06 51 198 C51.99 198 52.98 198 54 198 C54 214.17 54 230.34 54 247 C50.37 247 46.74 247 43 247 C42.505 249.97 42.505 249.97 42 253 C45.96 253 49.92 253 54 253 C54 257.95 54 262.9 54 268 C51.69 268 49.38 268 47 268 C47.020625 268.969375 47.04125 269.93875 47.0625 270.9375 C47 274 47 274 46 275 C44.4651703 275.09319449 42.92607918 275.117458 41.38842773 275.11352539 C40.40748642 275.11344986 39.4265451 275.11337433 38.4158783 275.11329651 C37.3492244 275.10813522 36.2825705 275.10297394 35.18359375 275.09765625 C33.55430687 275.09553383 33.55430687 275.09553383 31.8921051 275.09336853 C28.40720925 275.08775048 24.92237658 275.07519492 21.4375 275.0625 C19.08138113 275.05748733 16.72526126 275.05292402 14.36914062 275.04882812 C8.57940536 275.03777519 2.78970719 275.02101951 -3 275 C-3 272.69 -3 270.38 -3 268 C0.96 267.67 4.92 267.34 9 267 C9 248.52 9 230.04 9 211 C6.36 211 3.72 211 1 211 C-0.79552722 209.20447278 -0.12259239 206.76508701 -0.12908131 204.37456459 C-0.12616847 203.56037829 -0.12325563 202.74619199 -0.12025452 201.90733337 C-0.12110894 201.04893295 -0.12196337 200.19053253 -0.12284368 199.30611998 C-0.12450112 196.4071029 -0.11897282 193.50814268 -0.11352539 190.60913086 C-0.11324355 188.54004416 -0.11340119 186.47095737 -0.1139679 184.40187073 C-0.11425599 178.76573737 -0.10835733 173.12962509 -0.10139394 167.49349666 C-0.09516239 161.61045738 -0.09455676 155.72741768 -0.09336853 149.84437561 C-0.09025462 138.69545772 -0.08204044 127.54654958 -0.07201904 116.397636 C-0.06085974 103.70861732 -0.05534792 91.01959818 -0.05032361 78.33057582 C-0.03985787 52.22037722 -0.02151166 26.110192 0 0 Z M50 136 C51 139 51 139 51 139 Z M177 138 C176.34 141.3 175.68 144.6 175 148 C175.99 148 176.98 148 178 148 C178 144.7 178 141.4 178 138 C177.67 138 177.34 138 177 138 Z M51 139 C51 141.97 51 144.94 51 148 C51.66 148 52.32 148 53 148 C52.67 145.03 52.34 142.06 52 139 C51.67 139 51.34 139 51 139 Z M35 150 C35 151.65 35 153.3 35 155 C39.62 155 44.24 155 49 155 C49 153.35 49 151.7 49 150 C44.38 150 39.76 150 35 150 Z M56 150 C56.33 151.65 56.66 153.3 57 155 C72.51 155 88.02 155 104 155 C103.505 152.525 103.505 152.525 103 150 C87.49 150 71.98 150 56 150 Z M130 150 C129.67 151.65 129.34 153.3 129 155 C142.86 155 156.72 155 171 155 C171.66 153.35 172.32 151.7 173 150 C158.81 150 144.62 150 130 150 Z M179 150 C179.33 151.65 179.66 153.3 180 155 C190.56 155 201.12 155 212 155 C212 153.35 212 151.7 212 150 C201.11 150 190.22 150 179 150 Z M108 157 C108.51958285 161.37934119 109.05675742 165.68803391 110 170 C112.31 170 114.62 170 117 170 C117 177.92 117 185.84 117 194 C119.31 194 121.62 194 124 194 C124 181.79 124 169.58 124 157 C118.72 157 113.44 157 108 157 Z M214 213 C214 214.32 214 215.64 214 217 C219.28 217 224.56 217 230 217 C230 215.68 230 214.36 230 213 C224.72 213 219.44 213 214 213 Z M232 252 C232 253.65 232 255.3 232 257 C233.32 255.35 234.64 253.7 236 252 C234.68 252 233.36 252 232 252 Z " fill="#7643BD" transform="translate(141,57)"/>
<path d="M0 0 C18.15 0 36.3 0 55 0 C55 48.18 55 96.36 55 146 C64.9 146 74.8 146 85 146 C85 148.97 85 151.94 85 155 C75.1 155 65.2 155 55 155 C55.05162523 160.65296249 55.11536013 166.30344013 55.20751953 171.95556641 C55.23536967 173.86954324 55.25675852 175.78362741 55.27099609 177.69775391 C55.34919471 187.62897849 55.68782624 197.27371213 57.796875 207.0078125 C57.95093811 207.73064423 58.10500122 208.45347595 58.26373291 209.19821167 C59.62827127 214.8434592 62.11033221 218.93317585 66 223.1875 C75.89510813 229.16579449 87.81336282 228.37852016 99 229 C99 212.83 99 196.66 99 180 C103.95 180 108.9 180 114 180 C114 120.6 114 61.2 114 0 C131.82 0 149.64 0 168 0 C168 56.43 168 112.86 168 171 C161.73 171 155.46 171 149 171 C149 174.63 149 178.26 149 182 C155.27 182 161.54 182 168 182 C168 203.12 168 224.24 168 246 C158.76 246 149.52 246 140 246 C140 256.23 140 266.46 140 277 C98.75 277 57.5 277 15 277 C15 264.79 15 252.58 15 240 C11.37 239.67 7.74 239.34 4 239 C4 201.38 4 163.76 4 125 C2.68 125 1.36 125 0 125 C0 83.75 0 42.5 0 0 Z M30 147 C30 149.31 30 151.62 30 154 C37.59 154 45.18 154 53 154 C53 151.69 53 149.38 53 147 C45.41 147 37.82 147 30 147 Z " fill="#7544BE" transform="translate(401,57)"/>
<path d="M0 0 C18.81 0 37.62 0 57 0 C57.66 6.6 58.32 13.2 59 20 C61.38884282 31.14135001 61.38884282 31.14135001 66.6640625 41.01171875 C68.27604185 43.41083421 69.48953944 45.89899438 70.75 48.5 C73.12896373 53.35552598 75.6927298 58.05901885 78.375 62.75 C82.90172279 70.68019408 86.99605502 78.79573127 91 87 C91.46148438 86.06542969 91.92296875 85.13085938 92.3984375 84.16796875 C96.17086906 76.56023178 100.02551384 69.00429602 104 61.5 C107.17046707 55.50188477 110.31751183 49.49412733 113.375 43.4375 C113.8390625 42.52871094 113.8390625 42.52871094 114.3125 41.6015625 C115.24117991 39.74824042 116.12659184 37.87998482 117 36 C117.53089233 34.89724731 117.53089233 34.89724731 118.07250977 33.7722168 C121.1429523 26.88923291 121.7991321 20.41249123 122.1875 12.9375 C122.32320938 10.69639284 122.46233499 8.45548898 122.60546875 6.21484375 C122.65856201 5.23636475 122.71165527 4.25788574 122.76635742 3.24975586 C123 1 123 1 124 0 C125.65738443 -0.09346915 127.31874644 -0.11744977 128.97875977 -0.11352539 C130.03978409 -0.11344986 131.10080841 -0.11337433 132.19398499 -0.11329651 C133.348134 -0.10813522 134.50228302 -0.10297394 135.69140625 -0.09765625 C136.86638168 -0.0962413 138.04135712 -0.09482635 139.25193787 -0.09336853 C143.02215064 -0.08774992 146.79230504 -0.07519426 150.5625 -0.0625 C153.11132727 -0.0574874 155.66015547 -0.05292408 158.20898438 -0.04882812 C164.47267633 -0.03777444 170.73633399 -0.02101821 177 0 C177.03862204 3.31897746 177.06160879 6.63789585 177.08203125 9.95703125 C177.09302856 10.88584106 177.10402588 11.81465088 177.11535645 12.77160645 C177.15395148 21.16143113 175.9791132 28.83149034 174 37 C173.82984375 37.84949219 173.6596875 38.69898438 173.484375 39.57421875 C170.37685786 52.64798731 161.16317838 64.85847837 154 76 C152.91441551 77.70382276 151.82976131 79.40823864 150.74609375 81.11328125 C150.20847412 81.95810059 149.67085449 82.80291992 149.11694336 83.67333984 C147.95755916 85.49525338 146.79821948 87.31719525 145.63891602 89.13916016 C142.47902058 94.10512541 139.31836478 99.07060384 136.15625 104.03515625 C135.53306885 105.01379639 134.9098877 105.99243652 134.26782227 107.00073242 C133.08107942 108.86434768 131.89408328 110.72780167 130.70678711 112.59106445 C129.63518271 114.27410718 128.56718848 115.95945587 127.50341797 117.64746094 C126.50987378 119.2021527 125.49344414 120.74247942 124.45361328 122.26660156 C123.98552246 122.96495117 123.51743164 123.66330078 123.03515625 124.3828125 C122.61758057 124.98754395 122.20000488 125.59227539 121.76977539 126.21533203 C120.76151244 128.55291598 121.12744982 129.6476881 122 132 C123.49015181 134.61292547 125.10299952 137.12586984 126.72265625 139.66015625 C128 142 128 142 128 145 C122.39 145 116.78 145 111 145 C111 146.98 111 148.96 111 151 C111.60884033 150.91097412 112.21768066 150.82194824 112.8449707 150.73022461 C129.62397587 148.5985243 129.62397587 148.5985243 134.96044922 152.39453125 C138.42836508 156.28520862 140.64069615 160.89147001 142.83642578 165.58349609 C144.70116119 169.45616732 146.96409888 173.07594447 149.1875 176.75 C150.33098375 178.72058366 151.46577062 180.69447758 152.58154297 182.6809082 C154.02665007 185.12614025 154.02665007 185.12614025 156.06298828 187.74682617 C162.97384432 197.43410601 162.98734322 205.2737297 162.5 216.8125 C162.4597665 218.48754379 162.42328332 220.16268202 162.390625 221.83789062 C162.30352623 225.89431093 162.16610507 229.94607805 162 234 C165.3 234 168.6 234 172 234 C172 241.59 172 249.18 172 257 C165.4 257.33 158.8 257.66 152 258 C152 258.66 152 259.32 152 260 C152.57032959 260.02505615 153.14065918 260.0501123 153.72827148 260.07592773 C156.29826157 260.19156549 158.86785527 260.31443624 161.4375 260.4375 C162.78424805 260.49647461 162.78424805 260.49647461 164.15820312 260.55664062 C165.01220703 260.59853516 165.86621094 260.64042969 166.74609375 260.68359375 C167.53685303 260.72025146 168.3276123 260.75690918 169.14233398 260.79467773 C171 261 171 261 172 262 C172 265.96 172 269.92 172 274 C150.88 274 129.76 274 108 274 C108 249.91 108 225.82 108 201 C106.02 201 104.04 201 102 201 C100.34765625 199.375 100.34765625 199.375 99.0625 197 C98.57652344 196.10539063 98.09054687 195.21078125 97.58984375 194.2890625 C94.52377688 187.94599542 91.72417713 181.4961147 89 175 C88.46890625 176.0621875 87.9378125 177.124375 87.390625 178.21875 C81 191 81 191 79.99688721 192.72167969 C77.05495647 198.00962804 76.39970552 202.31280728 76.390625 208.3125 C76.37408875 209.16682617 76.35755249 210.02115234 76.34051514 210.90136719 C76.2923518 213.60098688 76.2707355 216.30004466 76.25 219 C76.22181372 220.84247571 76.19188261 222.6849256 76.16015625 224.52734375 C76.08660189 229.01818283 76.03683463 233.50871575 76 238 C74.02 238 72.04 238 70 238 C70 242.29 70 246.58 70 251 C67 251 64 251 61 251 C60.01 251.33 59.02 251.66 58 252 C59.093125 251.938125 60.18625 251.87625 61.3125 251.8125 C65 252 65 252 67 253.25 C68 255 68 255 67.8125 257.0625 C67 259 67 259 65 261 C63.68 261 62.36 261 61 261 C61 262.32 61 263.64 61 265 C60.01 265 59.02 265 58 265 C57.505 270.94 57.505 270.94 57 277 C36.54 277 16.08 277 -5 277 C-5 261.49 -5 245.98 -5 230 C-1.04 230 2.92 230 7 230 C7 217.13 7 204.26 7 191 C17.56 191 28.12 191 39 191 C39 189.02 39 187.04 39 185 C34.05 185 29.1 185 24 185 C23.97708513 181.0306345 23.95715985 177.0614368 23.94506836 173.09204102 C23.94002943 171.74079614 23.93319823 170.38955674 23.92456055 169.03833008 C23.91247581 167.09979566 23.90730172 165.161222 23.90234375 163.22265625 C23.89710693 162.05484619 23.89187012 160.88703613 23.88647461 159.68383789 C24 157 24 157 25 156 C26.35331422 156.07400497 27.703782 156.20146543 29.05078125 156.3515625 C34.53895428 156.71954951 39.79289173 157.01264423 45 155 C50.09841328 150.46065986 53.11245005 144.16816883 55.98876953 138.06884766 C57 136 57 136 59 133 C58.70900713 128.71267519 56.87987796 125.87818839 54.53515625 122.3515625 C53.82222412 121.27084473 53.10929199 120.19012695 52.37475586 119.07666016 C51.60419163 117.92598104 50.83343603 116.77543005 50.0625 115.625 C49.27998546 114.44495919 48.49816839 113.26445559 47.71704102 112.08349609 C45.48694821 108.71633418 43.2438933 105.35797951 41 102 C39.97592997 100.45875343 38.95238774 98.91715584 37.9296875 97.375 C34.96995174 92.91751277 31.98928391 88.47422701 29.0078125 84.03125 C26.99656264 81.02649117 24.99721175 78.01410712 23 75 C22.35562988 74.03707031 22.35562988 74.03707031 21.69824219 73.0546875 C11.28936944 57.47420244 3.88232628 43.69429464 1 25 C0.89397461 24.33564941 0.78794922 23.67129883 0.67871094 22.98681641 C-0.37421641 15.24394823 0 7.98730341 0 0 Z M62 238 C62.33 239.65 62.66 241.3 63 243 C63.99 241.68 64.98 240.36 66 239 C64.68 238.67 63.36 238.34 62 238 Z " fill="#7544BE" transform="translate(893,57)"/>
<path d="M0 0 C45.21 0 90.42 0 137 0 C137 15.18 137 30.36 137 46 C135.03653281 47.96346719 131.22772768 47.18456446 128.54272461 47.20532227 C127.76229294 47.21522186 126.98186127 47.22512146 126.17778015 47.23532104 C123.58599937 47.26702775 120.99420023 47.2917295 118.40234375 47.31640625 C116.61014822 47.33696787 114.81795763 47.35796413 113.02577209 47.37937927 C108.2993468 47.43468176 103.57287715 47.48405483 98.84637451 47.53222656 C93.18038816 47.591194 87.51448319 47.65746677 81.84856415 47.72252655 C73.23242563 47.82063889 64.6162359 47.90942449 56 48 C56 66.81 56 85.62 56 105 C79.76 105 103.52 105 128 105 C128 121.875 128 121.875 127.5 128.9375 C127.45230469 129.63294922 127.40460938 130.32839844 127.35546875 131.04492188 C127.2415368 132.69693522 127.1215275 134.34852804 127 136 C127.66 136 128.32 136 129 136 C129 140.95 129 145.9 129 151 C108.54 151 88.08 151 67 151 C67 169.81 67 188.62 67 208 C61.72 208 56.44 208 51 208 C51 208.99 51 209.98 51 211 C56.28 211.33 61.56 211.66 67 212 C67 217.61 67 223.22 67 229 C67.99 229 68.98 229 70 229 C70 224.38 70 219.76 70 215 C71.32 215 72.64 215 74 215 C74.33 215.66 74.66 216.32 75 217 C75.66 216.34 76.32 215.68 77 215 C79.625 214.875 79.625 214.875 82 215 C81.67 215.5775 81.34 216.155 81 216.75 C79.72924102 219.19883862 79.72924102 219.19883862 80 223 C81.28184562 225.74832154 81.28184562 225.74832154 83 228 C83.66 228 84.32 228 85 228 C84.98839844 227.14535156 84.97679687 226.29070312 84.96484375 225.41015625 C84.95582031 224.30542969 84.94679688 223.20070313 84.9375 222.0625 C84.92589844 220.96035156 84.91429687 219.85820312 84.90234375 218.72265625 C85 216 85 216 86 215 C87.9609375 214.796875 87.9609375 214.796875 90.375 214.75 C91.56222656 214.71132813 91.56222656 214.71132813 92.7734375 214.671875 C95 215 95 215 96.77734375 216.16015625 C98.49032753 218.7378411 98.29560325 220.62457448 98.1875 223.6875 C98.14689453 225.17830078 98.14689453 225.17830078 98.10546875 226.69921875 C98.07066406 227.45847656 98.03585937 228.21773437 98 229 C99.65 228.67 101.3 228.34 103 228 C102.608125 226.948125 102.21625 225.89625 101.8125 224.8125 C101 221 101 221 102.3125 218.125 C104 216 104 216 105 215 C108.375 214.75 108.375 214.75 112 215 C112.99 215.99 113.98 216.98 115 218 C115 221.63 115 225.26 115 229 C122.59 229 130.18 229 138 229 C138 231.64 138 234.28 138 237 C136.02 237 134.04 237 132 237 C132 248.22 132 259.44 132 271 C104.28 271 76.56 271 48 271 C48 272.98 48 274.96 48 277 C34.14 277 20.28 277 6 277 C6 244.33 6 211.66 6 178 C4.35 178.33 2.7 178.66 1 179 C0 178 0 178 -0.11352539 174.67358398 C-0.11327435 173.19774445 -0.10771514 171.72189903 -0.09765625 170.24609375 C-0.09664917 169.55906372 -0.09564209 168.87203369 -0.09460449 168.16418457 C-0.08935776 165.58860616 -0.07539659 163.01305147 -0.0625 160.4375 C-0.041875 154.683125 -0.02125 148.92875 0 143 C-14.52 143 -29.04 143 -44 143 C-44 140.69 -44 138.38 -44 136 C-29.48 136 -14.96 136 0 136 C0 91.12 0 46.24 0 0 Z M2 137 C2 138.32 2 139.64 2 141 C8.93 141 15.86 141 23 141 C23 139.68 23 138.36 23 137 C16.07 137 9.14 137 2 137 Z M91 219 C91 219.66 91 220.32 91 221 C91.66 221 92.32 221 93 221 C93 220.34 93 219.68 93 219 C92.34 219 91.68 219 91 219 Z M107 219 C107 220.98 107 222.96 107 225 C107.33 224.34 107.66 223.68 108 223 C108.99 223 109.98 223 111 223 C110.67 221.68 110.34 220.36 110 219 C109.01 219 108.02 219 107 219 Z M74 224 C74 225.65 74 227.3 74 229 C75.32 228.67 76.64 228.34 78 228 C76.68 226.68 75.36 225.36 74 224 Z M91 224 C91 225.65 91 227.3 91 229 C91.99 228.67 92.98 228.34 94 228 C93.34 226.68 92.68 225.36 92 224 C91.67 224 91.34 224 91 224 Z " fill="#7743BC" transform="translate(742,57)"/>
<path d="M0 0 C53.46 0 106.92 0 162 0 C162 15.51 162 31.02 162 47 C144.51 47.33 127.02 47.66 109 48 C109 110.04 109 172.08 109 236 C116.59 236 124.18 236 132 236 C133 237 133 237 133 244 C125.08 244.33 117.16 244.66 109 245 C109 251.6 109 258.2 109 265 C104.05 265 99.1 265 94 265 C94 266.98 94 268.96 94 271 C97.63 271 101.26 271 105 271 C105 272.98 105 274.96 105 277 C87.84 277 70.68 277 53 277 C53 201.1 53 125.2 53 47 C35.51 47 18.02 47 0 47 C0 31.49 0 15.98 0 0 Z M90 238 C90 239.65 90 241.3 90 243 C97.92 242.505 97.92 242.505 106 242 C106 240.68 106 239.36 106 238 C100.72 238 95.44 238 90 238 Z " fill="#7D41B8" transform="translate(575,57)"/>
<path d="M0 0 C3.96 0 7.92 0 12 0 C14.15239094 5.56718125 16.02356237 11.14421782 17.6875 16.875 C17.91244141 17.63296875 18.13738281 18.3909375 18.36914062 19.171875 C20 24.74356478 20 24.74356478 20 27 C20.99 26.67 21.98 26.34 23 26 C24.06102072 23.52219023 24.06102072 23.52219023 24.7890625 20.46875 C25.24152344 18.78845703 25.24152344 18.78845703 25.703125 17.07421875 C26.00734375 15.89472656 26.3115625 14.71523438 26.625 13.5 C27.23955182 11.17638465 27.85660238 8.85342822 28.4765625 6.53125 C28.74549316 5.49548828 29.01442383 4.45972656 29.29150391 3.39257812 C30 1 30 1 31 0 C34.63 0 38.26 0 42 0 C42.33 12.54 42.66 25.08 43 38 C44.65 38.33 46.3 38.66 48 39 C48 39.66 48 40.32 48 41 C47.01 41 46.02 41 45 41 C45.01160156 41.63808594 45.02320313 42.27617187 45.03515625 42.93359375 C45.04417969 43.75988281 45.05320312 44.58617187 45.0625 45.4375 C45.07410156 46.26121094 45.08570313 47.08492188 45.09765625 47.93359375 C45 50 45 50 44 51 C41.98035801 51.07244053 39.95832876 51.08377188 37.9375 51.0625 C36.28041016 51.04896484 36.28041016 51.04896484 34.58984375 51.03515625 C33.73519531 51.02355469 32.88054688 51.01195312 32 51 C31.957279 49.33388095 31.95936168 47.66617115 32 46 C32.33 45.67 32.66 45.34 33 45 C32.91062197 43.47480724 32.75462854 41.95318071 32.5625 40.4375 C32.46066406 39.61121094 32.35882812 38.78492188 32.25390625 37.93359375 C32.17011719 37.29550781 32.08632813 36.65742188 32 36 C31.67 36.99 31.34 37.98 31 39 C30.01 39 29.02 39 28 39 C28 39.99 28 40.98 28 42 C27.34 42 26.68 42 26 42 C26 44.31 26 46.62 26 49 C23.36 49 20.72 49 18 49 C18 47.68 18 46.36 18 45 C16.68 45 15.36 45 14 45 C14 43.02 14 41.04 14 39 C13.34 39 12.68 39 12 39 C11.93941406 39.78246094 11.87882813 40.56492187 11.81640625 41.37109375 C11.73261719 42.38300781 11.64882813 43.39492188 11.5625 44.4375 C11.48128906 45.44683594 11.40007813 46.45617187 11.31640625 47.49609375 C11 50 11 50 10 51 C8.14712498 51.07226502 6.29166122 51.0838122 4.4375 51.0625 C3.42558594 51.05347656 2.41367187 51.04445313 1.37109375 51.03515625 C0.58863281 51.02355469 -0.19382812 51.01195312 -1 51 C-1 50.01 -1 49.02 -1 48 C-0.01 48 0.98 48 2 48 C2 45.36 2 42.72 2 40 C1.34 40 0.68 40 0 40 C0 26.8 0 13.6 0 0 Z " fill="#5D50CF" transform="translate(684,342)"/>
<path d="M0 0 C3.70795675 -0.28329041 7.29841312 -0.41315259 11 0 C14.71312533 3.49048145 15.4647473 9.74876566 16.6875 14.625 C16.91244141 15.48351562 17.13738281 16.34203125 17.36914062 17.2265625 C19 23.5715473 19 23.5715473 19 27 C20.32 27 21.64 27 23 27 C23.11472656 26.03707031 23.22945312 25.07414062 23.34765625 24.08203125 C24.00245767 19.5122308 25.19620412 15.12793743 26.4375 10.6875 C26.65470703 9.87732422 26.87191406 9.06714844 27.09570312 8.23242188 C27.31033203 7.45833984 27.52496094 6.68425781 27.74609375 5.88671875 C27.93872803 5.18764404 28.1313623 4.48856934 28.32983398 3.76831055 C29 2 29 2 31 0 C33.34765625 -0.23046875 33.34765625 -0.23046875 36.0625 -0.1875 C37.41021484 -0.17783203 37.41021484 -0.17783203 38.78515625 -0.16796875 C41 0 41 0 42 1 C42.08858646 3.73894085 42.11523479 6.4525327 42.09765625 9.19140625 C42.0962413 10.01124496 42.09482635 10.83108368 42.09336853 11.67576599 C42.08775289 14.30471382 42.07519779 16.93357773 42.0625 19.5625 C42.05748701 21.34049357 42.05292376 23.11848846 42.04882812 24.89648438 C42.03777839 29.26435545 42.02050331 33.63216348 42 38 C43.65 38 45.3 38 47 38 C47 38.99 47 39.98 47 41 C46.01 41 45.02 41 44 41 C44.01160156 41.63808594 44.02320313 42.27617187 44.03515625 42.93359375 C44.04417969 43.75988281 44.05320312 44.58617187 44.0625 45.4375 C44.07410156 46.26121094 44.08570313 47.08492188 44.09765625 47.93359375 C44 50 44 50 43 51 C39.3308423 51.14310287 35.67284559 51.04221662 32 51 C32.33 46.05 32.66 41.1 33 36 C32.34 36 31.68 36 31 36 C31 36.99 31 37.98 31 39 C30.01 39 29.02 39 28 39 C28 39.99 28 40.98 28 42 C27.01 42 26.02 42 25 42 C25 44.31 25 46.62 25 49 C22.69 49 20.38 49 18 49 C18 47.68 18 46.36 18 45 C16.68 45 15.36 45 14 45 C14 43.02 14 41.04 14 39 C13.34 39 12.68 39 12 39 C12 37.02 12 35.04 12 33 C11.34 33 10.68 33 10 33 C10.01160156 34.21558594 10.02320313 35.43117188 10.03515625 36.68359375 C10.04453278 38.26822764 10.05363313 39.85286318 10.0625 41.4375 C10.07087891 42.23994141 10.07925781 43.04238281 10.08789062 43.86914062 C10.0965143 45.91295221 10.0522815 47.95683902 10 50 C9 51 9 51 6.71484375 51.09765625 C5.34005859 51.08025391 5.34005859 51.08025391 3.9375 51.0625 C3.01839844 51.05347656 2.09929687 51.04445313 1.15234375 51.03515625 C0.44207031 51.02355469 -0.26820313 51.01195312 -1 51 C-1 50.01 -1 49.02 -1 48 C-0.34 48 0.32 48 1 48 C0.83701416 46.87658203 0.67402832 45.75316406 0.50610352 44.59570312 C-0.08153612 39.87385573 -0.12708078 35.22145746 -0.09765625 30.46875 C-0.0962413 29.59222778 -0.09482635 28.71570557 -0.09336853 27.81262207 C-0.08781768 25.04171179 -0.07527461 22.27088543 -0.0625 19.5 C-0.05747864 17.60937618 -0.05291685 15.71875107 -0.04882812 13.828125 C-0.0378644 9.21871817 -0.02063425 4.60937327 0 0 Z " fill="#5D50CF" transform="translate(493,342)"/>
<path d="M0 0 C105.6 0 211.2 0 320 0 C320 1.65 320 3.3 320 5 C214.4 5 108.8 5 0 5 C0 3.35 0 1.7 0 0 Z " fill="#5E52C8" transform="translate(333,416)"/>
<path d="M0 0 C3.63 0 7.26 0 11 0 C11 8.58 11 17.16 11 26 C12.65 26 14.3 26 16 26 C16 27.32 16 28.64 16 30 C14.35 30 12.7 30 11 30 C11.33 32.97 11.66 35.94 12 39 C13.65 39.66 15.3 40.32 17 41 C17 38.36 17 35.72 17 33 C17.99 33 18.98 33 20 33 C20 22.11 20 11.22 20 0 C23.63 0 27.26 0 31 0 C31 15.18 31 30.36 31 46 C30.01 46 29.02 46 28 46 C28 46.66 28 47.32 28 48 C27.34 48 26.68 48 26 48 C26 48.99 26 49.98 26 51 C18.08 51 10.16 51 2 51 C2 49.35 2 47.7 2 46 C1.67 45.67 1.34 45.34 1 45 C0.75110899 41.97336245 0.56989301 38.97003399 0.4375 35.9375 C0.3950415 35.01751221 0.35258301 34.09752441 0.30883789 33.1496582 C-0.15097427 22.10213909 -0.08613865 11.0544603 0 0 Z " fill="#5D50CF" transform="translate(317,342)"/>
<path d="M0 0 C1.54300781 -0.03867187 1.54300781 -0.03867187 3.1171875 -0.078125 C6.5603314 0.2974907 8.36477373 1.19070685 11.125 3.25 C13.48003265 6.98556904 14.63111821 9.82146568 14.125 14.25 C13.125 15.25 13.125 15.25 11.27734375 15.34765625 C9.2265625 15.31510417 7.17578125 15.28255208 5.125 15.25 C4.795 13.6 4.465 11.95 4.125 10.25 C1.815 10.25 -0.495 10.25 -2.875 10.25 C-2.83973118 13.12504072 -2.83973118 13.12504072 -1.875 16.25 C0.76690392 18.45223065 0.76690392 18.45223065 4.0625 20.0625 C5.14402344 20.64644531 6.22554687 21.23039062 7.33984375 21.83203125 C11.04728708 23.71955149 12.95612754 24.35970717 17.125 24.25 C17.125 25.24 17.125 26.23 17.125 27.25 C16.465 27.25 15.805 27.25 15.125 27.25 C15.13660156 28.34699219 15.14820313 29.44398438 15.16015625 30.57421875 C15.16953964 32.02864412 15.17863925 33.48307135 15.1875 34.9375 C15.19587891 35.65873047 15.20425781 36.37996094 15.21289062 37.12304688 C15.23043632 40.96555382 15.06024221 44.51639526 14.125 48.25 C13.465 48.25 12.805 48.25 12.125 48.25 C12.125 48.91 12.125 49.57 12.125 50.25 C4.535 50.25 -3.055 50.25 -10.875 50.25 C-10.875 47.94 -10.875 45.63 -10.875 43.25 C-12.525 43.25 -14.175 43.25 -15.875 43.25 C-15.875 41.6 -15.875 39.95 -15.875 38.25 C-16.865 38.25 -17.855 38.25 -18.875 38.25 C-18.875 36.93 -18.875 35.61 -18.875 34.25 C-15.58980525 33.15493508 -13.13836585 33.15039392 -9.6875 33.1875 C-8.05748047 33.20103516 -8.05748047 33.20103516 -6.39453125 33.21484375 C-5.56308594 33.22644531 -4.73164063 33.23804688 -3.875 33.25 C-3.875 35.89 -3.875 38.53 -3.875 41.25 C-1.895 41.25 0.085 41.25 2.125 41.25 C2.269375 40.156875 2.41375 39.06375 2.5625 37.9375 C3.125 34.25 3.125 34.25 4.125 31.25 C1.815 31.25 -0.495 31.25 -2.875 31.25 C-2.875 29.6 -2.875 27.95 -2.875 26.25 C-7.825 26.745 -7.825 26.745 -12.875 27.25 C-12.875 26.26 -12.875 25.27 -12.875 24.25 C-12.215 23.92 -11.555 23.59 -10.875 23.25 C-11.3596875 22.71117187 -11.844375 22.17234375 -12.34375 21.6171875 C-15.16119478 17.26164787 -14.60130857 12.24087266 -13.875 7.25 C-12.50773147 4.4578386 -11.29447322 3.33187231 -8.875 1.25 C-5.71490467 0.19663489 -3.3196864 0.04967112 0 0 Z " fill="#5D50CF" transform="translate(154.875,342.75)"/>
<path d="M0 0 C2.69525118 0.00244152 5.39050233 0.00334166 8.08575439 0.00428772 C14.36762321 0.00734816 20.6494738 0.01548711 26.93133473 0.02563721 C34.10475915 0.03696659 41.27818462 0.04235037 48.45161581 0.04733264 C63.16046136 0.05767673 77.86929286 0.07516913 92.578125 0.09765625 C92.578125 0.75765625 92.578125 1.41765625 92.578125 2.09765625 C81.358125 2.09765625 70.138125 2.09765625 58.578125 2.09765625 C58.578125 4.40765625 58.578125 6.71765625 58.578125 9.09765625 C20.298125 9.09765625 -17.981875 9.09765625 -57.421875 9.09765625 C-57.421875 6.45765625 -57.421875 3.81765625 -57.421875 1.09765625 C-38.27114292 0.27599195 -19.16783016 -0.04001451 0 0 Z " fill="#5E52C8" transform="translate(902.421875,411.90234375)"/>
<path d="M0 0 C10.23 0 20.46 0 31 0 C31 3.3 31 6.6 31 10 C27.7 10 24.4 10 21 10 C21 20.56 21 31.12 21 42 C22.32 42 23.64 42 25 42 C25 42.66 25 43.32 25 44 C23.68 44 22.36 44 21 44 C21 45.98 21 47.96 21 50 C17.37 50 13.74 50 10 50 C10 36.8 10 23.6 10 10 C6.7 10 3.4 10 0 10 C0 6.7 0 3.4 0 0 Z " fill="#5D50CF" transform="translate(1034,343)"/>
<path d="M0 0 C3.63 0 7.26 0 11 0 C11.12121248 16.70038565 10.84151671 33.31993669 10 50 C6.7 50 3.4 50 0 50 C0 41.75 0 33.5 0 25 C-0.66 25 -1.32 25 -2 25 C-2 24.01 -2 23.02 -2 22 C-1.34 22 -0.68 22 0 22 C0 14.74 0 7.48 0 0 Z " fill="#5D50CF" transform="translate(878,343)"/>
<path d="M0 0 C2.875 1.125 2.875 1.125 4.75 3.25 C6.54285183 7.83173246 6.54285183 11.41826754 4.75 16 C2.875 18.125 2.875 18.125 0 19.25 C-3.125 19.125 -3.125 19.125 -6 17.25 C-8.4602964 13.63191706 -8.86763974 11.57912678 -8.609375 7.2890625 C-7.52510439 2.44482124 -4.85699576 0.19427983 0 0 Z " fill="#6252BF" transform="translate(758.125,458.875)"/>
<path d="M0 0 C3.01707075 1.34974218 3.94523447 2.0524673 5.375 5.0625 C6.20979901 9.97038431 6.08405463 13.04956482 3.1875 17.1875 C0.375 19.0625 0.375 19.0625 -2.25 19.125 C-5.26707075 17.77525782 -6.19523447 17.0725327 -7.625 14.0625 C-8.45979901 9.15461569 -8.33405463 6.07543518 -5.4375 1.9375 C-2.625 0.0625 -2.625 0.0625 0 0 Z " fill="#6252BF" transform="translate(891.625,458.9375)"/>
<path d="M0 0 C3.01707075 1.34974218 3.94523447 2.0524673 5.375 5.0625 C6.20979901 9.97038431 6.08405463 13.04956482 3.1875 17.1875 C0.375 19.0625 0.375 19.0625 -2.25 19.125 C-5.26707075 17.77525782 -6.19523447 17.0725327 -7.625 14.0625 C-8.45979901 9.15461569 -8.33405463 6.07543518 -5.4375 1.9375 C-2.625 0.0625 -2.625 0.0625 0 0 Z " fill="#6252BF" transform="translate(481.625,458.9375)"/>
<path d="M0 0 C3.56782871 0.55602525 4.92229114 1.68606826 7.125 4.5 C9.19887681 7.1880384 9.19887681 7.1880384 12 9 C12 9.66 12 10.32 12 11 C9.0435387 12.25601297 6.15372683 13.36080243 3 14 C0.35975609 12.89989837 -1.02004432 11.97995568 -3 10 C-3.30867281 6.52743085 -3.38701339 4.6127712 -1.5 1.625 C-1.005 1.08875 -0.51 0.5525 0 0 Z " fill="#6352BE" transform="translate(565,464)"/>
<path d="M0 0 C0.99 0 1.98 0 3 0 C3 1.32 3 2.64 3 4 C3.99 4 4.98 4 6 4 C6 2.68 6 1.36 6 0 C7.32 0 8.64 0 10 0 C10 3.96 10 7.92 10 12 C8.68 12 7.36 12 6 12 C6 10.68 6 9.36 6 8 C5.01 8 4.02 8 3 8 C3 9.32 3 10.64 3 12 C2.01 12 1.02 12 0 12 C0 8.04 0 4.08 0 0 Z " fill="#614BCE" transform="translate(374,277)"/>
<path d="M0 0 C0.99 0 1.98 0 3 0 C3.185625 1.7015625 3.185625 1.7015625 3.375 3.4375 C3.684375 5.2009375 3.684375 5.2009375 4 7 C4.66 7.33 5.32 7.66 6 8 C6 5.36 6 2.72 6 0 C7.32 0 8.64 0 10 0 C10.10824843 1.6026782 10.18570645 3.20745748 10.25 4.8125 C10.29640625 5.70582031 10.3428125 6.59914063 10.390625 7.51953125 C10 10 10 10 8.1875 11.875 C6 13 6 13 2.75 12.1875 C1.38875 11.5996875 1.38875 11.5996875 0 11 C0 7.37 0 3.74 0 0 Z " fill="#5D4ED1" transform="translate(374,319)"/>
<path d="M0 0 C1.32 0 2.64 0 4 0 C4.33 0.66 4.66 1.32 5 2 C5.66 1.34 6.32 0.68 7 0 C8.32 0 9.64 0 11 0 C10.60350587 1.79623856 10.18206548 3.58698435 9.75 5.375 C9.40195312 6.87160156 9.40195312 6.87160156 9.046875 8.3984375 C8 11 8 11 5.890625 12.3515625 C5.26671875 12.56554687 4.6428125 12.77953125 4 13 C3.32404685 11.58774074 2.65959941 10.16997095 2 8.75 C1.62875 7.96109375 1.2575 7.1721875 0.875 6.359375 C0 4 0 4 0 0 Z " fill="#5D4DD0" transform="translate(542,304)"/>
<path d="M0 0 C2.97 0 5.94 0 9 0 C8.67 2.64 8.34 5.28 8 8 C6.35 8 4.7 8 3 8 C3 9.32 3 10.64 3 12 C2.01 12 1.02 12 0 12 C0 8.04 0 4.08 0 0 Z M3 3 C7 4 7 4 7 4 Z " fill="#5F4CCF" transform="translate(374,291)"/>
<path d="M0 0 C2.92537865 1.12514563 3.8886663 2.24742042 5.4375 4.9375 C5.4375 5.5975 5.4375 6.2575 5.4375 6.9375 C1.1475 6.9375 -3.1425 6.9375 -7.5625 6.9375 C-6.5625 2.9375 -6.5625 2.9375 -4.8125 1.125 C-2.5625 -0.0625 -2.5625 -0.0625 0 0 Z " fill="#6252C0" transform="translate(813.5625,459.0625)"/>
<path d="M0 0 C2.9375 0.8125 2.9375 0.8125 4.9375 2.8125 C4.9375 4.1325 4.9375 5.4525 4.9375 6.8125 C0.9775 6.8125 -2.9825 6.8125 -7.0625 6.8125 C-5.2785804 -0.32317839 -5.2785804 -0.32317839 0 0 Z " fill="#6252C0" transform="translate(705.0625,459.1875)"/>
<path d="M0 0 C0.928125 0.20625 1.85625 0.4125 2.8125 0.625 C3.4725 2.605 4.1325 4.585 4.8125 6.625 C0.8525 6.625 -3.1075 6.625 -7.1875 6.625 C-6.8575 4.975 -6.5275 3.325 -6.1875 1.625 C-3.1875 -0.375 -3.1875 -0.375 0 0 Z " fill="#6252C0" transform="translate(333.1875,459.375)"/>
<path d="M0 0 C0.75 2.25 0.75 2.25 1 5 C-0.9375 7.3125 -0.9375 7.3125 -3 9 C-4.32 8.34 -5.64 7.68 -7 7 C-7 4.69 -7 2.38 -7 0 C-4.3333581 -1.33332095 -2.83319697 -0.67102033 0 0 Z " fill="#6152C1" transform="translate(573,451)"/>
<path d="M0 0 C1.32 0 2.64 0 4 0 C4 4.62 4 9.24 4 14 C2.68 14 1.36 14 0 14 C0 9.38 0 4.76 0 0 Z " fill="#5E4DCF" transform="translate(876,295)"/>
<path d="M0 0 C0.99 0.33 1.98 0.66 3 1 C3 1.66 3 2.32 3 3 C2.01 3 1.02 3 0 3 C0 2.01 0 1.02 0 0 Z " fill="#6753B9" transform="translate(151,515)"/>
<path d="M0 0 C1.65 0 3.3 0 5 0 C5 0.33 5 0.66 5 1 C3.35 1 1.7 1 0 1 C0 0.67 0 0.34 0 0 Z " fill="#6753B9" transform="translate(271,516)"/>
</svg>
