<?xml version="1.0" encoding="UTF-8"?>
<svg version="1.1" xmlns="http://www.w3.org/2000/svg" width="1314" height="584">
<path d="M0 0 C37.29 0 74.58 0 113 0 C113 2.31 113 4.62 113 7 C116.465 6.505 116.465 6.505 120 6 C119.9690625 4.7934375 119.9690625 4.7934375 119.9375 3.5625 C120 1 120 1 121 0 C122.86885341 -0.09803863 124.74147241 -0.12447182 126.61289555 -0.1241985 C127.84214797 -0.12644579 129.07140038 -0.12869308 130.33790287 -0.13100848 C131.7224411 -0.12844217 133.10697917 -0.12578523 134.49151707 -0.12304783 C135.95252918 -0.12378657 137.41354113 -0.12496419 138.87455258 -0.12654433 C142.9264531 -0.12963399 146.97832881 -0.12642125 151.0302275 -0.12226619 C155.42428617 -0.11884946 159.81834217 -0.12119944 164.21240133 -0.12284368 C171.92578979 -0.12492356 179.63917056 -0.12326323 187.35255814 -0.11920547 C198.82221429 -0.11318837 210.29186555 -0.112868 221.76152299 -0.11374746 C241.05216347 -0.11506366 260.34280053 -0.11171128 279.63344002 -0.10573006 C298.74318521 -0.09982006 317.85292899 -0.09596553 336.96267509 -0.09487724 C338.1493192 -0.0948085 339.3359633 -0.09473976 340.55856632 -0.09466894 C346.5845358 -0.09433062 352.61050529 -0.09402923 358.63647478 -0.09374207 C401.35701606 -0.09163971 444.07755547 -0.08489694 486.7980957 -0.07543945 C528.30948883 -0.06626023 569.82088145 -0.05917407 611.33227539 -0.05493164 C612.61105573 -0.05480011 613.88983606 -0.05466859 615.20736731 -0.05453308 C628.04899802 -0.0532146 640.89062874 -0.05193878 653.73225946 -0.05069422 C679.89388894 -0.04815777 706.05551839 -0.04533651 732.21714783 -0.04234314 C733.42010906 -0.04220585 734.62307028 -0.04206856 735.86248488 -0.04192711 C816.24165736 -0.03272105 896.62082881 -0.01687522 977 0 C977 0.66 977 1.32 977 2 C984.59 2.33 992.18 2.66 1000 3 C1000 6.3 1000 9.6 1000 13 C998.02 13 996.04 13 994 13 C994 14.65 994 16.3 994 18 C988.39 18 982.78 18 977 18 C977 18.66 977 19.32 977 20 C990.365 20.495 990.365 20.495 1004 21 C1004 22.65 1004 24.3 1004 26 C996.74 26 989.48 26 982 26 C982 27.65 982 29.3 982 31 C979.03 31 976.06 31 973 31 C973 32.65 973 34.3 973 36 C979.93 36 986.86 36 994 36 C994 36.99 994 37.98 994 39 C1003.24 39 1012.48 39 1022 39 C1022 40.65 1022 42.3 1022 44 C1022.99 44 1023.98 44 1025 44 C1025 44.99 1025 45.98 1025 47 C1018.07 47 1011.14 47 1004 47 C1004 47.99 1004 48.98 1004 50 C987.83 50 971.66 50 955 50 C955 52.64 955 55.28 955 58 C962.92 58 970.84 58 979 58 C979 58.66 979 59.32 979 60 C979.55647217 59.99476318 980.11294434 59.98952637 980.6862793 59.98413086 C994.49361537 59.87261061 1008.21520864 60.21068679 1022 61 C1022 63.31 1022 65.62 1022 68 C1012.76 68 1003.52 68 994 68 C994 69.32 994 70.64 994 72 C1004.89 72 1015.78 72 1027 72 C1027 73.65 1027 75.3 1027 77 C1017.1 77 1007.2 77 997 77 C997 76.01 997 75.02 997 74 C990.4 74 983.8 74 977 74 C976.67 74.66 976.34 75.32 976 76 C977.98 76 979.96 76 982 76 C982 78.64 982 81.28 982 84 C989.26 84 996.52 84 1004 84 C1004 84.99 1004 85.98 1004 87 C994.1 87 984.2 87 974 87 C974 87.99 974 88.98 974 90 C980.6 90.33 987.2 90.66 994 91 C994 92.32 994 93.64 994 95 C1003.24 95 1012.48 95 1022 95 C1022 95.66 1022 96.32 1022 97 C1014.74 97 1007.48 97 1000 97 C1000 97.66 1000 98.32 1000 99 C1000.99 99 1001.98 99 1003 99 C1003 100.98 1003 102.96 1003 105 C994.09 105 985.18 105 976 105 C976 105.66 976 106.32 976 107 C955.44421137 107.92153723 934.93162795 108.15148634 914.35866344 108.14538372 C909.96709764 108.14517589 905.57553799 108.15073322 901.18397522 108.15544128 C892.62956883 108.16365992 884.07516935 108.16649185 875.52075934 108.16705366 C868.57208201 108.1675319 861.62340692 108.16960178 854.6747303 108.17275429 C834.9338441 108.1815274 815.19296328 108.18617752 795.45207512 108.18542381 C794.39337617 108.18538386 793.33467722 108.1853439 792.24389648 108.18530273 C791.18389614 108.18526185 790.1238958 108.18522097 789.03177423 108.18517885 C771.77641261 108.18477063 754.52107261 108.19439294 737.26571726 108.2084411 C719.50892994 108.22278303 701.75215322 108.22971288 683.99535996 108.22884732 C674.0408623 108.22851519 664.08638749 108.23127137 654.13189507 108.24202538 C645.67892312 108.25110031 637.22598446 108.25332956 628.77300977 108.24651595 C624.46062775 108.24323894 620.14830971 108.24323707 615.83593369 108.2518692 C611.89360331 108.25968024 607.95138824 108.25835878 604.00906087 108.24958507 C602.57916697 108.2480384 601.14926469 108.24990964 599.71938067 108.25544515 C597.78399326 108.26244507 595.84857098 108.25605099 593.91318417 108.24888897 C592.83590681 108.24910634 591.75862945 108.24932371 590.64870733 108.24954766 C588 108 588 108 585 106 C586 105 586 105 588.5625 104.9375 C589.366875 104.958125 590.17125 104.97875 591 105 C591.33 103.02 591.66 101.04 592 99 C589.36 99 586.72 99 584 99 C584 101.64 584 104.28 584 107 C568.80090088 108.015711 553.65457604 108.13145155 538.42578125 108.09765625 C535.91944914 108.09578643 533.41311666 108.0943652 530.90678406 108.09336853 C524.37546747 108.08958773 517.84417385 108.07979644 511.31286621 108.06866455 C504.62199348 108.05779677 497.93111349 108.05385043 491.24023438 108.04882812 C478.16014657 108.03816927 465.08007452 108.02134541 452 108 C452 107.34 452 106.68 452 106 C453.98 106 455.96 106 458 106 C458.33 103.69 458.66 101.38 459 99 C456.36 99 453.72 99 451 99 C451 101.64 451 104.28 451 107 C393.5234461 107.94530243 336.05699562 108.15917147 278.57338166 108.12856841 C270.59920982 108.12477106 262.62505031 108.12618377 254.65087891 108.13037109 C156.60299536 108.18067922 156.60299536 108.18067922 115 107 C115 106.67 115 106.34 115 106 C116.98 106 118.96 106 121 106 C121 103.69 121 101.38 121 99 C118.36 99 115.72 99 113 99 C113 101.64 113 104.28 113 107 C88.35397116 108.25113896 63.70931662 108.11992922 39.03900146 108.06866455 C33.49345284 108.05827057 27.94789939 108.05383317 22.40234375 108.04882812 C11.60155016 108.03823552 0.80077751 108.02126289 -10 108 C-10 107.34 -10 106.68 -10 106 C-7.36 106 -4.72 106 -2 106 C-2 105.34 -2 104.68 -2 104 C7.24 104 16.48 104 26 104 C26 102.68 26 101.36 26 100 C25.01 100 24.02 100 23 100 C23 98.68 23 97.36 23 96 C21.02 96 19.04 96 17 96 C17 94.68 17 93.36 17 92 C10.07 92 3.14 92 -4 92 C-4 89.69 -4 87.38 -4 85 C-1.03 85 1.94 85 5 85 C5 82.36 5 79.72 5 77 C2.69 77 0.38 77 -2 77 C-2 75.35 -2 73.7 -2 72 C4.27 72 10.54 72 17 72 C17 70.35 17 68.7 17 67 C25.91 66.67 34.82 66.34 44 66 C44 65.01 44 64.02 44 63 C30.14 62.34 16.28 61.68 2 61 C2 60.34 2 59.68 2 59 C-6.25 59 -14.5 59 -23 59 C-23 55.7 -23 52.4 -23 49 C-6.83 49 9.34 49 26 49 C26.33 48.01 26.66 47.02 27 46 C32.94 45.67 38.88 45.34 45 45 C44.505 43.02 44.505 43.02 44 41 C35.09 41 26.18 41 17 41 C16.67 40.01 16.34 39.02 16 38 C9.73 38 3.46 38 -3 38 C-3.66 39.98 -4.32 41.96 -5 44 C-15.56 44 -26.12 44 -37 44 C-37 41.36 -37 38.72 -37 36 C-26.44 36 -15.88 36 -5 36 C-5 35.01 -5 34.02 -5 33 C-11.93 32.67 -18.86 32.34 -26 32 C-26 31.34 -26 30.68 -26 30 C-15.77 30 -5.54 30 5 30 C5 28.35 5 26.7 5 25 C15.395 24.505 15.395 24.505 26 24 C26 23.34 26 22.68 26 22 C17.09 22 8.18 22 -1 22 C-1 20.02 -1 18.04 -1 16 C4.94 16 10.88 16 17 16 C17 15.34 17 14.68 17 14 C9.74 14 2.48 14 -5 14 C-5 13.34 -5 12.68 -5 12 C4.24 12 13.48 12 23 12 C23 9.36 23 6.72 23 4 C14.75 4 6.5 4 -2 4 C-1.34 2.68 -0.68 1.36 0 0 Z M966 9 C966 11.31 966 13.62 966 16 C968.64 16 971.28 16 974 16 C974 13.69 974 11.38 974 9 C971.36 9 968.72 9 966 9 Z M484.1875 28.6875 C482.55966752 31.85748956 482.7976498 34.49259658 483 38 C481.35 38 479.7 38 478 38 C478 39.32 478 40.64 478 42 C479.65 42 481.3 42 483 42 C483 50.25 483 58.5 483 67 C485.31 67 487.62 67 490 67 C490 58.75 490 50.5 490 42 C491.98 42 493.96 42 496 42 C496 40.68 496 39.36 496 38 C494.02 38 492.04 38 490 38 C490.33 35.69 490.66 33.38 491 31 C492.65 30.67 494.3 30.34 496 30 C495.67 28.35 495.34 26.7 495 25 C490.40136983 25 487.59227084 25.51754094 484.1875 28.6875 Z M155 27 C154.67 30.63 154.34 34.26 154 38 C152.35 38 150.7 38 149 38 C149 39.32 149 40.64 149 42 C150.32 42 151.64 42 153 42 C152.96519531 43.50240234 152.96519531 43.50240234 152.9296875 45.03515625 C152.91091211 46.37759664 152.89271382 47.72004518 152.875 49.0625 C152.85179687 50.37347656 152.82859375 51.68445313 152.8046875 53.03515625 C153.00263565 57.05350372 153.56119383 60.2459813 155 64 C158.56550943 66.15276041 160.76923299 67.13093266 164.9375 66.6875 C165.618125 66.460625 166.29875 66.23375 167 66 C167 64.68 167 63.36 167 62 C165.02 61.34 163.04 60.68 161 60 C160.67 54.06 160.34 48.12 160 42 C162.31 42 164.62 42 167 42 C167 40.68 167 39.36 167 38 C164.69 38 162.38 38 160 38 C160 34.37 160 30.74 160 27 C158.35 27 156.7 27 155 27 Z M398 27 C398 40.2 398 53.4 398 67 C400.31 67 402.62 67 405 67 C405 62.38 405 57.76 405 53 C409.06708775 54.35569592 409.84026563 56.42536024 412.125 60 C414.32449891 63.68241684 414.32449891 63.68241684 417 67 C419.67058851 67.14115161 422.32432238 67.04247107 425 67 C421.43120211 61.59161557 417.79801861 56.25020219 414 51 C415.43946247 47.76484444 417.24473584 45.42295431 419.625 42.8125 C421.92718896 40.70107401 421.92718896 40.70107401 423 38 C418.65616727 37.57044917 416.66687919 37.49190157 413.12890625 40.1875 C412.28199219 41.115625 411.43507813 42.04375 410.5625 43 C409.056875 44.65 407.55125 46.3 406 48 C405.67 41.07 405.34 34.14 405 27 C402.69 27 400.38 27 398 27 Z M431.8125 29.375 C426.76215531 38.44026306 425.20312484 49.01508821 427.796875 59.09765625 C428.74838894 61.81679031 429.75535294 64.40247569 431 67 C431.62455078 68.3921875 431.62455078 68.3921875 432.26171875 69.8125 C432.83535156 70.534375 433.40898438 71.25625 434 72 C437.12635209 72.41746608 437.12635209 72.41746608 440 72 C439.6390625 71.1028125 439.278125 70.205625 438.90625 69.28125 C433.23889225 54.40292327 433.60314523 41.62138234 440 27 C435.31249841 26.54383572 435.31249841 26.54383572 431.8125 29.375 Z M449 30 C447.22343227 33.174011 447.22343227 33.174011 447 37 C448.00396582 39.8857711 449.37688679 42.41777443 451 45 C450.236875 45.2475 449.47375 45.495 448.6875 45.75 C445.64778565 47.16382063 444.61622203 48.09080035 443 51 C441.86063213 54.74363729 441.81106515 56.4928591 443.1875 60.1875 C445.97549197 64.51369444 447.63790817 65.67679177 452.6875 66.875 C456.88244741 67.29841525 460.07610298 66.19846063 463.921875 64.59375 C466.3733968 63.8933152 467.61544718 64.18685751 470 65 C472.05925139 65.72382467 472.05925139 65.72382467 474 66 C474.66 65.34 475.32 64.68 476 64 C474.68 62.35 473.36 60.7 472 59 C472.53625 58.2575 473.0725 57.515 473.625 56.75 C474.305625 55.38875 474.305625 55.38875 475 54 C474.30859649 51.69712207 474.30859649 51.69712207 473 50 C472.34 50 471.68 50 471 50 C470.01 52.475 470.01 52.475 469 55 C467.70145279 53.92492371 466.41141639 52.83956264 465.125 51.75 C464.40570312 51.14671875 463.68640625 50.5434375 462.9453125 49.921875 C461.02947882 48.02912366 460.03550955 46.46342273 459 44 C459.763125 43.79375 460.52625 43.5875 461.3125 43.375 C464.94667737 41.51565344 465.74341186 39.84368136 467 36 C466.75 32.75 466.75 32.75 465 30 C459.32341427 26.21560951 454.40679342 25.46998389 449 30 Z M533 27 C532.67 30.63 532.34 34.26 532 38 C530.35 38 528.7 38 527 38 C527 39.32 527 40.64 527 42 C528.32 42 529.64 42 531 42 C530.96519531 43.50240234 530.96519531 43.50240234 530.9296875 45.03515625 C530.91091211 46.37759664 530.89271382 47.72004518 530.875 49.0625 C530.85179687 50.37347656 530.82859375 51.68445313 530.8046875 53.03515625 C531.00263565 57.05350372 531.56119383 60.2459813 533 64 C536.56550943 66.15276041 538.76923299 67.13093266 542.9375 66.6875 C543.618125 66.460625 544.29875 66.23375 545 66 C545 64.68 545 63.36 545 62 C543.02 61.34 541.04 60.68 539 60 C538.67 54.06 538.34 48.12 538 42 C540.31 42 542.62 42 545 42 C545 40.68 545 39.36 545 38 C542.69 38 540.38 38 538 38 C538 34.37 538 30.74 538 27 C536.35 27 534.7 27 533 27 Z M678 27 C678 31.62 678 36.24 678 41 C676.96875 40.319375 675.9375 39.63875 674.875 38.9375 C672.21041469 37.43632518 671.08488089 37.00173226 667.9375 36.9375 C663.0735444 38.69680309 659.87283577 41.17497975 657.625 45.875 C656.37446096 52.12769522 656.48908728 56.55203198 660 62 C663.41921674 65.41921674 666.12541271 66.8984461 671 67 C673.32731556 65.86220128 675.16840714 64.83159286 677 63 C677.33 64.32 677.66 65.64 678 67 C680.31 67 682.62 67 685 67 C685 53.8 685 40.6 685 27 C682.69 27 680.38 27 678 27 Z M692 27 C692 28.98 692 30.96 692 33 C694.31 33 696.62 33 699 33 C699 31.02 699 29.04 699 27 C696.69 27 694.38 27 692 27 Z M780 27 C779.67 30.63 779.34 34.26 779 38 C777.35 38 775.7 38 774 38 C774 39.32 774 40.64 774 42 C775.32 42 776.64 42 778 42 C777.96519531 43.50240234 777.96519531 43.50240234 777.9296875 45.03515625 C777.91091211 46.37759664 777.89271382 47.72004518 777.875 49.0625 C777.85179687 50.37347656 777.82859375 51.68445313 777.8046875 53.03515625 C778.00263565 57.05350372 778.56119383 60.2459813 780 64 C783.56550943 66.15276041 785.76923299 67.13093266 789.9375 66.6875 C790.618125 66.460625 791.29875 66.23375 792 66 C792 64.68 792 63.36 792 62 C790.02 61.34 788.04 60.68 786 60 C785.67 54.06 785.34 48.12 785 42 C787.31 42 789.62 42 792 42 C792 40.68 792 39.36 792 38 C789.69 38 787.38 38 785 38 C785 34.37 785 30.74 785 27 C783.35 27 781.7 27 780 27 Z M798 27 C798 28.98 798 30.96 798 33 C800.31 33 802.62 33 805 33 C805 31.02 805 29.04 805 27 C802.69 27 800.38 27 798 27 Z M896 27 C896.19335938 27.556875 896.38671875 28.11375 896.5859375 28.6875 C901.59581847 43.36992343 901.7238443 52.93681777 897 68 C896.65351734 69.32997694 896.31313075 70.66177804 896 72 C897.98 72 899.96 72 902 72 C907.68351602 60.39434705 910.8753436 50.7686346 907.10546875 37.9609375 C905.70154375 33.97526278 904.35102428 30.52653642 902 27 C898.91634129 26.7497843 898.91634129 26.7497843 896 27 Z M325 28 C324.95021167 32.0018325 324.91409836 36.00354265 324.89013672 40.00561523 C324.88013757 41.36437118 324.86653376 42.72310594 324.84912109 44.08178711 C324.82460406 46.04531296 324.81453038 48.00900201 324.8046875 49.97265625 C324.79421387 51.15093994 324.78374023 52.32922363 324.77294922 53.54321289 C325.02063492 57.31416118 325.70396706 60.45154557 327 64 C330.21162346 66.28382113 331.93738091 67.11550208 335.875 66.6875 C336.57625 66.460625 337.2775 66.23375 338 66 C338 64.68 338 63.36 338 62 C336.35 61.34 334.7 60.68 333 60 C332.67 49.44 332.34 38.88 332 28 C329.69 28 327.38 28 325 28 Z M45 31 C45 33.64 45 36.28 45 39 C47.64 39 50.28 39 53 39 C53 36.36 53 33.72 53 31 C50.36 31 47.72 31 45 31 Z M303.8125 39 C302.73935547 39.556875 302.73935547 39.556875 301.64453125 40.125 C301.10183594 40.41375 300.55914062 40.7025 300 41 C299.34 40.01 298.68 39.02 298 38 C296.35 38 294.7 38 293 38 C293 47.57 293 57.14 293 67 C295.31 67 297.62 67 300 67 C300.33 59.41 300.66 51.82 301 44 C305.455 43.505 305.455 43.505 310 43 C311.68300669 44.68300669 311.22809077 46.82008727 311.31640625 49.12890625 C311.35830078 50.16337891 311.40019531 51.19785156 311.44335938 52.26367188 C311.48267578 53.35228516 311.52199219 54.44089844 311.5625 55.5625 C311.60568359 56.65498047 311.64886719 57.74746094 311.69335938 58.87304688 C311.79982068 61.58189564 311.90183516 64.29083992 312 67 C314.31 67 316.62 67 319 67 C319.08761663 63.45849107 319.14059739 59.91726367 319.1875 56.375 C319.21263672 55.37597656 319.23777344 54.37695312 319.26367188 53.34765625 C319.31844184 47.83414677 319.25484675 43.70058629 316 39 C311.39390257 36.46664641 308.37683694 36.60559374 303.8125 39 Z M852.8125 39 C851.73935547 39.556875 851.73935547 39.556875 850.64453125 40.125 C850.10183594 40.41375 849.55914063 40.7025 849 41 C848.34 40.01 847.68 39.02 847 38 C845.35 38 843.7 38 842 38 C842 47.57 842 57.14 842 67 C844.31 67 846.62 67 849 67 C849.33 59.41 849.66 51.82 850 44 C854.455 43.505 854.455 43.505 859 43 C860.68300669 44.68300669 860.22809077 46.82008727 860.31640625 49.12890625 C860.35830078 50.16337891 860.40019531 51.19785156 860.44335938 52.26367188 C860.48267578 53.35228516 860.52199219 54.44089844 860.5625 55.5625 C860.60568359 56.65498047 860.64886719 57.74746094 860.69335938 58.87304688 C860.79982068 61.58189564 860.90183516 64.29083992 861 67 C863.31 67 865.62 67 868 67 C868.08761663 63.45849107 868.14059739 59.91726367 868.1875 56.375 C868.21263672 55.37597656 868.23777344 54.37695312 868.26367188 53.34765625 C868.31844184 47.83414677 868.25484675 43.70058629 865 39 C860.39390257 36.46664641 857.37683694 36.60559374 852.8125 39 Z M914 37 C914 39.31 914 41.62 914 44 C916.31 44 918.62 44 921 44 C921 41.69 921 39.38 921 37 C918.69 37 916.38 37 914 37 Z M80 40 C79.67 40.33 79.34 40.66 79 41 C78.34 40.01 77.68 39.02 77 38 C75.35 38 73.7 38 72 38 C72 47.57 72 57.14 72 67 C74.31 67 76.62 67 79 67 C79.01458252 66.34402832 79.02916504 65.68805664 79.04418945 65.01220703 C79.11851414 62.04919969 79.21522369 59.08733883 79.3125 56.125 C79.34633789 54.57619141 79.34633789 54.57619141 79.38085938 52.99609375 C79.41630859 52.00996094 79.45175781 51.02382813 79.48828125 50.0078125 C79.51446533 49.09660645 79.54064941 48.18540039 79.56762695 47.24658203 C79.71031006 46.50520996 79.85299316 45.76383789 80 45 C83.22213757 42.85190829 84.27775401 42.70613847 88 43 C89.68300669 44.68300669 89.22809077 46.82008727 89.31640625 49.12890625 C89.35830078 50.16337891 89.40019531 51.19785156 89.44335938 52.26367188 C89.48267578 53.35228516 89.52199219 54.44089844 89.5625 55.5625 C89.60568359 56.65498047 89.64886719 57.74746094 89.69335938 58.87304688 C89.79982068 61.58189564 89.90183516 64.29083992 90 67 C92.31 67 94.62 67 97 67 C97.01458252 66.37955811 97.02916504 65.75911621 97.04418945 65.11987305 C97.11866588 62.30845367 97.21532564 59.49822251 97.3125 56.6875 C97.33505859 55.71103516 97.35761719 54.73457031 97.38085938 53.72851562 C97.41630859 52.79072266 97.45175781 51.85292969 97.48828125 50.88671875 C97.51446533 50.02264404 97.54064941 49.15856934 97.56762695 48.26831055 C98.08482493 45.55499241 98.79485673 44.6259682 101 43 C103.6875 42.8125 103.6875 42.8125 106 43 C107.23060421 45.46120841 107.2057723 47.25776866 107.31640625 50.0078125 C107.35830078 50.99394531 107.40019531 51.98007812 107.44335938 52.99609375 C107.48267578 54.02863281 107.52199219 55.06117188 107.5625 56.125 C107.60568359 57.16527344 107.64886719 58.20554687 107.69335938 59.27734375 C107.7996288 61.85142528 107.90166583 64.42560508 108 67 C110.31 67 112.62 67 115 67 C115.08797281 63.81267746 115.14071341 60.62567212 115.1875 57.4375 C115.21263672 56.54224609 115.23777344 55.64699219 115.26367188 54.72460938 C115.32649645 49.00757303 114.76749717 45.03843384 112 40 C109.17625519 37.55784233 107.79572433 36.9830697 104.0625 37.0625 C100.51698066 38.14786306 97.97111903 39.80703119 95 42 C94.773125 41.360625 94.54625 40.72125 94.3125 40.0625 C93.16495773 37.83788007 93.16495773 37.83788007 90.875 37.0625 C86.84880669 36.97497406 83.61333509 38.29464092 80 40 Z M121 38 C120.88345564 41.5622231 120.8126361 45.12395342 120.75 48.6875 C120.71648437 49.69490234 120.68296875 50.70230469 120.6484375 51.74023438 C120.56046841 57.67798603 120.56046841 57.67798603 122.71875 63.11328125 C126.49626808 66.23749569 130.17406871 66.81911802 135 67 C138.09626652 66.58889907 140.58396406 66.01429324 143 64 C146.22597723 58.32876149 146.37798611 53.48530077 146.1875 47.0625 C146.17396484 46.18787109 146.16042969 45.31324219 146.14648438 44.41210938 C146.11144109 42.27446914 146.05764541 40.13715016 146 38 C143.69 38 141.38 38 139 38 C138.67 45.59 138.34 53.18 138 61 C135.36 61 132.72 61 130 61 C128.34920558 59.34920558 128.77450553 57.36263821 128.68359375 55.08984375 C128.62075195 53.60581055 128.62075195 53.60581055 128.55664062 52.09179688 C128.51732422 51.05087891 128.47800781 50.00996094 128.4375 48.9375 C128.39431641 47.89271484 128.35113281 46.84792969 128.30664062 45.77148438 C128.20018775 43.18113116 128.0981724 40.59067814 128 38 C125.69 38 123.38 38 121 38 Z M176 40 C172.57161758 43.6088236 171.13472695 46.24854969 170.75 51.25 C171.10779104 56.61686563 172.52626169 60.35288071 176.125 64.375 C180.04417672 66.59018684 183.51012378 67.22946556 188 67 C190.58503066 66.25331838 192.60486558 65.27400767 195 64 C194.67 62.68 194.34 61.36 194 60 C193.505 60.165 193.01 60.33 192.5 60.5 C188.38220894 61.32355821 183.7752731 62.08807061 180.0625 59.8125 C179 58 179 58 178 53 C184.27 53 190.54 53 197 53 C196.44891405 45.58877732 196.44891405 45.58877732 193 40 C186.17510329 36.46567849 182.8281793 36.52601404 176 40 Z M200 38 C200.76697796 39.41875765 201.53876778 40.83491452 202.3125 42.25 C202.74175781 43.03890625 203.17101562 43.8278125 203.61328125 44.640625 C204.92006758 47.04584186 204.92006758 47.04584186 206.79296875 48.984375 C207.19128906 49.64953125 207.58960938 50.3146875 208 51 C207.06657923 54.71595991 205.060621 57.57800539 202.875 60.6875 C200.63673812 63.58167089 200.63673812 63.58167089 200 67 C203.24210519 67.83787121 203.24210519 67.83787121 207 67 C209.49515761 63.91488105 211.26536376 60.55822819 213 57 C215.11422094 59.55164597 216.9054612 61.79741685 218.3125 64.8125 C218.869375 65.534375 219.42625 66.25625 220 67 C223.62599422 67.41725678 223.62599422 67.41725678 227 67 C225.36461001 62.4465612 222.97177978 59.09167641 220.046875 55.28125 C219 53 219 53 219.6328125 50.515625 C221.0094134 47.98267934 222.48046862 45.61748962 224.125 43.25 C226.0965702 40.83239771 226.0965702 40.83239771 227 38 C223.71256453 37.33076238 223.71256453 37.33076238 220 38 C217.44648935 40.76841006 215 44.13887863 215 48 C212.50377467 45.68207647 210.86348172 43.75520861 209.1875 40.75 C208.465625 39.8425 207.74375 38.935 207 38 C203.33142278 37.49874717 203.33142278 37.49874717 200 38 Z M262 38 C261.88345564 41.5622231 261.8126361 45.12395342 261.75 48.6875 C261.71648437 49.69490234 261.68296875 50.70230469 261.6484375 51.74023438 C261.56046841 57.67798603 261.56046841 57.67798603 263.71875 63.11328125 C267.49626808 66.23749569 271.17406871 66.81911802 276 67 C279.09626652 66.58889907 281.58396406 66.01429324 284 64 C287.22597723 58.32876149 287.37798611 53.48530077 287.1875 47.0625 C287.17396484 46.18787109 287.16042969 45.31324219 287.14648438 44.41210938 C287.11144109 42.27446914 287.05764541 40.13715016 287 38 C284.69 38 282.38 38 280 38 C279.67 45.59 279.34 53.18 279 61 C276.36 61 273.72 61 271 61 C269.34920558 59.34920558 269.77450553 57.36263821 269.68359375 55.08984375 C269.62075195 53.60581055 269.62075195 53.60581055 269.55664062 52.09179688 C269.51732422 51.05087891 269.47800781 50.00996094 269.4375 48.9375 C269.39431641 47.89271484 269.35113281 46.84792969 269.30664062 45.77148438 C269.20018775 43.18113116 269.0981724 40.59067814 269 38 C266.69 38 264.38 38 262 38 Z M346 40 C342.01579377 44.08905376 341.16033558 46.83546966 340.75 52.375 C341.1081459 57.56811555 342.63600777 60.5981191 346.25 64.3125 C349.68542624 66.42060246 351.9678164 66.93047959 356 67 C361.19283668 65.41574474 364.03828594 63.55648317 367 59 C368.63509159 54.09472524 368.39374496 50.22268173 366.8125 45.3125 C364.85632852 41.73742798 363.49588757 40.06575174 360 38 C354.39549401 36.44319278 351.03683123 37.14896345 346 40 Z M377 40 C373.57161758 43.6088236 372.13472695 46.24854969 371.75 51.25 C372.10917734 56.63766014 373.51335439 60.38592762 377.1875 64.375 C380.79556836 66.45966172 383.84651261 67.10525407 388 67 C391.3815339 66.18156968 391.3815339 66.18156968 394 65 C393.67 63.68 393.34 62.36 393 61 C391.96939453 61.05220703 391.96939453 61.05220703 390.91796875 61.10546875 C390.01691406 61.13253906 389.11585938 61.15960937 388.1875 61.1875 C386.84751953 61.23970703 386.84751953 61.23970703 385.48046875 61.29296875 C383 61 383 61 381.203125 59.86328125 C379.48835147 57.20760925 379.56634599 55.13832793 379.5625 52 C379.53349609 50.4221875 379.53349609 50.4221875 379.50390625 48.8125 C380 46 380 46 381.73046875 44.10546875 C384.43275498 42.78920885 385.8087943 42.83671673 388.75 43.3125 C389.54921875 43.43238281 390.3484375 43.55226563 391.171875 43.67578125 C391.77515625 43.78277344 392.3784375 43.88976562 393 44 C393 42.35 393 40.7 393 39 C386.76283431 37.03409063 382.87341093 36.42988747 377 40 Z M499 38 C498.88345564 41.5622231 498.8126361 45.12395342 498.75 48.6875 C498.71648438 49.69490234 498.68296875 50.70230469 498.6484375 51.74023438 C498.56046841 57.67798603 498.56046841 57.67798603 500.71875 63.11328125 C504.49626808 66.23749569 508.17406871 66.81911802 513 67 C516.09626652 66.58889907 518.58396406 66.01429324 521 64 C524.22597723 58.32876149 524.37798611 53.48530077 524.1875 47.0625 C524.17396484 46.18787109 524.16042969 45.31324219 524.14648438 44.41210938 C524.11144109 42.27446914 524.05764541 40.13715016 524 38 C521.69 38 519.38 38 517 38 C516.67 45.59 516.34 53.18 516 61 C513.36 61 510.72 61 508 61 C506.34920558 59.34920558 506.77450553 57.36263821 506.68359375 55.08984375 C506.62075195 53.60581055 506.62075195 53.60581055 506.55664062 52.09179688 C506.51732422 51.05087891 506.47800781 50.00996094 506.4375 48.9375 C506.39431641 47.89271484 506.35113281 46.84792969 506.30664062 45.77148438 C506.20018775 43.18113116 506.0981724 40.59067814 506 38 C503.69 38 501.38 38 499 38 Z M550 38 C549.88345564 41.5622231 549.8126361 45.12395342 549.75 48.6875 C549.71648438 49.69490234 549.68296875 50.70230469 549.6484375 51.74023438 C549.56046841 57.67798603 549.56046841 57.67798603 551.71875 63.11328125 C555.49626808 66.23749569 559.17406871 66.81911802 564 67 C567.09626652 66.58889907 569.58396406 66.01429324 572 64 C575.22597723 58.32876149 575.37798611 53.48530077 575.1875 47.0625 C575.17396484 46.18787109 575.16042969 45.31324219 575.14648438 44.41210938 C575.11144109 42.27446914 575.05764541 40.13715016 575 38 C572.69 38 570.38 38 568 38 C567.67 45.59 567.34 53.18 567 61 C564.36 61 561.72 61 559 61 C557.34920558 59.34920558 557.77450553 57.36263821 557.68359375 55.08984375 C557.62075195 53.60581055 557.62075195 53.60581055 557.55664062 52.09179688 C557.51732422 51.05087891 557.47800781 50.00996094 557.4375 48.9375 C557.39431641 47.89271484 557.35113281 46.84792969 557.30664062 45.77148438 C557.20018775 43.18113116 557.0981724 40.59067814 557 38 C554.69 38 552.38 38 550 38 Z M581 38 C581 47.57 581 57.14 581 67 C583.31 67 585.62 67 588 67 C588.33 60.07 588.66 53.14 589 46 C591.31 45.01 593.62 44.02 596 43 C596 41.35 596 39.7 596 38 C591.92035719 39.30155006 591.92035719 39.30155006 588 41 C587.67 40.01 587.34 39.02 587 38 C585.02 38 583.04 38 581 38 Z M602 40 C598.57161758 43.6088236 597.13472695 46.24854969 596.75 51.25 C597.10779104 56.61686563 598.52626169 60.35288071 602.125 64.375 C606.04417672 66.59018684 609.51012378 67.22946556 614 67 C616.58503066 66.25331838 618.60486558 65.27400767 621 64 C620.67 62.68 620.34 61.36 620 60 C619.505 60.165 619.01 60.33 618.5 60.5 C614.38220894 61.32355821 609.7752731 62.08807061 606.0625 59.8125 C605 58 605 58 604 53 C610.27 53 616.54 53 623 53 C622.44891405 45.58877732 622.44891405 45.58877732 619 40 C612.17510329 36.46567849 608.8281793 36.52601404 602 40 Z M692 38 C692 47.57 692 57.14 692 67 C694.31 67 696.62 67 699 67 C699 57.43 699 47.86 699 38 C696.69 38 694.38 38 692 38 Z M705 38 C705 47.57 705 57.14 705 67 C707.31 67 709.62 67 712 67 C712.33 60.07 712.66 53.14 713 46 C715.31 45.01 717.62 44.02 720 43 C720 41.35 720 39.7 720 38 C715.92035719 39.30155006 715.92035719 39.30155006 712 41 C711.67 40.01 711.34 39.02 711 38 C709.02 38 707.04 38 705 38 Z M726 40 C722.57161758 43.6088236 721.13472695 46.24854969 720.75 51.25 C721.10779104 56.61686563 722.52626169 60.35288071 726.125 64.375 C730.04417672 66.59018684 733.51012378 67.22946556 738 67 C740.58503066 66.25331838 742.60486558 65.27400767 745 64 C744.67 62.68 744.34 61.36 744 60 C743.505 60.165 743.01 60.33 742.5 60.5 C738.38220894 61.32355821 733.7752731 62.08807061 730.0625 59.8125 C729 58 729 58 728 53 C734.27 53 740.54 53 747 53 C746.44891405 45.58877732 746.44891405 45.58877732 743 40 C736.17510329 36.46567849 732.8281793 36.52601404 726 40 Z M756 40 C752.57161758 43.6088236 751.13472695 46.24854969 750.75 51.25 C751.10917734 56.63766014 752.51335439 60.38592762 756.1875 64.375 C759.79556836 66.45966172 762.84651261 67.10525407 767 67 C770.3815339 66.18156968 770.3815339 66.18156968 773 65 C772.67 63.68 772.34 62.36 772 61 C770.96939453 61.05220703 770.96939453 61.05220703 769.91796875 61.10546875 C769.01691406 61.13253906 768.11585938 61.15960937 767.1875 61.1875 C765.84751953 61.23970703 765.84751953 61.23970703 764.48046875 61.29296875 C762 61 762 61 760.203125 59.86328125 C758.48835147 57.20760925 758.56634599 55.13832793 758.5625 52 C758.53349609 50.4221875 758.53349609 50.4221875 758.50390625 48.8125 C759 46 759 46 760.73046875 44.10546875 C763.43275498 42.78920885 764.8087943 42.83671673 767.75 43.3125 C768.54921875 43.43238281 769.3484375 43.55226563 770.171875 43.67578125 C770.77515625 43.78277344 771.3784375 43.88976562 772 44 C772 42.35 772 40.7 772 39 C765.76283431 37.03409063 761.87341093 36.42988747 756 40 Z M798 38 C798 47.57 798 57.14 798 67 C800.31 67 802.62 67 805 67 C805 57.43 805 47.86 805 38 C802.69 38 800.38 38 798 38 Z M815 40 C811.01579377 44.08905376 810.16033558 46.83546966 809.75 52.375 C810.1081459 57.56811555 811.63600777 60.5981191 815.25 64.3125 C818.68542624 66.42060246 820.9678164 66.93047959 825 67 C830.19283668 65.41574474 833.03828594 63.55648317 836 59 C837.63509159 54.09472524 837.39374496 50.22268173 835.8125 45.3125 C833.85632852 41.73742798 832.49588757 40.06575174 829 38 C823.39549401 36.44319278 820.03683123 37.14896345 815 40 Z M875 40 C873.10081949 42.37397564 872.97385188 43.47703761 873.125 46.5 C874.51239504 50.46398583 876.5227414 52.2588237 880.265625 54.13671875 C882.49488697 55.13568048 884.73335223 56.08946628 887 57 C886.67 58.32 886.34 59.64 886 61 C877.42857143 61.14285714 877.42857143 61.14285714 874 60 C873.67 61.32 873.34 62.64 873 64 C877.18073752 66.78715834 881.03175674 67.03863331 886 67 C889.53932888 66.23239792 889.53932888 66.23239792 892 64 C893.71351807 60.29880097 894.40126504 58.23245692 893.125 54.3125 C889.53652812 50.40739825 884.96477545 48.65492515 880 47 C880 45.68 880 44.36 880 43 C883.63 43 887.26 43 891 43 C891.33 41.68 891.66 40.36 892 39 C885.34256997 37.13806283 881.02356795 36.23527003 875 40 Z M915 60 C914.505 67.425 914.505 67.425 914 75 C915.32 75 916.64 75 918 75 C918.99 70.05 919.98 65.1 921 60 C919.02 60 917.04 60 915 60 Z M231 70 C231 71.32 231 72.64 231 74 C239.58 74 248.16 74 257 74 C257 72.68 257 71.36 257 70 C248.42 70 239.84 70 231 70 Z M627 70 C627 71.32 627 72.64 627 74 C635.58 74 644.16 74 653 74 C653 72.68 653 71.36 653 70 C644.42 70 635.84 70 627 70 Z M6 85 C6 85.33 6 85.66 6 86 C12.6 86 19.2 86 26 86 C26 85.67 26 85.34 26 85 C19.4 85 12.8 85 6 85 Z M621 90 C621 92.31 621 94.62 621 97 C623.64 97 626.28 97 629 97 C629 94.69 629 92.38 629 90 C626.36 90 623.72 90 621 90 Z M205 91 C205 93.31 205 95.62 205 98 C207.97 98 210.94 98 214 98 C214 95.69 214 93.38 214 91 C211.03 91 208.06 91 205 91 Z M963 92 C963 94.31 963 96.62 963 99 C965.97 99 968.94 99 972 99 C972 96.69 972 94.38 972 92 C969.03 92 966.06 92 963 92 Z M196 99 C196 101.31 196 103.62 196 106 C198.64 106 201.28 106 204 106 C204.04254356 104.00045254 204.04080783 101.99958364 204 100 C202.81575674 98.58422523 202.81575674 98.58422523 199.4375 98.9375 C197.7359375 98.9684375 197.7359375 98.9684375 196 99 Z M522 99 C522 101.31 522 103.62 522 106 C524.64 106 527.28 106 530 106 C530 103.69 530 101.38 530 99 C527.36 99 524.72 99 522 99 Z M611 99 C611 101.31 611 103.62 611 106 C613.64 106 616.28 106 619 106 C619 103.69 619 101.38 619 99 C616.36 99 613.72 99 611 99 Z M840 99 C840 101.64 840 104.28 840 107 C841.134375 106.835 842.26875 106.67 843.4375 106.5 C847 106 847 106 848 106 C848 103.69 848 101.38 848 99 C845.36 99 842.72 99 840 99 Z " fill="#FFFFFF" transform="translate(108,457)"/>
<path d="M0 0 C23.76 0 47.52 0 72 0 C73.4746875 5.2696875 74.949375 10.539375 76.46875 15.96875 C86.73539038 52.63688524 97.02909093 89.29583195 107.52734375 125.8984375 C107.80432098 126.86533508 108.08129822 127.83223267 108.3666687 128.82843018 C109.78563484 133.77933848 111.21007168 138.72856614 112.64519787 143.67481804 C113.2109189 145.62637763 113.77489786 147.57843192 114.33827209 149.53067017 C115.06068745 152.03287832 115.78618777 154.53419835 116.51512146 157.03451538 C116.83956741 158.16088409 117.16401337 159.28725281 117.49829102 160.44775391 C117.78849625 161.44835846 118.07870148 162.44896301 118.37770081 163.47988892 C119 166 119 166 119 169 C127.91 168.67 136.82 168.34 146 168 C147.08152344 164.21273437 148.16304687 160.42546875 149.27734375 156.5234375 C151.96847562 147.10182015 154.66350102 137.68132884 157.36265469 128.26200676 C160.09784553 118.71688412 162.83084482 109.17113507 165.5625 99.625 C165.9543643 98.25573238 165.9543643 98.25573238 166.35414505 96.8588028 C173.95166281 70.30821129 181.47858785 43.74081911 188.79711914 17.11181641 C189.08124664 16.080224 189.36537415 15.04863159 189.65811157 13.98577881 C190.17822265 12.09606486 190.69649057 10.20584218 191.2124939 8.31500244 C191.54804794 7.09535797 191.54804794 7.09535797 191.89038086 5.85107422 C192.17817665 4.79882156 192.17817665 4.79882156 192.4717865 3.72531128 C193 2 193 2 194 0 C215.78 0 237.56 0 260 0 C260 66.99 260 133.98 260 203 C261.32 203 262.64 203 264 203 C264 215.21 264 227.42 264 240 C274.56 240 285.12 240 296 240 C296 242.64 296 245.28 296 248 C285.44 248 274.88 248 264 248 C264 269.78 264 291.56 264 314 C245.52 314 227.04 314 208 314 C208 305.75 208 297.5 208 289 C209.98 289 211.96 289 214 289 C214 264.58 214 240.16 214 215 C210.37 215 206.74 215 203 215 C203 202.46 203 189.92 203 177 C199.535 177.99 199.535 177.99 196 179 C194.02 179 192.04 179 190 179 C190 196.82 190 214.64 190 233 C183.73 233 177.46 233 171 233 C171 241.25 171 249.5 171 258 C165.72 258 160.44 258 155 258 C155 271.86 155 285.72 155 300 C141.8 300 128.6 300 115 300 C115 291.09 115 282.18 115 273 C107.08 273 99.16 273 91 273 C91 260.79 91 248.58 91 236 C86.38 236 81.76 236 77 236 C77 223.13 77 210.26 77 197 C74.36 197 71.72 197 69 197 C64 182.3 64 182.3 64 177 C61.69 177 59.38 177 57 177 C57 192.84 57 208.68 57 225 C58.32 225 59.64 225 61 225 C61 243.15 61 261.3 61 280 C56.38 280 51.76 280 47 280 C47 282.64 47 285.28 47 288 C51.62 288 56.24 288 61 288 C61 292.95 61 297.9 61 303 C44.17 303 27.34 303 10 303 C10 281.88 10 260.76 10 239 C6.7 239 3.4 239 0 239 C0 160.13 0 81.26 0 0 Z M202 153 C201.01 158.28 200.02 163.56 199 169 C200.32 169 201.64 169 203 169 C203 163.72 203 158.44 203 153 C202.67 153 202.34 153 202 153 Z M57 154 C57 158.95 57 163.9 57 169 C58.32 169 59.64 169 61 169 C60.01 164.05 59.02 159.1 58 154 C57.67 154 57.34 154 57 154 Z M39 170 C39 171.98 39 173.96 39 176 C44.61 176 50.22 176 56 176 C56 174.02 56 172.04 56 170 C50.39 170 44.78 170 39 170 Z M63 170 C63.33 171.98 63.66 173.96 64 176 C82.15 176 100.3 176 119 176 C118.505 173.03 118.505 173.03 118 170 C99.85 170 81.7 170 63 170 Z M147 171 C147 172.65 147 174.3 147 176 C163.17 176 179.34 176 196 176 C196.33 174.02 196.66 172.04 197 170 C190.03996553 169.97473162 183.0799428 169.95716778 176.11987305 169.94506836 C173.75007688 169.94002659 171.38028385 169.93319335 169.01049805 169.92456055 C165.61245961 169.9124881 162.21446215 169.90677029 158.81640625 169.90234375 C157.74975235 169.89718246 156.68309845 169.89202118 155.5841217 169.88670349 C154.60318039 169.88662796 153.62223907 169.88655243 152.61157227 169.88647461 C151.74331314 169.884254 150.87505402 169.88203339 149.98048401 169.87974548 C147.99856319 169.78045333 147.99856319 169.78045333 147 171 Z M204 170 C204 171.98 204 173.96 204 176 C216.21 176 228.42 176 241 176 C241 174.02 241 172.04 241 170 C228.79 170 216.58 170 204 170 Z M122 177 C122.76091924 183.84827314 123.16974352 187.21643241 126 193 C127.98 193 129.96 193 132 193 C132 202.24 132 211.48 132 221 C135.3 221 138.6 221 142 221 C142 206.81 142 192.62 142 178 C142.66 177.67 143.32 177.34 144 177 C136.74 177 129.48 177 122 177 Z M244 241 C244 242.98 244 244.96 244 247 C250.27 247 256.54 247 263 247 C263 245.02 263 243.04 263 241 C256.73 241 250.46 241 244 241 Z " fill="#FFFFFF" transform="translate(75,42)"/>
<path d="M0 0 C20.46 0 40.92 0 62 0 C62 54.78 62 109.56 62 166 C73.22 166 84.44 166 96 166 C96 169.3 96 172.6 96 176 C84.78 176 73.56 176 62 176 C62.07468955 182.24044059 62.15812801 188.47962351 62.26245117 194.71948242 C62.2953426 196.83432079 62.32348085 198.94923942 62.34643555 201.06420898 C62.17107363 227.29462415 62.17107363 227.29462415 72 251 C74.48693373 253.21385866 76.96011504 254.67005033 80 256 C80.845625 256.4125 81.69125 256.825 82.5625 257.25 C92.30502563 260.2477002 104.57550951 259.57161407 114 260 C114 241.85 114 223.7 114 205 C119.28 205 124.56 205 130 205 C130 137.35 130 69.7 130 0 C150.13 0 170.26 0 191 0 C191 64.02 191 128.04 191 194 C184.07 194 177.14 194 170 194 C170 198.29 170 202.58 170 207 C176.93 207 183.86 207 191 207 C191 230.76 191 254.52 191 279 C180.44 279 169.88 279 159 279 C159 290.55 159 302.1 159 314 C112.47 314 65.94 314 18 314 C18 299.81 18 285.62 18 271 C13.71 271 9.42 271 5 271 C5 228.1 5 185.2 5 141 C3.35 141 1.7 141 0 141 C0 94.47 0 47.94 0 0 Z M33 167 C33 169.64 33 172.28 33 175 C42.24 175 51.48 175 61 175 C61 172.36 61 169.72 61 167 C51.76 167 42.52 167 33 167 Z " fill="#FFFFFF" transform="translate(372,42)"/>
<path d="M0 0 C21.12 0 42.24 0 64 0 C64.99 8.91 65.98 17.82 67 27 C69.77209838 35.31629514 72.38721497 42.17627522 76.625 49.625 C77.15279053 50.5722998 77.68058105 51.51959961 78.22436523 52.49560547 C79.29909291 54.42264764 80.37805853 56.3473329 81.46142578 58.26953125 C83.27451816 61.48718044 85.06593484 64.71647735 86.85546875 67.94726562 C88.05551785 70.11240276 89.25983764 72.27511849 90.46484375 74.4375 C95.01078334 82.60607006 99.49971257 90.80622704 104 99 C104.55349121 97.88778076 105.10698242 96.77556152 105.67724609 95.62963867 C107.78119489 91.40329447 109.8880192 87.1783887 111.99560547 82.95385742 C112.89805245 81.14401198 113.79977455 79.33380485 114.70068359 77.52319336 C120.29818152 66.2750369 126.00245614 55.09499106 131.89306641 43.99731445 C139.52837818 29.5445096 140.0695329 16.74840781 141 0 C161.13 0 181.26 0 202 0 C202 17.67500811 202 17.67500811 200.8125 25.875 C200.6117688 27.27407593 200.6117688 27.27407593 200.40698242 28.70141602 C196.88019726 51.69526933 186.32383404 68.83936872 173.85986328 88.11523438 C171.41612872 91.9056213 168.99933905 95.71279349 166.58349609 99.52099609 C161.83217661 107.01018647 157.06076985 114.4863487 152.25 121.9375 C151.81373291 122.61554688 151.37746582 123.29359375 150.92797852 123.9921875 C148.69352408 127.44874658 146.41465847 130.8644507 144.0625 134.2421875 C143.59038086 134.92676025 143.11826172 135.61133301 142.63183594 136.31665039 C141.73460393 137.61256411 140.82693179 138.90133402 139.90722656 140.18139648 C137.66262519 143.33061365 137.66262519 143.33061365 137.01171875 147.0390625 C138.958354 150.90155616 141.24147117 154.53994 143.50390625 158.22265625 C145 161 145 161 145 164 C138.73 164 132.46 164 126 164 C126 166.64 126 169.28 126 172 C126.7206665 171.94763184 127.44133301 171.89526367 128.18383789 171.84130859 C131.47582379 171.63236918 134.76641929 171.50310974 138.0625 171.375 C139.19623047 171.29121094 140.32996094 171.20742187 141.49804688 171.12109375 C149.7485709 170.88055369 149.7485709 170.88055369 153.1574707 173.92993164 C155.00139953 176.53490341 156.51128466 179.17834511 158 182 C159.00100387 183.59401869 160.0124997 185.18150424 161.03515625 186.76171875 C162.61532025 189.311112 164.17215473 191.87148368 165.70776367 194.44799805 C168.56781699 199.21448201 171.49047543 203.71741267 174.953125 208.0703125 C188.40289038 225.84219766 186.42677801 244.7629581 185 266 C188.3 266 191.6 266 195 266 C195 274.25 195 282.5 195 291 C187.41 291 179.82 291 172 291 C172 292.98 172 294.96 172 297 C179.59 297 187.18 297 195 297 C195 301.29 195 305.58 195 310 C171.24 310 147.48 310 123 310 C123 282.61 123 255.22 123 227 C120.36 227 117.72 227 115 227 C113.16483545 223.06826555 111.33180265 219.1355466 109.50073242 215.2019043 C108.87761894 213.86406683 108.25392537 212.52649939 107.62963867 211.18920898 C106.73203058 209.26617113 105.83651808 207.34216956 104.94140625 205.41796875 C104.13231812 203.68196411 104.13231812 203.68196411 103.30688477 201.91088867 C102 199 102 199 101 196 C86.02836654 220.24719248 85.10611482 241.98308442 86 270 C78.74 270 71.48 270 64 270 C64 284.52 64 299.04 64 314 C40.9 314 17.8 314 -6 314 C-6 296.51 -6 279.02 -6 261 C-1.38 261 3.24 261 8 261 C8 246.48 8 231.96 8 217 C19.88 217 31.76 217 44 217 C44 214.69 44 212.38 44 210 C38.39 210 32.78 210 27 210 C27 199.44 27 188.88 27 178 C34.92 178 42.84 178 51 178 C51.66 176.35 52.32 174.7 53 173 C54.03452468 171.24422814 55.11199942 169.51331782 56.22265625 167.8046875 C56.84333984 166.84175781 57.46402344 165.87882813 58.10351562 164.88671875 C58.74998047 163.89285156 59.39644531 162.89898437 60.0625 161.875 C61.34800527 159.89514352 62.63069333 157.91345415 63.91015625 155.9296875 C64.47871338 155.05554199 65.04727051 154.18139648 65.63305664 153.28076172 C67.13079957 150.96835783 67.13079957 150.96835783 68 148 C66.46278669 145.29265478 64.87246114 142.78917962 63.11328125 140.23046875 C62.5887738 139.4500975 62.06426636 138.66972626 61.52386475 137.8657074 C59.79617886 135.29979418 58.05433709 132.74382299 56.3125 130.1875 C55.11734739 128.41721962 53.92326262 126.64621787 52.73022461 124.87451172 C50.31376891 121.28830949 47.89239743 117.70551118 45.46679688 114.12548828 C38.25907048 103.4804638 31.15175932 92.76789542 24.03857422 82.05957031 C22.21433989 79.32168952 20.37704402 76.59320322 18.53515625 73.8671875 C2.75099626 50.3333304 0 28.00352986 0 0 Z " fill="#FFFFFF" transform="translate(935,42)"/>
<path d="M0 0 C51.48 0 102.96 0 156 0 C156 17.49 156 34.98 156 53 C125.31 53 94.62 53 63 53 C63 75.11 63 97.22 63 120 C90.06 120 117.12 120 145 120 C145 145.53571429 145 145.53571429 144 154 C144.99 154 145.98 154 147 154 C147 159.61 147 165.22 147 171 C123.57 171 100.14 171 76 171 C76 192.12 76 213.24 76 235 C69.73 235 63.46 235 57 235 C57 236.98 57 238.96 57 241 C63.27 241 69.54 241 76 241 C76 247.27 76 253.54 76 260 C77.32 260 78.64 260 80 260 C80 255.05 80 250.1 80 245 C81.32 245 82.64 245 84 245 C84.33 245.66 84.66 246.32 85 247 C85.99 246.34 86.98 245.68 88 245 C90.6875 244.875 90.6875 244.875 93 245 C92.690625 245.598125 92.38125 246.19625 92.0625 246.8125 C90.89790296 249.08956772 90.89790296 249.08956772 90 252 C91.28511874 254.03131672 92.61876037 256.03277992 94 258 C94 258.66 94 259.32 94 260 C95.32 260 96.64 260 98 260 C98 255.05 98 250.1 98 245 C106.3984375 244.8046875 106.3984375 244.8046875 109 245 C111 247 111 247 111.1953125 250.0390625 C111.17210937 251.22242188 111.14890625 252.40578125 111.125 253.625 C111.10695313 254.81351563 111.08890625 256.00203125 111.0703125 257.2265625 C111.04710937 258.14179688 111.02390625 259.05703125 111 260 C113.64 259.67 116.28 259.34 119 259 C118.484375 258.319375 117.96875 257.63875 117.4375 256.9375 C115.58644507 253.15490948 116.01069435 251.03332301 117 247 C119.40346379 244.59653621 120.13900195 244.67916253 123.4375 244.625 C124.21996094 244.59664062 125.00242187 244.56828125 125.80859375 244.5390625 C128 245 128 245 131 249 C131 252.63 131 256.26 131 260 C139.58 260 148.16 260 157 260 C157 262.97 157 265.94 157 269 C154.69 269 152.38 269 150 269 C150 281.54 150 294.08 150 307 C118.32 307 86.64 307 54 307 C54 309.31 54 311.62 54 314 C38.49 314 22.98 314 7 314 C7 277.04 7 240.08 7 202 C4.69 202 2.38 202 0 202 C0 188.8 0 175.6 0 162 C-16.5 162 -33 162 -50 162 C-50 159.36 -50 156.72 -50 154 C-33.5 154 -17 154 0 154 C0 103.18 0 52.36 0 0 Z M1 155 C1 156.98 1 158.96 1 161 C9.25 161 17.5 161 26 161 C26 159.02 26 157.04 26 155 C17.75 155 9.5 155 1 155 Z M103 249 C103 249.66 103 250.32 103 251 C104.32 250.67 105.64 250.34 107 250 C105.68 249.67 104.36 249.34 103 249 Z M121 249 C121 250.98 121 252.96 121 255 C121.99 255.495 121.99 255.495 123 256 C123 255.34 123 254.68 123 254 C123.99 254 124.98 254 126 254 C126.33 253.01 126.66 252.02 127 251 C126.02149805 249.97895449 125.02019573 248.9793879 124 248 C122.7763932 247.9254644 122.7763932 247.9254644 121 249 Z M84 255 C84 256.65 84 258.3 84 260 C85.65 260 87.3 260 89 260 C87.6446674 257.46326712 87.6446674 257.46326712 86 255 C85.34 255 84.68 255 84 255 Z M103 255 C103 256.65 103 258.3 103 260 C104.32 260 105.64 260 107 260 C106.67 258.35 106.34 256.7 106 255 C105.01 255 104.02 255 103 255 Z " fill="#FFFFFF" transform="translate(762,42)"/>
<path d="M0 0 C60.72 0 121.44 0 184 0 C184 17.49 184 34.98 184 53 C164.2 53 144.4 53 124 53 C124 124.28 124 195.56 124 269 C132.91 269 141.82 269 151 269 C151 271.31 151 273.62 151 276 C142.09 276 133.18 276 124 276 C124 283.92 124 291.84 124 300 C118.39 300 112.78 300 107 300 C107 302.64 107 305.28 107 308 C110.96 308 114.92 308 119 308 C119 309.98 119 311.96 119 314 C99.86 314 80.72 314 61 314 C61 227.87 61 141.74 61 53 C40.87 53 20.74 53 0 53 C0 35.51 0 18.02 0 0 Z M102 270 C102 271.65 102 273.3 102 275 C108.6 275 115.2 275 122 275 C122 273.35 122 271.7 122 270 C115.4 270 108.8 270 102 270 Z " fill="#FFFFFF" transform="translate(571,42)"/>
<path d="M0 0 C4.29 0 8.58 0 13 0 C15.43085805 6.20489293 17.3791641 12.46322136 19.1875 18.875 C19.46013672 19.82375 19.73277344 20.7725 20.01367188 21.75 C22 28.73948543 22 28.73948543 22 31 C23.32 31 24.64 31 26 31 C26.24234375 30.01902344 26.4846875 29.03804688 26.734375 28.02734375 C29.05817769 18.65732243 31.48254689 9.31993279 34 0 C38.29 0 42.58 0 47 0 C47.33 14.19 47.66 28.38 48 43 C49.65 43 51.3 43 53 43 C53 43.99 53 44.98 53 46 C52.01 46 51.02 46 50 46 C50.01160156 46.71027344 50.02320313 47.42054688 50.03515625 48.15234375 C50.04417969 49.07144531 50.05320312 49.99054688 50.0625 50.9375 C50.07410156 51.85402344 50.08570313 52.77054687 50.09765625 53.71484375 C50 56 50 56 49 57 C44.99779347 57.14355117 41.00558317 57.04216403 37 57 C37.33 51.39 37.66 45.78 38 40 C37.34 40 36.68 40 36 40 C35.67 40.99 35.34 41.98 35 43 C33.68 43 32.36 43 31 43 C31 44.32 31 45.64 31 47 C30.01 47 29.02 47 28 47 C28 49.64 28 52.28 28 55 C25.36 55 22.72 55 20 55 C20 53.35 20 51.7 20 50 C18.68 50 17.36 50 16 50 C16 47.69 16 45.38 16 43 C15.34 43 14.68 43 14 43 C14 41.02 14 39.04 14 37 C13.34 37 12.68 37 12 37 C11.97494385 37.57032959 11.9498877 38.14065918 11.92407227 38.72827148 C11.80843451 41.29826157 11.68556376 43.86785527 11.5625 46.4375 C11.50352539 47.78424805 11.50352539 47.78424805 11.44335938 49.15820312 C11.40146484 50.01220703 11.35957031 50.86621094 11.31640625 51.74609375 C11.27974854 52.53685303 11.24309082 53.3276123 11.20532227 54.14233398 C11 56 11 56 10 57 C8.14712498 57.07226502 6.29166122 57.0838122 4.4375 57.0625 C3.42558594 57.05347656 2.41367187 57.04445313 1.37109375 57.03515625 C0.58863281 57.02355469 -0.19382812 57.01195312 -1 57 C-1 56.34 -1 55.68 -1 55 C-0.01 55 0.98 55 2 55 C2 51.37 2 47.74 2 44 C1.34 44 0.68 44 0 44 C0 29.48 0 14.96 0 0 Z M23 33 C23.33 35.31 23.66 37.62 24 40 C24.33 40 24.66 40 25 40 C25 37.69 25 35.38 25 33 C24.34 33 23.68 33 23 33 Z " fill="#FFFFFF" transform="translate(696,366)"/>
<path d="M0 0 C4.29 0 8.58 0 13 0 C15.43085805 6.20489293 17.3791641 12.46322136 19.1875 18.875 C19.46013672 19.82375 19.73277344 20.7725 20.01367188 21.75 C22 28.73948543 22 28.73948543 22 31 C23.32 31 24.64 31 26 31 C26.24234375 30.01902344 26.4846875 29.03804688 26.734375 28.02734375 C29.05817769 18.65732243 31.48254689 9.31993279 34 0 C38.29 0 42.58 0 47 0 C47.33 14.19 47.66 28.38 48 43 C49.65 43 51.3 43 53 43 C53 43.99 53 44.98 53 46 C52.01 46 51.02 46 50 46 C50.01160156 46.71027344 50.02320313 47.42054688 50.03515625 48.15234375 C50.04417969 49.07144531 50.05320312 49.99054688 50.0625 50.9375 C50.07410156 51.85402344 50.08570313 52.77054687 50.09765625 53.71484375 C50 56 50 56 49 57 C44.99779347 57.14355117 41.00558317 57.04216403 37 57 C37.33 51.39 37.66 45.78 38 40 C37.34 40 36.68 40 36 40 C35.67 40.99 35.34 41.98 35 43 C33.68 43 32.36 43 31 43 C31 44.32 31 45.64 31 47 C30.01 47 29.02 47 28 47 C28 49.64 28 52.28 28 55 C25.36 55 22.72 55 20 55 C20 53.35 20 51.7 20 50 C18.68 50 17.36 50 16 50 C16 47.69 16 45.38 16 43 C15.34 43 14.68 43 14 43 C14 41.02 14 39.04 14 37 C13.34 37 12.68 37 12 37 C11.97494385 37.57032959 11.9498877 38.14065918 11.92407227 38.72827148 C11.80843451 41.29826157 11.68556376 43.86785527 11.5625 46.4375 C11.50352539 47.78424805 11.50352539 47.78424805 11.44335938 49.15820312 C11.40146484 50.01220703 11.35957031 50.86621094 11.31640625 51.74609375 C11.27974854 52.53685303 11.24309082 53.3276123 11.20532227 54.14233398 C11 56 11 56 10 57 C8.14712498 57.07226502 6.29166122 57.0838122 4.4375 57.0625 C3.42558594 57.05347656 2.41367187 57.04445313 1.37109375 57.03515625 C0.58863281 57.02355469 -0.19382812 57.01195312 -1 57 C-1 56.34 -1 55.68 -1 55 C-0.01 55 0.98 55 2 55 C2 51.37 2 47.74 2 44 C1.34 44 0.68 44 0 44 C0 29.48 0 14.96 0 0 Z M23 33 C23.33 35.31 23.66 37.62 24 40 C24.33 40 24.66 40 25 40 C25 37.69 25 35.38 25 33 C24.34 33 23.68 33 23 33 Z " fill="#FFFFFF" transform="translate(477,366)"/>
<path d="M0 0 C120.78 0 241.56 0 366 0 C366 1.65 366 3.3 366 5 C245.22 5 124.44 5 0 5 C0 3.35 0 1.7 0 0 Z " fill="#FFFFFF" transform="translate(294,450)"/>
<path d="M0 0 C45.21 0 90.42 0 137 0 C137 3.63 137 7.26 137 11 C91.79 11 46.58 11 0 11 C0 7.37 0 3.74 0 0 Z " fill="#FFFFFF" transform="translate(729,566)"/>
<path d="M0 0 C44.55 0 89.1 0 135 0 C135 3.63 135 7.26 135 11 C90.45 11 45.9 11 0 11 C0 7.37 0 3.74 0 0 Z " fill="#FFFFFF" transform="translate(232,566)"/>
<path d="M0 0 C3.96 0 7.92 0 12 0 C12 9.9 12 19.8 12 30 C13.98 30 15.96 30 18 30 C18 30.99 18 31.98 18 33 C16.02 33 14.04 33 12 33 C12.11442461 34.60495567 12.24194694 36.20898119 12.375 37.8125 C12.44460938 38.70582031 12.51421875 39.59914063 12.5859375 40.51953125 C12.86645036 43.24398499 12.86645036 43.24398499 15 46 C17.56282742 46.72965366 17.56282742 46.72965366 20 47 C20 43.7 20 40.4 20 37 C20.99 37 21.98 37 23 37 C23 24.79 23 12.58 23 0 C26.96 0 30.92 0 35 0 C35 16.83 35 33.66 35 51 C34.01 51.33 33.02 51.66 32 52 C31.67 52.66 31.34 53.32 31 54 C30.34 54 29.68 54 29 54 C29 54.99 29 55.98 29 57 C20.42 57 11.84 57 3 57 C3 54.69 3 52.38 3 50 C2.34 50 1.68 50 1 50 C0.09027512 33.32251695 -0.11517472 16.70033409 0 0 Z M7 31 C11 32 11 32 11 32 Z " fill="#FFFFFF" transform="translate(276,366)"/>
<path d="M0 0 C1.92005859 0.00193359 1.92005859 0.00193359 3.87890625 0.00390625 C7.59426743 0.45660119 9.49043168 1.18165316 12.4375 3.4375 C15.34690049 7.85176281 15.75128312 11.20778126 15.4375 16.4375 C12.1375 16.4375 8.8375 16.4375 5.4375 16.4375 C4.7775 14.7875 4.1175 13.1375 3.4375 11.4375 C1.43795254 11.39495644 -0.56291636 11.39669217 -2.5625 11.4375 C-2.8925 11.7675 -3.2225 12.0975 -3.5625 12.4375 C-3.69726228 15.85869088 -3.69726228 15.85869088 -2.5625 19.4375 C-0.15709018 21.15389218 1.65444908 22.19834692 4.3125 23.3125 C4.95058594 23.60640625 5.58867188 23.9003125 6.24609375 24.203125 C10.82227829 26.28581442 14.40686147 27.5734632 19.4375 27.4375 C19.4375 28.0975 19.4375 28.7575 19.4375 29.4375 C18.4475 29.7675 17.4575 30.0975 16.4375 30.4375 C16.44910156 31.67886719 16.46070313 32.92023438 16.47265625 34.19921875 C16.48203868 35.84114432 16.4911384 37.48307153 16.5 39.125 C16.50837891 39.94162109 16.51675781 40.75824219 16.52539062 41.59960938 C16.54192051 45.68249084 16.46785098 49.45401707 15.4375 53.4375 C14.7775 53.4375 14.1175 53.4375 13.4375 53.4375 C13.4375 54.4275 13.4375 55.4175 13.4375 56.4375 C4.8575 56.4375 -3.7225 56.4375 -12.5625 56.4375 C-12.5625 53.7975 -12.5625 51.1575 -12.5625 48.4375 C-14.5425 48.4375 -16.5225 48.4375 -18.5625 48.4375 C-18.5625 46.4575 -18.5625 44.4775 -18.5625 42.4375 C-19.5525 42.4375 -20.5425 42.4375 -21.5625 42.4375 C-21.5625 41.4475 -21.5625 40.4575 -21.5625 39.4375 C-18.14017028 38.29672343 -15.47576783 38.33934883 -11.875 38.375 C-10.10576172 38.38853516 -10.10576172 38.38853516 -8.30078125 38.40234375 C-7.39714844 38.41394531 -6.49351563 38.42554688 -5.5625 38.4375 C-5.5625 41.4075 -5.5625 44.3775 -5.5625 47.4375 C-2.9225 47.4375 -0.2825 47.4375 2.4375 47.4375 C2.581875 46.220625 2.72625 45.00375 2.875 43.75 C3.26530953 40.61079623 3.76101856 37.5299866 4.4375 34.4375 C1.7975 34.4375 -0.8425 34.4375 -3.5625 34.4375 C-3.5625 32.7875 -3.5625 31.1375 -3.5625 29.4375 C-7.1925 29.4375 -10.8225 29.4375 -14.5625 29.4375 C-14.5625 28.7775 -14.5625 28.1175 -14.5625 27.4375 C-13.9025 27.1075 -13.2425 26.7775 -12.5625 26.4375 C-12.995625 25.69306641 -12.995625 25.69306641 -13.4375 24.93359375 C-15.99651774 20.25094671 -17.25678458 16.89259314 -16.5625 11.4375 C-13.89580903 2.6966796 -8.95709022 -0.13557654 0 0 Z " fill="#FFFFFF" transform="translate(90.5625,366.5625)"/>
<path d="M0 0 C3.81017671 0.00641932 7.62035499 0.00685153 11.43053627 0.00802541 C18.5870452 0.01108568 25.74353814 0.01922438 32.90004015 0.0293749 C41.07232946 0.04070483 49.24461969 0.04608819 57.41691494 0.05107033 C74.17370258 0.06141403 90.93047429 0.07890606 107.68725014 0.10139394 C107.68725014 0.43139394 107.68725014 0.76139394 107.68725014 1.10139394 C95.14725014 1.10139394 82.60725014 1.10139394 69.68725014 1.10139394 C69.68725014 3.41139394 69.68725014 5.72139394 69.68725014 8.10139394 C68.68725014 9.10139394 68.68725014 9.10139394 66.50270939 9.22444177 C65.53021779 9.22351997 64.55772619 9.22259818 63.55576515 9.22164845 C62.44372215 9.22302312 61.33167915 9.22439778 60.18593788 9.2258141 C58.95523567 9.22221883 57.72453346 9.21862355 56.45653725 9.21491933 C55.16891991 9.21506536 53.88130257 9.21521138 52.55466652 9.21536183 C49.01350254 9.2156498 45.47237215 9.2097533 41.931216 9.20278788 C38.23430026 9.1965541 34.53738382 9.19595052 30.84046364 9.19476247 C23.83521115 9.19164922 16.82997419 9.18343592 9.82472855 9.17341298 C1.85146138 9.16225164 -6.12180651 9.15674134 -14.09507954 9.15171754 C-30.50097875 9.1412533 -46.90686233 9.12365399 -63.31274986 9.10139394 C-63.31274986 6.46139394 -63.31274986 3.82139394 -63.31274986 1.10139394 C-42.20048408 0.30928805 -21.12593875 -0.04188299 0 0 Z " fill="#FFFFFF" transform="translate(942.3127498626709,445.8986060619354)"/>
<path d="M0 0 C11.22 0 22.44 0 34 0 C34 3.3 34 6.6 34 10 C30.37 10 26.74 10 23 10 C23 22.54 23 35.08 23 48 C24.65 48 26.3 48 28 48 C28 48.66 28 49.32 28 50 C26.35 50 24.7 50 23 50 C23 51.98 23 53.96 23 56 C19.04 56 15.08 56 11 56 C11 40.82 11 25.64 11 10 C7.37 10 3.74 10 0 10 C0 6.7 0 3.4 0 0 Z " fill="#FFFFFF" transform="translate(1096,367)"/>
<path d="M0 0 C3.96 0 7.92 0 12 0 C12 9.24 12 18.48 12 28 C11.34 28 10.68 28 10 28 C10 37.24 10 46.48 10 56 C6.7 56 3.4 56 0 56 C0 46.43 0 36.86 0 27 C-0.99 27 -1.98 27 -3 27 C-3 26.34 -3 25.68 -3 25 C-2.01 25 -1.02 25 0 25 C0 16.75 0 8.5 0 0 Z " fill="#FFFFFF" transform="translate(918,367)"/>
<path d="M0 0 C18.81 0 37.62 0 57 0 C57 1.98 57 3.96 57 6 C38.19 6 19.38 6 0 6 C0 4.02 0 2.04 0 0 Z " fill="#FFFFFF" transform="translate(71,347)"/>
<path d="M0 0 C3.83545697 1.1157693 4.48624525 1.66079915 6.4375 5 C7.29869259 9.77147244 7.05197636 13.81831469 4.8125 18.125 C2.4375 20 2.4375 20 -0.5625 20.5625 C-4.2588573 19.86943301 -5.25557111 18.92764917 -7.5625 16 C-8.09375 13.125 -8.09375 13.125 -8.0625 10 C-8.0728125 8.96875 -8.083125 7.9375 -8.09375 6.875 C-7.16996392 1.87568712 -5.03363096 0 0 0 Z " fill="#FFFFFF" transform="translate(779.5625,499)"/>
<path d="M0 0 C3.375 0.9375 3.375 0.9375 5.375 3.9375 C5.7109375 6.71484375 5.7109375 6.71484375 5.75 9.875 C5.77835938 10.91527344 5.80671875 11.95554687 5.8359375 13.02734375 C5.26601723 16.62556921 4.28522149 17.80127359 1.375 19.9375 C-2.25 19.875 -2.25 19.875 -5.625 18.9375 C-7.90447698 15.51828453 -7.95013105 14.03439823 -8 10 C-8.02835938 8.95972656 -8.05671875 7.91945313 -8.0859375 6.84765625 C-7.27848549 1.74976011 -5.0883962 -0.08773097 0 0 Z " fill="#FFFFFF" transform="translate(932.625,499.0625)"/>
<path d="M0 0 C3.375 0.9375 3.375 0.9375 5.375 3.9375 C5.7109375 6.71484375 5.7109375 6.71484375 5.75 9.875 C5.77835937 10.91527344 5.80671875 11.95554687 5.8359375 13.02734375 C5.26601723 16.62556921 4.28522149 17.80127359 1.375 19.9375 C-2.25 19.875 -2.25 19.875 -5.625 18.9375 C-7.90447698 15.51828453 -7.95013105 14.03439823 -8 10 C-8.02835937 8.95972656 -8.05671875 7.91945313 -8.0859375 6.84765625 C-7.27848549 1.74976011 -5.0883962 -0.08773097 0 0 Z " fill="#FFFFFF" transform="translate(463.625,499.0625)"/>
<path d="M0 0 C1.98 0 3.96 0 6 0 C6.33 1.32 6.66 2.64 7 4 C7.66 2.68 8.32 1.36 9 0 C10.65 0 12.3 0 14 0 C14 4.29 14 8.58 14 13 C9.33333333 13 4.66666667 13 0 13 C0 8.71 0 4.42 0 0 Z " fill="#FFFFFF" transform="translate(1000,313)"/>
<path d="M0 0 C2.26171875 2.40625 2.26171875 2.40625 4.6875 5.5 C5.49574219 6.5209375 6.30398438 7.541875 7.13671875 8.59375 C7.75160156 9.3878125 8.36648438 10.181875 9 11 C6.78826945 13.4798191 6.01491302 13.99613366 2.625 14.875 C-1.39679948 15.01368274 -2.85653818 14.40382374 -6 12 C-7 11 -7 11 -7.3125 8.25 C-6.8526795 3.4678668 -5.10186106 0 0 0 Z " fill="#FFFFFF" transform="translate(563,504)"/>
<path d="M0 0 C3.63 0 7.26 0 11 0 C10.07377893 3.70488428 9.32789515 5.16604069 7 8 C8.32 8.33 9.64 8.66 11 9 C11 10.32 11 11.64 11 13 C7.37 13 3.74 13 0 13 C0.89570311 8.52148447 1.25000973 7.22824944 4 4 C2.68 3.67 1.36 3.34 0 3 C0 2.01 0 1.02 0 0 Z " fill="#FFFFFF" transform="translate(340,324)"/>
<path d="M0 0 C0.99 0 1.98 0 3 0 C3 1.65 3 3.3 3 5 C4.32 5 5.64 5 7 5 C7 3.35 7 1.7 7 0 C8.32 0 9.64 0 11 0 C11 4.29 11 8.58 11 13 C9.68 13 8.36 13 7 13 C7 11.35 7 9.7 7 8 C5.68 8 4.36 8 3 8 C3 9.65 3 11.3 3 13 C2.01 13 1.02 13 0 13 C0 8.71 0 4.42 0 0 Z " fill="#FFFFFF" transform="translate(341,292)"/>
<path d="M0 0 C6.8359375 -0.1953125 6.8359375 -0.1953125 9 0 C11 2 11 2 11.3125 4.5 C11.1578125 5.7375 11.1578125 5.7375 11 7 C8 9 8 9 4 9 C4 10.32 4 11.64 4 13 C2.68 13 1.36 13 0 13 C0 8.71 0 4.42 0 0 Z M4 3 C4 3.66 4 4.32 4 5 C4.99 5 5.98 5 7 5 C7 4.34 7 3.68 7 3 C6.01 3 5.02 3 4 3 Z " fill="#FFFFFF" transform="translate(1000,329)"/>
<path d="M0 0 C0.99 0 1.98 0 3 0 C3.33 2.97 3.66 5.94 4 9 C4.99 9 5.98 9 7 9 C7 6.03 7 3.06 7 0 C8.32 0 9.64 0 11 0 C11.08121924 1.60332791 11.13929134 3.20784026 11.1875 4.8125 C11.22230469 5.70582031 11.25710938 6.59914063 11.29296875 7.51953125 C11 10 11 10 9.6796875 11.8046875 C7.11699472 13.6283712 5.05068702 13.32454117 2 13 C0 11 0 11 -0.1953125 8.3984375 C-0.17210937 7.40070313 -0.14890625 6.40296875 -0.125 5.375 C-0.10695313 4.37210937 -0.08890625 3.36921875 -0.0703125 2.3359375 C-0.04710937 1.56507813 -0.02390625 0.79421875 0 0 Z " fill="#FFFFFF" transform="translate(341,340)"/>
<path d="M0 0 C2.475 0.495 2.475 0.495 5 1 C5 1.99 5 2.98 5 4 C5.66 4 6.32 4 7 4 C7.33 2.68 7.66 1.36 8 0 C9.32 0 10.64 0 12 0 C11.52343588 1.79236067 11.04366502 3.58386897 10.5625 5.375 C10.29566406 6.37273437 10.02882813 7.37046875 9.75390625 8.3984375 C9 11 9 11 8 13 C6.68 13 5.36 13 4 13 C2.68 8.71 1.36 4.42 0 0 Z " fill="#FFFFFF" transform="translate(533,323)"/>
<path d="M0 0 C0.66 1.98 1.32 3.96 2 6 C-2.29 6 -6.58 6 -11 6 C-10.67 4.35 -10.34 2.7 -10 1 C-6.1496895 -1.56687367 -4.41430237 -0.83288724 0 0 Z " fill="#FFFFFF" transform="translate(847,500)"/>
<path d="M0 0 C0.66 1.98 1.32 3.96 2 6 C-2.29 6 -6.58 6 -11 6 C-10.67 4.35 -10.34 2.7 -10 1 C-6.1496895 -1.56687367 -4.41430237 -0.83288724 0 0 Z " fill="#FFFFFF" transform="translate(723,500)"/>
<path d="M0 0 C0.66 1.98 1.32 3.96 2 6 C-2.29 6 -6.58 6 -11 6 C-10.67 4.35 -10.34 2.7 -10 1 C-6.1496895 -1.56687367 -4.41430237 -0.83288724 0 0 Z " fill="#FFFFFF" transform="translate(297,500)"/>
<path d="M0 0 C2.97 0 5.94 0 9 0 C9 0.99 9 1.98 9 3 C7.02 3 5.04 3 3 3 C3 3.66 3 4.32 3 5 C4.65 5 6.3 5 8 5 C8 5.99 8 6.98 8 8 C6.35 8 4.7 8 3 8 C3 9.65 3 11.3 3 13 C2.01 13 1.02 13 0 13 C0 8.71 0 4.42 0 0 Z " fill="#FFFFFF" transform="translate(341,308)"/>
<path d="M0 0 C3 0.125 3 0.125 4 1.125 C3.71269945 3.46444736 3.38063221 5.7989143 3 8.125 C1.35 8.785 -0.3 9.445 -2 10.125 C-4 8.125 -4 8.125 -4.1875 4.5625 C-3.9476082 0.16448368 -3.9476082 0.16448368 0 0 Z " fill="#FFFFFF" transform="translate(565,488.875)"/>
<path d="M0 0 C1.32 0 2.64 0 4 0 C4 4.95 4 9.9 4 15 C2.68 15 1.36 15 0 15 C0 10.05 0 5.1 0 0 Z " fill="#FFFFFF" transform="translate(915,313)"/>
<path d="M0 0 C1.32 0 2.64 0 4 0 C4 0.66 4 1.32 4 2 C2.68 1.67 1.36 1.34 0 1 C0 0.67 0 0.34 0 0 Z " fill="#FFFFFF" transform="translate(85,563)"/>
</svg>
