<?xml version="1.0" standalone="no"?>
<!DOCTYPE svg PUBLIC "-//W3C//DTD SVG 20010904//EN"
 "http://www.w3.org/TR/2001/REC-SVG-20010904/DTD/svg10.dtd">
<svg version="1.0" xmlns="http://www.w3.org/2000/svg"
 width="2231.000000pt" height="2058.000000pt" viewBox="0 0 2231.000000 2058.000000"
 preserveAspectRatio="xMidYMid meet">

<g transform="translate(0.000000,2058.000000) scale(0.100000,-0.100000)"
fill="#000000" stroke="none">
<path d="M9762 16004 c-28 -19 -29 -57 -2 -84 24 -24 48 -25 78 -4 43 30 16
104 -38 104 -9 0 -26 -7 -38 -16z"/>
<path d="M12152 16004 c-28 -19 -29 -57 -2 -84 24 -24 48 -25 78 -4 43 30 16
104 -38 104 -9 0 -26 -7 -38 -16z"/>
<path d="M14182 16004 c-28 -19 -29 -57 -2 -84 24 -24 48 -25 78 -4 43 30 16
104 -38 104 -9 0 -26 -7 -38 -16z"/>
<path d="M4540 15715 l0 -285 65 0 65 0 0 285 0 285 -65 0 -65 0 0 -285z"/>
<path d="M4770 15710 l0 -280 200 0 200 0 0 55 0 54 -132 3 -133 3 -3 63 -3
62 111 0 110 0 0 55 0 55 -110 0 -110 0 0 50 0 50 125 0 125 0 0 55 0 55 -190
0 -190 0 0 -280z"/>
<path d="M5280 15710 l0 -280 200 0 200 0 0 55 0 54 -132 3 -133 3 -3 63 -3
62 111 0 110 0 0 55 0 55 -110 0 -110 0 0 50 0 50 125 0 125 0 0 55 0 55 -190
0 -190 0 0 -280z"/>
<path d="M5790 15710 l0 -280 200 0 200 0 0 55 0 54 -132 3 -133 3 -3 63 -3
62 111 0 110 0 0 55 0 55 -110 0 -110 0 0 50 0 50 125 0 125 0 0 55 0 55 -190
0 -190 0 0 -280z"/>
<path d="M6540 15977 c0 -19 94 -390 120 -474 l22 -73 64 0 63 0 50 153 c55
170 49 168 91 27 12 -41 31 -99 42 -127 l19 -53 63 0 63 0 31 103 c32 102 112
421 112 445 0 8 -21 12 -70 12 -64 0 -70 -2 -75 -22 -2 -13 -16 -85 -30 -160
-38 -205 -35 -204 -86 -30 l-44 152 -60 0 -61 0 -44 -151 c-25 -87 -46 -145
-50 -137 -4 7 -23 88 -41 181 l-34 167 -72 0 c-53 0 -73 -4 -73 -13z"/>
<path d="M10670 15710 l0 -280 200 0 200 0 0 55 0 54 -132 3 -133 3 -3 63 -3
62 111 0 110 0 0 55 0 55 -110 0 -110 0 0 50 0 50 125 0 125 0 0 55 0 55 -190
0 -190 0 0 -280z"/>
<path d="M7503 15839 c-47 -14 -100 -71 -114 -121 -16 -59 -6 -159 19 -200 33
-53 94 -82 172 -82 129 0 200 72 200 202 0 129 -64 201 -182 208 -35 2 -78 -1
-95 -7z m119 -100 c22 -12 48 -66 48 -100 0 -37 -30 -87 -61 -99 -40 -17 -83
2 -103 45 -20 41 -20 66 -2 109 22 52 70 71 118 45z"/>
<path d="M8665 15831 c-73 -33 -105 -93 -105 -196 0 -151 98 -222 269 -196 39
6 73 11 76 11 6 0 -4 91 -10 98 -2 2 -29 -2 -61 -9 -50 -10 -65 -9 -96 4 -20
8 -41 25 -48 36 -11 21 -9 21 115 21 l125 0 0 58 c0 81 -31 140 -90 170 -54
27 -120 28 -175 3z m129 -103 c28 -40 21 -48 -43 -48 -33 0 -62 4 -65 9 -3 5
4 20 15 35 26 33 71 35 93 4z"/>
<path d="M11778 15841 c-57 -19 -89 -47 -115 -99 -22 -45 -25 -62 -21 -117 10
-121 63 -169 184 -169 65 1 71 -1 66 -18 -9 -35 -47 -51 -110 -45 -31 3 -67 8
-78 12 -20 6 -23 2 -33 -46 -6 -28 -10 -53 -8 -55 1 -2 34 -8 72 -14 132 -21
229 10 265 85 18 37 20 62 20 247 0 205 0 206 -22 212 -41 11 -192 16 -220 7z
m120 -184 l3 -87 -28 -11 c-62 -24 -107 22 -99 101 5 56 43 93 90 88 l31 -3 3
-88z"/>
<path d="M12925 15831 c-73 -33 -105 -93 -105 -196 0 -151 98 -222 269 -196
39 6 73 11 76 11 6 0 -4 91 -10 98 -2 2 -29 -2 -61 -9 -50 -10 -65 -9 -96 4
-20 8 -41 25 -48 36 -11 21 -9 21 115 21 l125 0 0 58 c0 81 -31 140 -90 170
-54 27 -120 28 -175 3z m129 -103 c28 -40 21 -48 -43 -48 -33 0 -62 4 -65 9
-3 5 4 20 15 35 26 33 71 35 93 4z"/>
<path d="M13405 15831 c-73 -33 -105 -93 -105 -196 0 -151 98 -222 269 -196
39 6 73 11 76 11 6 0 -4 91 -10 98 -2 2 -29 -2 -61 -9 -50 -10 -65 -9 -96 4
-20 8 -41 25 -48 36 -11 21 -9 21 115 21 l125 0 0 58 c0 81 -31 140 -90 170
-54 27 -120 28 -175 3z m129 -103 c28 -40 21 -48 -43 -48 -33 0 -62 4 -65 9
-3 5 4 20 15 35 26 33 71 35 93 4z"/>
<path d="M14988 15841 c-57 -19 -89 -47 -115 -99 -22 -45 -25 -62 -21 -117 10
-121 63 -169 184 -169 65 1 71 -1 66 -18 -9 -35 -47 -51 -110 -45 -31 3 -67 8
-78 12 -20 6 -23 2 -33 -46 -6 -28 -10 -53 -8 -55 1 -2 34 -8 72 -14 132 -21
229 10 265 85 18 37 20 62 20 247 0 205 0 206 -22 212 -41 11 -192 16 -220 7z
m120 -184 l3 -87 -28 -11 c-62 -24 -107 22 -99 101 5 56 43 93 90 88 l31 -3 3
-88z"/>
<path d="M7925 15831 l-30 -6 -3 -198 -2 -197 60 0 60 0 0 156 0 155 38 -3
c32 -3 38 -7 49 -38 7 -19 12 -88 12 -152 l1 -118 60 0 59 0 3 153 3 152 32 3
c54 5 63 -21 63 -175 l0 -133 66 0 67 0 -5 158 c-5 173 -14 203 -68 236 -35
20 -154 21 -190 2 -21 -12 -29 -12 -52 0 -28 14 -164 18 -223 5z"/>
<path d="M9075 15831 l-30 -6 -3 -198 -2 -197 60 0 60 0 0 155 0 155 39 0 c63
0 71 -20 71 -177 l0 -133 60 0 60 0 0 153 c0 174 -10 210 -70 239 -36 18 -178
24 -245 9z"/>
<path d="M9740 15635 l0 -205 60 0 60 0 0 205 0 205 -60 0 -60 0 0 -205z"/>
<path d="M10005 15831 l-30 -6 -3 -198 -2 -197 60 0 60 0 0 155 0 155 39 0
c63 0 71 -20 71 -177 l0 -133 60 0 60 0 0 153 c0 174 -10 210 -70 239 -36 18
-178 24 -245 9z"/>
<path d="M11215 15831 l-30 -6 -3 -198 -2 -197 60 0 60 0 0 155 0 155 39 0
c63 0 71 -20 71 -177 l0 -133 60 0 60 0 0 153 c0 174 -10 210 -70 239 -36 18
-178 24 -245 9z"/>
<path d="M12130 15635 l0 -205 60 0 60 0 0 205 0 205 -60 0 -60 0 0 -205z"/>
<path d="M12395 15831 l-30 -6 -3 -198 -2 -197 60 0 60 0 0 155 0 155 39 0
c63 0 71 -20 71 -177 l0 -133 60 0 60 0 0 153 c0 174 -10 210 -70 239 -36 18
-178 24 -245 9z"/>
<path d="M13835 15827 l-50 -12 -3 -193 -2 -192 60 0 60 0 0 149 c0 170 -1
168 83 156 l44 -7 11 44 c7 25 7 47 2 52 -14 14 -150 16 -205 3z"/>
<path d="M14160 15635 l0 -205 60 0 60 0 0 205 0 205 -60 0 -60 0 0 -205z"/>
<path d="M14425 15831 l-30 -6 -3 -198 -2 -197 60 0 60 0 0 155 0 155 39 0
c63 0 71 -20 71 -177 l0 -133 60 0 60 0 0 153 c0 174 -10 210 -70 239 -36 18
-178 24 -245 9z"/>
<path d="M15690 15285 c0 -3 20 -45 44 -93 68 -134 151 -338 206 -503 314
-939 269 -1902 -137 -2929 -114 -289 -288 -636 -469 -937 -141 -235 -186 -300
-325 -475 -631 -790 -1067 -1529 -1279 -2168 -231 -693 -221 -1282 29 -1794
180 -370 495 -700 926 -974 226 -143 259 -157 465 -197 102 -19 196 -38 210
-41 14 -3 -13 17 -60 43 -154 88 -243 156 -376 288 -246 245 -397 531 -460
870 -26 140 -26 430 0 570 133 720 701 1254 1428 1345 88 11 265 -4 718 -60
507 -62 785 -20 935 141 60 66 90 133 105 240 16 111 -14 311 -69 459 -57 156
-38 206 163 418 53 56 96 108 96 117 0 31 -44 50 -211 91 -182 45 -234 69
-269 127 -26 41 -25 51 3 43 61 -17 194 -18 255 -2 132 34 252 154 252 253 0
48 -15 75 -129 242 -51 73 -89 137 -84 141 4 4 89 61 188 125 248 161 303 217
325 335 11 59 -7 139 -47 208 -41 70 -162 191 -277 279 -55 42 -146 115 -201
162 -105 90 -405 379 -405 391 0 4 12 12 28 19 64 29 228 148 307 223 116 109
122 124 32 77 -94 -49 -375 -159 -406 -159 -3 0 -6 100 -7 223 0 238 -12 369
-50 594 -147 865 -612 1650 -1304 2203 -78 63 -150 113 -150 105z"/>
<path d="M8820 14915 l0 -44 68 -3 67 -3 3 -182 2 -183 55 0 55 0 0 185 0 185
70 0 70 0 0 45 0 45 -195 0 -195 0 0 -45z"/>
<path d="M11410 14915 l0 -44 68 -3 67 -3 3 -182 2 -183 55 0 55 0 0 185 0
185 70 0 70 0 0 45 0 45 -195 0 -195 0 0 -45z"/>
<path d="M4610 14910 l0 -40 95 0 c101 0 112 -6 76 -44 -11 -12 -56 -75 -100
-141 -61 -89 -81 -127 -81 -152 l0 -33 185 0 185 0 0 40 0 40 -110 0 c-86 0
-110 3 -110 14 0 16 95 151 161 228 39 45 49 64 49 92 l0 36 -175 0 -175 0 0
-40z"/>
<path d="M5257 14903 c-23 -46 -138 -335 -152 -380 -6 -22 -4 -23 53 -23 l58
0 15 48 15 47 84 0 84 0 17 -45 17 -45 62 -3 c57 -3 62 -1 55 15 -3 10 -24 65
-45 123 -22 58 -59 150 -83 205 l-43 100 -57 3 -56 3 -24 -48z m107 -150 l26
-73 -55 0 c-30 0 -55 4 -55 10 0 5 8 31 18 57 11 26 22 57 26 67 9 25 9 24 40
-61z"/>
<path d="M5819 14927 c-58 -31 -98 -96 -106 -170 -11 -108 30 -198 109 -238
36 -18 55 -21 142 -17 56 2 107 7 114 11 8 6 12 41 12 118 l0 109 -55 0 -55 0
0 -75 c0 -88 -9 -97 -73 -74 -60 21 -82 57 -82 134 0 76 22 113 80 133 32 10
47 10 93 -3 30 -9 55 -15 56 -13 9 15 26 62 26 73 0 20 -63 35 -146 35 -55 0
-81 -5 -115 -23z"/>
<path d="M6387 14903 c-23 -46 -138 -335 -152 -380 -6 -22 -4 -23 53 -23 l58
0 15 48 15 47 84 0 84 0 17 -45 17 -45 62 -3 c57 -3 62 -1 55 15 -3 10 -24 65
-45 123 -22 58 -59 150 -83 205 l-43 100 -57 3 -56 3 -24 -48z m107 -150 l26
-73 -55 0 c-30 0 -55 4 -55 10 0 5 8 31 18 57 11 26 22 57 26 67 9 25 9 24 40
-61z"/>
<path d="M6850 14910 l0 -40 95 0 c101 0 112 -6 76 -44 -11 -12 -56 -75 -100
-141 -61 -89 -81 -127 -81 -152 l0 -33 185 0 185 0 0 40 0 40 -110 0 c-86 0
-110 3 -110 14 0 16 95 151 161 228 39 45 49 64 49 92 l0 36 -175 0 -175 0 0
-40z"/>
<path d="M7699 14927 c-58 -31 -98 -96 -106 -170 -11 -108 30 -198 109 -238
36 -18 55 -21 142 -17 56 2 107 7 114 11 8 6 12 41 12 118 l0 109 -55 0 -55 0
0 -75 c0 -88 -9 -97 -73 -74 -60 21 -82 57 -82 134 0 76 22 113 80 133 32 10
47 10 93 -3 30 -9 55 -15 56 -13 9 15 26 62 26 73 0 20 -63 35 -146 35 -55 0
-81 -5 -115 -23z"/>
<path d="M8434 14936 c-45 -20 -74 -62 -74 -108 0 -74 37 -113 141 -147 108
-35 73 -119 -39 -94 -26 5 -55 13 -64 17 -13 6 -20 -1 -32 -29 -9 -21 -16 -39
-16 -42 0 -15 81 -33 153 -33 71 0 89 4 118 23 95 64 76 184 -39 233 -96 41
-107 48 -107 74 0 40 60 47 137 15 13 -5 20 -1 27 16 24 65 24 65 -18 77 -51
16 -148 14 -187 -2z"/>
<path d="M9352 14778 c3 -152 5 -177 23 -206 29 -49 81 -72 160 -72 79 0 131
23 160 72 18 29 20 54 23 206 l4 172 -56 0 -56 0 0 -154 c0 -140 -2 -156 -21
-180 -15 -19 -30 -26 -54 -26 -24 0 -39 7 -54 26 -19 24 -21 40 -21 180 l0
154 -56 0 -56 0 4 -172z"/>
<path d="M9864 14937 c-2 -7 -3 -107 -2 -222 l3 -210 90 -3 c118 -4 164 3 213
35 63 41 87 92 87 188 0 107 -26 157 -104 197 -49 26 -62 28 -167 28 -84 0
-116 -3 -120 -13z m223 -93 c40 -25 57 -63 57 -121 -2 -84 -40 -124 -132 -139
l-42 -7 0 140 c0 77 3 143 7 147 10 10 84 -3 110 -20z"/>
<path d="M10400 14725 l0 -225 165 0 165 0 0 40 0 40 -110 0 -110 0 0 55 0 55
90 0 90 0 0 45 0 45 -90 0 -90 0 0 45 0 45 100 0 100 0 0 40 0 40 -155 0 -155
0 0 -225z"/>
<path d="M10870 14725 l0 -225 55 0 54 0 3 138 3 137 61 -82 c34 -45 76 -107
94 -137 l31 -56 50 0 49 0 0 225 0 225 -55 0 -54 0 -3 -121 -3 -121 -34 48
c-19 26 -61 80 -94 121 -58 73 -59 73 -108 73 l-49 0 0 -225z"/>
<path d="M12203 14943 l-33 -4 0 -214 c0 -185 2 -214 16 -219 9 -3 64 -6 122
-6 167 1 222 37 222 145 0 39 -5 52 -29 74 -28 27 -28 27 -10 50 22 27 24 75
6 110 -22 45 -70 64 -170 66 -51 2 -107 1 -124 -2z m184 -95 c17 -14 17 -43
-1 -57 -7 -6 -34 -14 -60 -17 l-46 -7 0 45 c0 25 3 48 8 52 9 10 82 -2 99 -16z
m-15 -158 c39 -11 54 -35 43 -69 -7 -22 -53 -41 -101 -41 l-34 0 0 60 c0 59 1
60 28 60 15 0 44 -5 64 -10z"/>
<path d="M12677 14943 c-4 -3 -7 -107 -7 -230 l0 -223 55 0 55 0 0 86 c0 83 1
85 22 82 16 -2 38 -27 73 -85 l50 -82 63 -1 62 0 -24 48 c-14 26 -38 67 -54
90 l-30 44 36 32 c30 28 36 40 39 87 9 113 -56 158 -228 159 -58 0 -109 -3
-112 -7z m176 -84 c90 -25 60 -119 -37 -119 l-36 0 0 58 c0 78 3 81 73 61z"/>
<path d="M13347 14903 c-23 -46 -138 -335 -152 -380 -6 -22 -4 -23 53 -23 l58
0 15 48 15 47 84 0 84 0 17 -45 17 -45 62 -3 c57 -3 62 -1 55 15 -3 10 -24 65
-45 123 -22 58 -59 150 -83 205 l-43 100 -57 3 -56 3 -24 -48z m107 -150 l26
-73 -55 0 c-30 0 -55 4 -55 10 0 5 8 31 18 57 11 26 22 57 26 67 9 25 9 24 40
-61z"/>
<path d="M13800 14725 l0 -225 55 0 54 0 3 138 3 137 61 -82 c34 -45 76 -107
94 -137 l31 -56 50 0 49 0 0 225 0 225 -55 0 -54 0 -3 -121 -3 -121 -34 48
c-19 26 -61 80 -94 121 -58 73 -59 73 -108 73 l-49 0 0 -225z"/>
<path d="M14486 14936 c-87 -33 -134 -97 -143 -195 -10 -113 33 -200 119 -235
68 -29 258 -15 258 18 0 7 -5 28 -11 45 -10 27 -15 31 -33 26 -11 -4 -49 -9
-82 -12 -57 -5 -64 -3 -93 23 -40 36 -56 98 -41 156 25 91 102 118 211 74 12
-6 20 3 33 35 9 23 16 43 14 44 -38 31 -172 43 -232 21z"/>
<path d="M7350 14710 l0 -210 55 0 55 0 0 210 0 210 -55 0 -55 0 0 -210z"/>
<path d="M14860 14710 l0 -210 55 0 55 0 0 90 0 90 75 0 75 0 0 -90 0 -90 55
0 55 0 0 210 0 210 -55 0 -55 0 0 -80 0 -80 -75 0 -75 0 0 80 0 80 -55 0 -55
0 0 -210z"/>
<path d="M6976 14013 c-29 -57 -166 -402 -166 -419 0 -2 26 -4 58 -4 l58 0 15
48 15 47 81 3 81 3 17 -51 17 -50 59 0 c32 0 59 1 59 3 0 12 -95 259 -132 342
l-43 100 -52 3 c-48 3 -53 1 -67 -25z m93 -174 c13 -33 21 -63 18 -65 -3 -3
-27 -4 -55 -2 l-49 3 25 67 c15 36 29 65 33 63 3 -3 16 -32 28 -66z"/>
<path d="M7400 13805 l0 -225 55 0 55 0 0 95 0 95 85 0 85 0 0 40 0 40 -85 0
-85 0 0 45 0 45 100 0 100 0 0 45 0 45 -155 0 -155 0 0 -225z"/>
<path d="M7840 13805 l0 -225 55 0 55 0 0 95 0 95 85 0 85 0 0 40 0 40 -85 0
-85 0 0 45 0 45 100 0 100 0 0 45 0 45 -155 0 -155 0 0 -225z"/>
<path d="M8520 13810 l0 -220 55 0 54 0 3 132 3 132 52 -69 c28 -39 68 -98 88
-132 l37 -63 49 0 49 0 0 220 0 220 -55 0 -55 0 0 -121 0 -120 -74 98 c-112
147 -108 143 -160 143 l-46 0 0 -220z"/>
<path d="M9280 13985 l0 -45 65 0 65 0 0 -180 0 -180 55 0 55 0 0 180 0 180
65 0 65 0 0 45 0 45 -185 0 -185 0 0 -45z"/>
<path d="M9806 13998 c9 -18 45 -81 80 -139 l64 -107 0 -81 0 -81 55 0 55 0 0
81 0 80 64 107 c34 59 71 122 80 140 l17 32 -63 -1 -63 0 -34 -70 c-55 -113
-51 -112 -101 -15 l-45 86 -63 0 -63 0 17 -32z"/>
<path d="M10699 14007 c-118 -62 -146 -254 -53 -357 20 -21 51 -44 71 -51 38
-12 209 -9 231 4 8 6 12 40 12 113 l0 104 -55 0 -55 0 0 -75 c0 -74 0 -75 -25
-75 -82 0 -131 62 -123 156 9 106 76 138 203 99 17 -5 23 0 33 29 16 44 11 52
-36 66 -66 18 -154 12 -203 -13z"/>
<path d="M11133 14023 l-33 -4 0 -215 0 -214 55 0 55 0 0 80 c0 72 2 80 19 80
13 0 34 -24 65 -71 25 -39 46 -75 48 -81 2 -5 32 -8 66 -6 l63 3 -50 84 -51
83 30 28 c34 32 45 66 37 121 -10 78 -64 111 -187 114 -47 2 -100 1 -117 -2z
m175 -99 c50 -35 12 -94 -60 -94 l-38 0 0 55 0 55 38 0 c21 0 48 -7 60 -16z"/>
<path d="M11735 14015 c-78 -28 -135 -114 -135 -206 0 -56 27 -132 57 -161 52
-48 89 -60 174 -56 69 3 81 6 116 34 62 50 78 87 78 179 0 70 -4 86 -28 128
-49 83 -160 118 -262 82z m134 -91 c47 -33 65 -122 37 -189 -14 -33 -59 -65
-91 -65 -32 0 -77 32 -91 65 -40 96 9 205 91 205 17 0 41 -7 54 -16z"/>
<path d="M12170 13872 c0 -144 2 -162 23 -202 29 -59 71 -80 157 -80 85 0 128
22 158 80 20 40 22 58 22 202 l0 158 -55 0 -55 0 0 -154 c0 -135 -2 -157 -18
-177 -13 -15 -30 -22 -52 -22 -22 0 -39 7 -52 22 -16 20 -18 42 -18 177 l0
154 -55 0 -55 0 0 -158z"/>
<path d="M12703 14023 l-33 -4 0 -215 0 -214 55 0 55 0 0 69 0 68 65 6 c120
11 169 59 162 159 -4 62 -20 89 -72 115 -30 16 -169 26 -232 16z m175 -99 c12
-8 22 -25 22 -38 0 -38 -23 -58 -73 -63 l-47 -6 0 62 0 61 38 0 c21 0 48 -7
60 -16z"/>
<path d="M8280 13795 l0 -205 50 0 50 0 0 205 0 205 -50 0 -50 0 0 -205z"/>
<path d="M9040 13795 l0 -205 50 0 50 0 0 205 0 205 -50 0 -50 0 0 -205z"/>
<path d="M14880 13592 c-42 -14 -56 -23 -58 -39 -3 -19 6 -25 65 -43 125 -39
175 -91 214 -229 49 -172 4 -470 -111 -736 -49 -114 -140 -301 -175 -360 -13
-22 -31 -53 -39 -70 -9 -16 -25 -43 -36 -60 -11 -16 -29 -46 -40 -65 -31 -53
-43 -72 -62 -94 -10 -11 -18 -25 -18 -31 0 -7 -9 -20 -20 -30 -11 -10 -20 -24
-20 -32 0 -7 -3 -13 -8 -13 -4 0 -18 -18 -32 -40 -14 -22 -28 -40 -32 -40 -5
0 -8 -4 -8 -9 0 -6 -17 -33 -37 -61 -49 -67 -330 -420 -351 -441 -10 -10 -33
-36 -52 -60 -19 -23 -42 -49 -51 -58 -9 -9 -58 -63 -109 -121 -255 -286 -699
-722 -1010 -990 -22 -19 -55 -49 -73 -65 -18 -17 -66 -59 -107 -94 -41 -35
-87 -77 -103 -93 -15 -15 -30 -28 -33 -28 -4 0 -17 -10 -29 -22 -26 -27 -65
-62 -160 -143 -38 -33 -82 -72 -98 -87 -15 -16 -31 -28 -37 -28 -5 0 -14 -9
-20 -20 -6 -11 -15 -20 -20 -20 -4 0 -26 -17 -47 -37 -21 -21 -63 -58 -92 -83
-29 -25 -70 -61 -91 -80 -76 -68 -96 -86 -178 -155 -45 -38 -82 -73 -82 -77 0
-5 -5 -8 -11 -8 -7 0 -21 -10 -33 -22 -23 -24 -39 -38 -151 -133 -66 -55 -115
-98 -156 -137 -11 -10 -22 -18 -25 -18 -4 0 -16 -10 -28 -22 -23 -24 -48 -46
-161 -142 -38 -33 -82 -73 -98 -88 -15 -15 -30 -28 -33 -28 -4 0 -17 -10 -29
-22 -31 -33 -78 -75 -175 -157 -47 -40 -99 -88 -116 -107 -17 -19 -34 -34 -37
-34 -4 0 -19 -12 -34 -28 -16 -15 -75 -70 -133 -122 -58 -51 -118 -107 -134
-122 -41 -40 -43 -28 -4 27 90 129 210 361 307 595 13 30 29 70 37 88 8 18 14
37 14 43 0 5 9 29 20 51 11 23 20 47 20 54 0 6 8 29 17 50 9 22 22 57 29 79 6
22 17 56 24 75 31 88 48 140 69 210 12 41 31 102 41 135 10 33 22 75 25 93 4
18 13 45 21 60 8 15 14 36 14 46 0 11 9 49 19 85 38 129 54 187 67 241 16 72
32 132 52 200 8 30 19 73 23 95 4 22 23 105 43 185 20 80 46 183 57 230 38
161 39 162 93 215 28 28 83 77 121 110 39 32 77 65 86 74 10 9 36 32 60 51 23
19 49 42 58 51 9 9 52 47 96 84 95 82 143 125 201 183 23 23 45 42 47 42 3 0
50 46 104 101 54 56 117 121 141 144 23 24 42 48 42 54 0 6 4 11 8 11 10 0
152 176 152 189 0 5 4 11 8 13 9 4 72 96 72 106 0 4 9 18 20 32 11 14 20 33
20 43 0 9 4 17 9 17 5 0 14 15 21 33 6 17 18 43 25 57 7 14 26 61 41 105 25
72 28 94 29 210 0 128 -1 131 -33 197 -79 158 -232 231 -432 206 -98 -12 -237
-67 -334 -131 -139 -92 -313 -252 -414 -379 -25 -32 -49 -58 -53 -58 -5 0 -9
-6 -9 -14 0 -7 -7 -19 -15 -26 -12 -10 -71 -92 -100 -139 -5 -9 -13 -18 -16
-21 -6 -5 -56 -82 -75 -115 -6 -11 -19 -34 -30 -52 -70 -116 -213 -390 -269
-518 -7 -16 -23 -51 -34 -77 -12 -27 -30 -67 -40 -90 -11 -24 -23 -54 -27 -68
-3 -14 -13 -34 -20 -45 -8 -11 -14 -25 -14 -32 0 -7 -9 -32 -19 -56 -17 -38
-38 -93 -76 -197 -7 -19 -22 -58 -34 -87 -12 -28 -21 -57 -21 -63 0 -6 -9 -30
-20 -52 -11 -23 -20 -47 -20 -54 0 -7 -8 -32 -19 -56 -17 -40 -31 -54 -149
-143 -7 -5 -21 -18 -30 -27 -9 -10 -22 -18 -28 -18 -7 0 -14 -3 -16 -8 -5 -11
-137 -112 -147 -112 -5 0 -11 -4 -13 -9 -4 -12 -177 -141 -188 -141 -5 0 -10
-4 -12 -9 -4 -11 -137 -111 -148 -111 -4 0 -10 -4 -12 -9 -4 -12 -137 -111
-149 -111 -5 0 -9 -3 -9 -7 -1 -5 -24 -24 -52 -43 -28 -19 -58 -43 -66 -52 -9
-10 -20 -18 -25 -18 -10 0 -90 -61 -95 -72 -2 -5 -8 -8 -13 -8 -5 0 -31 -17
-57 -37 -27 -21 -61 -47 -76 -58 -51 -36 -101 -74 -117 -87 -9 -7 -23 -17 -31
-23 -9 -5 -44 -30 -78 -55 -34 -25 -70 -49 -79 -55 -9 -5 -18 -12 -21 -15 -20
-20 -91 -70 -99 -70 -5 0 -14 -6 -18 -13 -7 -11 -83 -65 -141 -102 -9 -5 -21
-15 -27 -21 -5 -6 -32 -26 -60 -45 -27 -19 -54 -40 -58 -46 -4 -7 -15 -13 -22
-13 -8 0 -15 -3 -15 -8 0 -4 -18 -18 -40 -32 -22 -14 -40 -28 -40 -32 0 -5 -6
-8 -13 -8 -7 0 -20 -8 -29 -17 -8 -10 -38 -34 -66 -53 -28 -19 -51 -38 -52
-42 0 -5 -5 -8 -11 -8 -6 0 -38 -21 -72 -47 -34 -26 -79 -59 -99 -75 -20 -15
-41 -28 -47 -28 -5 0 -11 -4 -13 -9 -3 -9 -136 -111 -144 -111 -3 0 -11 -6
-19 -12 -12 -12 -92 -74 -198 -152 -26 -20 -51 -36 -56 -36 -5 0 -11 -3 -13
-7 -5 -13 -86 -73 -97 -73 -5 0 -14 -6 -18 -12 -4 -7 -30 -28 -58 -47 -27 -19
-55 -39 -60 -45 -6 -6 -18 -15 -27 -21 -58 -37 -134 -91 -141 -102 -4 -7 -12
-13 -18 -13 -9 0 -133 -86 -201 -140 -47 -36 -31 -13 40 58 75 77 282 298 358
382 88 98 108 120 147 160 20 21 37 43 37 49 0 6 3 11 8 11 4 0 46 45 92 100
46 55 88 100 92 100 5 0 8 7 8 15 0 7 6 18 14 22 11 6 106 118 171 201 5 7 17
21 26 30 9 9 107 132 218 272 111 140 211 266 222 278 10 13 19 25 19 27 0 5
100 138 109 145 3 3 11 12 16 21 6 9 30 45 55 79 25 34 50 70 55 79 6 8 15 20
21 26 6 5 19 23 30 39 10 16 26 39 34 51 8 12 33 48 55 81 22 32 42 61 45 64
3 3 14 18 25 34 11 16 27 39 35 51 8 12 25 37 37 56 12 19 27 39 32 46 6 7 11
14 11 17 0 2 18 32 40 65 22 33 40 65 40 71 0 5 4 10 8 10 5 0 16 15 25 33 10
17 30 52 47 77 31 49 51 82 77 133 9 17 21 37 26 42 9 11 45 77 103 195 21 41
41 76 46 78 4 2 8 8 8 14 0 6 20 53 45 105 25 51 45 97 45 101 0 4 9 25 19 47
11 22 29 66 41 98 11 31 29 81 40 110 11 29 20 62 20 73 0 12 7 41 15 65 24
67 38 276 32 469 -5 151 -10 192 -37 295 -17 65 -35 124 -40 129 -6 6 -10 16
-10 23 0 13 -46 113 -73 158 -42 71 -62 101 -74 108 -7 4 -13 12 -13 18 0 12
-158 169 -170 169 -5 0 -13 7 -18 16 -5 8 -18 21 -29 27 -12 7 -41 26 -65 42
-23 17 -58 37 -75 44 -18 7 -33 17 -33 22 0 5 -7 9 -15 9 -9 0 -30 8 -48 17
-50 27 -140 63 -157 63 -9 0 -20 4 -25 9 -13 13 -193 61 -270 72 -33 5 -91 16
-130 24 -96 19 -459 29 -635 16 -218 -15 -506 -72 -715 -141 -33 -11 -66 -20
-73 -20 -7 0 -32 -9 -54 -20 -23 -11 -48 -20 -56 -20 -7 0 -37 -9 -65 -21 -29
-11 -74 -30 -102 -41 -111 -45 -355 -156 -405 -184 -14 -8 -52 -28 -85 -45
-33 -17 -78 -42 -100 -55 -22 -13 -59 -34 -82 -46 -24 -12 -43 -26 -43 -30 0
-4 -9 -8 -20 -8 -11 0 -20 -4 -20 -9 0 -5 -15 -16 -34 -25 -18 -8 -39 -22 -46
-31 -7 -8 -16 -15 -21 -15 -4 0 -29 -15 -54 -32 -26 -18 -55 -38 -65 -43 -32
-19 -223 -159 -247 -182 -13 -13 -27 -23 -31 -23 -4 0 -15 -8 -23 -17 -9 -10
-33 -31 -54 -48 -71 -56 -130 -107 -162 -141 -18 -19 -35 -34 -38 -34 -16 0
-303 -306 -404 -430 -20 -25 -39 -46 -43 -48 -5 -2 -8 -10 -8 -17 0 -8 -9 -19
-20 -25 -11 -6 -20 -17 -20 -25 0 -7 -3 -15 -7 -17 -13 -5 -73 -86 -73 -97 0
-5 -4 -11 -8 -13 -8 -3 -72 -95 -72 -104 0 -3 -5 -10 -10 -17 -26 -31 -87
-134 -137 -232 -5 -11 -15 -30 -21 -42 -34 -66 -67 -141 -91 -205 -83 -222
-103 -309 -127 -550 -8 -82 18 -294 48 -388 25 -77 92 -216 119 -246 10 -11
19 -24 19 -28 0 -12 158 -161 191 -181 10 -5 43 -25 73 -42 31 -18 60 -33 65
-33 5 0 26 -8 48 -19 94 -46 329 -90 483 -91 91 0 342 33 387 52 16 6 46 14
68 19 49 9 127 36 178 61 22 10 44 18 49 18 17 0 265 120 328 158 19 12 54 32
77 44 24 12 43 26 43 30 0 4 4 8 9 8 12 0 105 61 109 72 2 4 8 8 13 8 13 0 99
62 99 72 0 4 5 8 11 8 9 0 134 95 184 142 227 208 426 441 521 613 9 17 20 32
24 35 12 9 118 211 158 300 10 25 29 66 41 91 11 25 21 52 21 60 0 7 9 36 19
64 41 105 55 195 59 376 3 156 2 184 -17 250 -24 81 -80 209 -93 209 -4 0 -8
6 -8 13 0 20 -81 97 -119 113 -30 13 -36 12 -52 -2 -18 -16 -17 -18 8 -63 14
-25 38 -69 54 -96 59 -106 72 -267 35 -438 -16 -75 -63 -216 -77 -232 -5 -5
-9 -15 -9 -22 0 -13 -80 -182 -133 -278 -33 -61 -44 -79 -106 -175 -20 -30
-40 -62 -46 -71 -5 -9 -30 -45 -55 -79 -25 -34 -49 -69 -55 -78 -5 -8 -19 -25
-30 -37 -11 -12 -42 -50 -69 -83 -28 -34 -53 -62 -58 -62 -4 0 -8 -5 -8 -11 0
-9 -197 -208 -297 -299 -38 -35 -156 -136 -181 -155 -7 -5 -21 -18 -30 -27 -9
-10 -22 -18 -29 -18 -7 0 -13 -4 -13 -8 0 -5 -26 -26 -57 -48 -32 -21 -62 -43
-68 -47 -47 -38 -207 -133 -315 -187 -11 -5 -28 -14 -37 -19 -94 -47 -233 -89
-403 -122 -74 -15 -259 -6 -345 16 -85 22 -205 78 -248 115 -54 47 -77 71 -77
80 0 5 -7 13 -16 18 -27 15 -92 144 -125 252 -22 69 -24 92 -24 295 0 196 3
231 24 320 26 111 71 264 81 280 4 6 10 23 14 39 8 34 36 98 112 261 15 33 31
62 35 65 4 3 14 21 23 40 20 41 49 93 76 135 11 17 29 46 40 65 44 75 92 143
107 153 7 4 13 13 13 18 0 11 60 92 73 97 4 2 7 10 7 18 0 8 7 17 15 20 8 4
15 12 15 20 0 7 9 18 20 24 11 6 20 15 20 20 0 5 10 20 23 33 12 12 47 52 77
87 112 130 375 380 400 380 5 0 14 9 20 20 6 11 17 20 25 20 7 0 15 3 17 8 2
4 26 24 53 44 28 21 55 41 60 45 11 9 111 77 154 105 14 10 40 25 56 34 17 9
32 20 35 24 3 4 20 16 39 26 18 10 41 24 50 29 9 6 39 23 66 38 28 15 68 38
90 51 44 26 313 161 360 181 17 7 41 18 55 23 14 6 51 22 84 36 32 14 63 26
70 26 6 1 29 9 51 20 22 11 47 19 55 20 8 0 37 9 65 19 98 38 322 101 357 101
13 0 47 7 75 15 73 22 315 45 462 45 194 -1 356 -30 478 -86 17 -7 34 -14 37
-14 4 0 19 -8 34 -18 15 -11 45 -31 67 -45 56 -37 145 -125 179 -177 16 -25
37 -57 48 -72 10 -15 18 -32 18 -37 0 -6 9 -30 19 -53 57 -129 78 -305 62
-518 -6 -74 -17 -160 -26 -190 -8 -30 -15 -66 -15 -79 0 -14 -9 -56 -21 -95
-12 -39 -30 -102 -42 -141 -25 -87 -53 -167 -78 -223 -10 -23 -19 -48 -19 -55
0 -6 -9 -30 -19 -52 -11 -22 -38 -85 -62 -140 -23 -55 -90 -195 -148 -312
-135 -271 -138 -276 -150 -289 -5 -7 -17 -27 -25 -45 -9 -19 -24 -47 -35 -64
-45 -74 -72 -122 -82 -147 -6 -16 -14 -28 -18 -28 -5 0 -16 -18 -26 -40 -10
-22 -22 -40 -27 -40 -4 0 -8 -9 -8 -20 0 -11 -4 -20 -8 -20 -5 0 -15 -12 -23
-27 -21 -42 -72 -118 -81 -121 -4 -2 -8 -12 -8 -23 0 -10 -4 -19 -9 -19 -5 0
-16 -15 -25 -34 -8 -18 -22 -39 -31 -46 -8 -7 -15 -16 -15 -21 0 -8 -40 -73
-60 -96 -5 -7 -10 -14 -10 -17 0 -3 -15 -26 -32 -52 -18 -25 -40 -56 -48 -68
-8 -13 -28 -43 -45 -67 -16 -24 -34 -51 -40 -60 -40 -64 -92 -135 -102 -142
-7 -4 -13 -13 -13 -18 0 -6 -26 -45 -57 -87 -32 -42 -71 -97 -87 -122 -17 -25
-36 -49 -43 -53 -7 -4 -13 -15 -13 -22 0 -8 -3 -15 -8 -15 -4 0 -18 -18 -32
-40 -14 -22 -28 -40 -32 -40 -5 0 -8 -5 -8 -12 0 -6 -7 -18 -15 -27 -9 -9 -38
-45 -65 -81 -27 -36 -56 -72 -65 -81 -8 -9 -15 -19 -15 -22 0 -7 -31 -45 -62
-79 -10 -10 -18 -21 -18 -25 0 -3 -7 -13 -15 -22 -9 -9 -74 -90 -146 -181 -71
-91 -137 -170 -145 -176 -8 -6 -14 -16 -14 -22 0 -6 -9 -16 -20 -22 -11 -6
-20 -17 -20 -25 0 -8 -4 -15 -9 -15 -4 0 -36 -36 -71 -80 -35 -44 -67 -80 -71
-80 -5 0 -9 -5 -9 -11 0 -10 -39 -57 -87 -104 -13 -12 -23 -27 -23 -34 0 -6
-4 -11 -8 -11 -4 0 -29 -26 -56 -57 -47 -57 -146 -170 -196 -223 -26 -29 -29
-32 -185 -205 -55 -60 -121 -131 -147 -156 -27 -26 -48 -49 -48 -52 0 -3 -31
-36 -68 -74 -86 -86 -172 -186 -172 -200 0 -6 -7 -24 -15 -39 -33 -64 -8 -136
59 -168 81 -38 196 -15 319 66 32 21 62 38 67 38 5 0 10 4 12 8 3 8 95 72 104
72 3 0 10 5 17 11 11 9 34 24 92 61 11 7 22 15 25 19 12 12 102 69 111 69 5 0
9 4 9 10 0 5 13 16 29 25 16 8 35 20 43 27 14 13 23 19 86 59 17 12 32 25 32
30 0 5 4 9 10 9 11 0 144 91 148 102 2 4 8 8 13 8 10 0 124 80 150 105 9 8 19
15 23 15 3 0 56 36 116 80 60 44 114 80 119 80 6 0 14 6 18 13 7 11 83 65 141
102 9 6 21 15 27 21 5 6 32 26 60 45 27 19 54 38 60 42 5 4 66 48 135 97 69
49 132 96 141 104 9 9 21 16 27 16 7 0 12 4 12 8 0 5 18 18 40 31 22 12 40 26
40 32 0 5 5 9 11 9 8 0 79 50 99 70 3 3 12 10 21 15 9 6 45 30 79 55 34 25 70
50 79 55 8 6 20 15 26 21 10 10 50 38 84 59 9 6 23 16 31 23 13 11 136 100
228 164 18 13 39 28 45 33 7 6 41 30 77 55 36 24 111 80 168 122 57 43 107 78
112 78 6 0 10 4 10 8 0 5 26 26 58 48 31 21 61 44 65 51 4 7 14 13 22 13 7 0
15 3 17 8 3 7 73 62 118 92 12 8 28 20 34 25 12 11 87 67 132 100 15 11 64 48
108 82 155 119 201 154 259 194 31 22 57 44 57 49 0 6 5 10 10 10 11 0 143
100 148 112 2 5 9 8 14 8 6 0 18 7 27 15 9 9 45 38 81 65 36 27 72 56 81 65 9
8 21 15 27 15 7 0 12 4 12 8 0 5 21 24 48 43 26 18 105 80 177 137 71 56 131
99 133 93 2 -5 -6 -29 -17 -53 -11 -23 -31 -79 -46 -123 -15 -44 -32 -89 -38
-100 -5 -11 -13 -33 -18 -50 -4 -16 -15 -52 -24 -80 -41 -117 -52 -149 -135
-415 -23 -74 -51 -158 -61 -185 -10 -28 -19 -58 -19 -67 0 -9 -9 -37 -20 -63
-11 -26 -20 -55 -20 -64 0 -10 -8 -40 -19 -67 -10 -27 -38 -110 -61 -184 -23
-74 -48 -151 -56 -170 -15 -40 -90 -259 -104 -305 -5 -16 -21 -61 -35 -100
-15 -38 -33 -88 -41 -110 -8 -22 -21 -52 -29 -67 -8 -14 -15 -33 -15 -41 0 -8
-8 -32 -19 -54 -10 -21 -29 -63 -41 -93 -32 -77 -62 -145 -90 -200 -5 -11 -14
-29 -20 -40 -5 -11 -14 -29 -20 -40 -42 -83 -90 -170 -129 -230 -20 -30 -38
-59 -41 -65 -3 -5 -27 -43 -54 -84 -55 -83 -70 -137 -55 -194 14 -54 58 -71
159 -64 79 6 135 27 219 81 60 38 45 25 308 272 65 61 174 162 243 224 69 62
140 128 157 147 18 18 36 33 39 33 3 0 23 17 44 38 50 48 85 80 190 172 47 41
94 84 106 95 37 35 87 80 174 155 47 40 92 80 101 89 10 9 34 30 55 48 22 17
64 55 94 82 30 28 62 51 71 51 9 0 24 -18 35 -42 18 -40 19 -73 19 -593 0
-538 0 -551 -21 -590 -17 -33 -30 -43 -70 -56 -27 -9 -71 -20 -97 -24 l-48 -7
3 -57 3 -56 390 0 390 0 3 58 c3 57 3 57 -25 57 -59 0 -150 34 -175 65 l-23
30 -3 775 -2 775 31 25 c18 14 39 33 48 43 8 9 21 17 28 17 7 0 13 4 13 8 0 4
33 34 73 67 39 32 79 65 87 72 28 26 66 58 120 103 30 25 72 61 95 80 23 20
49 42 59 50 9 8 25 22 34 31 9 8 67 55 127 105 61 49 116 94 123 101 7 7 34
29 60 50 26 21 49 40 52 43 3 3 30 25 60 50 30 25 57 47 60 50 3 3 28 23 55
45 28 22 57 47 66 55 9 9 66 56 128 105 61 49 111 93 111 97 0 4 7 8 15 8 8 0
19 9 25 20 6 11 17 20 25 20 8 0 15 4 15 8 0 5 38 39 85 76 107 85 133 107
153 129 9 9 22 17 29 17 7 0 13 4 13 9 0 4 28 30 62 57 34 26 74 59 88 74 49
46 94 85 175 155 44 37 90 78 101 89 12 12 49 46 83 76 209 188 504 477 696
685 55 59 111 120 125 135 14 14 50 55 80 90 30 36 65 75 78 88 12 12 22 27
22 33 0 5 7 12 15 15 8 4 15 12 15 20 0 7 9 18 20 24 11 6 20 17 20 25 0 7 3
15 8 17 12 5 112 137 112 148 0 5 4 10 9 10 5 0 20 17 33 37 26 42 39 61 86
126 17 25 32 50 32 55 0 5 7 15 15 22 9 7 23 28 31 46 9 19 20 34 25 34 5 0 9
7 9 15 0 9 8 28 18 43 28 43 39 63 73 132 86 177 135 301 150 380 4 25 15 67
24 94 20 66 20 252 -1 326 -8 30 -19 69 -23 85 -13 50 -71 162 -101 198 -8 10
-30 32 -48 50 -18 17 -41 40 -50 50 -9 9 -22 17 -29 17 -7 0 -13 4 -13 8 0 16
-138 70 -218 86 -103 20 -162 19 -232 -2z m-2458 -1062 c15 -11 32 -20 38 -20
5 0 10 -7 10 -15 0 -9 6 -18 14 -21 8 -3 22 -30 31 -59 25 -78 10 -259 -27
-330 -8 -17 -27 -55 -42 -85 -63 -131 -170 -276 -344 -467 -73 -79 -289 -282
-442 -413 -23 -19 -49 -42 -58 -51 -9 -9 -48 -42 -87 -74 -38 -32 -82 -71 -96
-85 -29 -30 -59 -45 -59 -29 0 10 24 91 57 189 8 25 19 64 23 88 5 23 15 52
21 65 7 12 16 38 20 57 3 19 15 58 24 85 10 28 26 73 35 100 10 28 23 65 29
83 23 67 35 98 53 139 10 24 18 47 18 53 0 5 9 31 21 57 12 27 29 67 40 91 83
192 139 300 190 364 16 20 29 39 29 43 0 13 127 147 180 190 35 28 90 57 125
66 52 14 166 2 197 -21z"/>
<path d="M11325 9140 c-3 -5 -12 -10 -20 -10 -8 0 -25 -10 -38 -22 -81 -76
-75 -200 13 -274 30 -25 41 -28 105 -28 61 0 76 3 102 24 103 85 94 243 -17
300 -42 21 -134 28 -145 10z"/>
<path d="M12595 8518 c-94 -27 -188 -73 -253 -123 -25 -19 -152 -144 -152
-149 0 -3 -18 -29 -40 -58 -22 -29 -40 -57 -40 -62 0 -5 -14 -39 -31 -75 -69
-146 -94 -284 -85 -475 7 -133 27 -214 85 -336 58 -122 166 -251 266 -318 22
-15 42 -29 45 -32 5 -6 83 -43 155 -75 48 -21 197 -45 280 -45 67 0 213 23
242 39 10 5 48 24 85 41 36 17 72 37 78 45 7 8 17 15 22 15 5 0 26 16 46 35
20 19 40 35 43 35 10 0 129 147 129 159 0 6 4 11 9 11 5 0 12 8 16 18 4 12 -3
25 -26 44 l-32 27 -19 -22 c-50 -58 -113 -120 -146 -144 -20 -16 -39 -31 -42
-34 -13 -16 -169 -84 -209 -91 -240 -45 -391 4 -510 167 -60 82 -107 192 -131
310 -26 126 -29 153 -29 238 l-1 87 580 0 580 0 0 71 c0 42 -9 102 -21 147
-24 84 -79 212 -91 212 -4 0 -8 7 -8 15 0 8 -6 23 -14 32 -88 108 -88 108
-221 211 -22 17 -104 52 -179 76 -104 34 -273 36 -381 4z m329 -131 c55 -25
156 -113 156 -136 0 -5 6 -16 13 -23 30 -32 57 -142 57 -235 l0 -93 -395 0
c-325 0 -395 2 -395 13 0 33 39 196 54 225 9 17 16 36 16 41 0 17 62 103 102
142 36 34 99 70 158 90 50 17 172 4 234 -24z"/>
</g>
</svg>
